<svg width="18" height="20" viewBox="0 0 18 20" fill="none" xmlns="http://www.w3.org/2000/svg">
<path d="M16.7322 15.349C16.4433 16.0209 16.0969 16.6348 15.7033 17.202C15.1627 17.9735 14.7163 18.5089 14.3751 18.8082C13.845 19.2964 13.2782 19.543 12.6691 19.5587C12.2336 19.5587 11.7087 19.4326 11.0944 19.1808C10.4801 18.929 9.91326 18.8082 9.39883 18.8082C8.85821 18.8082 8.27569 18.9342 7.65613 19.1808C7.03133 19.4326 6.53299 19.5639 6.14951 19.5744C5.56699 19.6006 4.98409 19.3435 4.40681 18.8029C4.03418 18.4774 3.57212 17.9263 3.02103 17.1444C2.42803 16.3045 1.93456 15.3389 1.55145 14.2311C1.14215 13.0342 0.9375 11.8796 0.9375 10.7561C0.9375 9.47025 1.21585 8.36245 1.77218 7.43872C2.20767 6.69345 2.79057 6.10532 3.51488 5.67507C4.24444 5.24482 5.02674 5.02408 5.87153 5.00837C6.33358 5.00837 6.94229 5.15016 7.69803 5.43338C8.44854 5.71697 8.93154 5.85839 9.14667 5.85839C9.30417 5.85839 9.83955 5.69041 10.7528 5.35444C11.6137 5.04466 12.338 4.91895 12.9362 4.96609C14.5476 5.09741 15.7602 5.73231 16.5634 6.87677C15.12 7.74812 14.4114 8.97116 14.4219 10.5406C14.4324 11.7637 14.8787 12.782 15.7501 13.5902C16.1436 13.9628 16.5847 14.2569 17.0782 14.4615C16.963 14.7717 16.853 15.0654 16.7322 15.349ZM13.0369 0.803894C13.0369 1.76429 12.6852 2.65696 11.9871 3.48603C11.1471 4.47299 10.1288 5.0398 9.02133 4.95038C9.00562 4.83477 9.00038 4.7143 9.00038 4.58822C9.00038 3.66973 9.3992 2.68278 10.113 1.87989C10.47 1.47059 10.9215 1.13462 11.4674 0.86151C12.0133 0.593632 12.5329 0.446973 13.0159 0.42041C13.0264 0.546492 13.0369 0.677812 13.0369 0.803894Z" fill="white"/>
</svg>
