<svg width="22" height="22" viewBox="0 0 22 22" fill="none" xmlns="http://www.w3.org/2000/svg">
<path d="M1.5 11C1.5 6.52166 1.5 4.28249 2.89124 2.89124C4.28249 1.5 6.52166 1.5 11 1.5C15.4783 1.5 17.7175 1.5 19.1088 2.89124C20.5 4.28249 20.5 6.52166 20.5 11C20.5 15.4783 20.5 17.7175 19.1088 19.1088C17.7175 20.5 15.4783 20.5 11 20.5C6.52166 20.5 4.28249 20.5 2.89124 19.1088C1.5 17.7175 1.5 15.4783 1.5 11Z" stroke="#FCFCFF" stroke-width="1.5" stroke-linejoin="round"/>
<path d="M16 7.75C16.4142 7.75 16.75 7.41421 16.75 7C16.75 6.58579 16.4142 6.25 16 6.25V7.75ZM15 7V7.75V7ZM10.25 20.5C10.25 20.9142 10.5858 21.25 11 21.25C11.4142 21.25 11.75 20.9142 11.75 20.5H10.25ZM9 12.25C8.58579 12.25 8.25 12.5858 8.25 13C8.25 13.4142 8.58579 13.75 9 13.75V12.25ZM14 13.75C14.4142 13.75 14.75 13.4142 14.75 13C14.75 12.5858 14.4142 12.25 14 12.25V13.75ZM16 6.25H15V7.75H16V6.25ZM10.25 11V20.5H11.75V11H10.25ZM15 6.25C14.0784 6.25 13.3117 6.24841 12.7055 6.32991C12.0777 6.41432 11.5109 6.59999 11.0555 7.05546L12.1161 8.11612C12.2464 7.9858 12.4439 7.87858 12.9054 7.81654C13.3884 7.75159 14.036 7.75 15 7.75V6.25ZM11.75 11C11.75 10.036 11.7516 9.38843 11.8165 8.90539C11.8786 8.44393 11.9858 8.24643 12.1161 8.11612L11.0555 7.05546C10.6 7.51093 10.4143 8.07773 10.3299 8.70552C10.2484 9.31174 10.25 10.0784 10.25 11H11.75ZM9 13.75H14V12.25H9V13.75Z" fill="#FCFCFF"/>
</svg>
