<svg width="18" height="18" viewBox="0 0 18 18" fill="none" xmlns="http://www.w3.org/2000/svg">
<g clip-path="url(#clip0_881_8003)">
<path d="M17.4297 9.16478C17.4297 8.44026 17.3709 7.91156 17.2437 7.36328H8.97046V10.6334H13.8267C13.7288 11.446 13.2001 12.6699 12.0252 13.4923L12.0087 13.6018L14.6245 15.6282L14.8058 15.6463C16.4702 14.1091 17.4297 11.8474 17.4297 9.16478Z" fill="#4285F4"/>
<path d="M8.96974 17.7809C11.3489 17.7809 13.3462 16.9976 14.8051 15.6465L12.0244 13.4925C11.2804 14.0114 10.2817 14.3736 8.96974 14.3736C6.63954 14.3736 4.66181 12.8365 3.9568 10.7119L3.85346 10.7207L1.13347 12.8257L1.0979 12.9246C2.54693 15.8031 5.52334 17.7809 8.96974 17.7809Z" fill="#34A853"/>
<path d="M3.95676 10.7123C3.77074 10.1641 3.66308 9.57658 3.66308 8.96958C3.66308 8.36251 3.77074 7.77508 3.94697 7.22681L3.94204 7.11004L1.18796 4.97119L1.09785 5.01405C0.500641 6.20855 0.157959 7.54991 0.157959 8.96958C0.157959 10.3892 0.500641 11.7305 1.09785 12.925L3.95676 10.7123Z" fill="#FBBC05"/>
<path d="M8.96974 3.56489C10.6244 3.56489 11.7405 4.27962 12.3769 4.8769L14.8638 2.44877C13.3365 1.0291 11.3489 0.157715 8.96974 0.157715C5.52334 0.157715 2.54693 2.13544 1.0979 5.01392L3.94702 7.22667C4.66181 5.10207 6.63954 3.56489 8.96974 3.56489Z" fill="#EB4335"/>
</g>
<defs>
<clipPath id="clip0_881_8003">
<rect width="17.6842" height="17.6842" fill="white" transform="translate(0.157959 0.157715)"/>
</clipPath>
</defs>
</svg>
