<svg width="22" height="22" viewBox="0 0 22 22" fill="none" xmlns="http://www.w3.org/2000/svg">
<path d="M1.5 11C1.5 6.52166 1.5 4.28249 2.89124 2.89124C4.28249 1.5 6.52166 1.5 11 1.5C15.4783 1.5 17.7175 1.5 19.1088 2.89124C20.5 4.28249 20.5 6.52166 20.5 11C20.5 15.4783 20.5 17.7175 19.1088 19.1088C17.7175 20.5 15.4783 20.5 11 20.5C6.52166 20.5 4.28249 20.5 2.89124 19.1088C1.5 17.7175 1.5 15.4783 1.5 11Z" stroke="#FCFCFF" stroke-width="1.5" stroke-linejoin="round"/>
<path d="M9.3938 10.7779C9.80384 10.8365 10.1838 10.5517 10.2424 10.1416C10.3011 9.7316 10.0162 9.35165 9.6062 9.293L9.3938 10.7779ZM16.5 9.25C16.9142 9.25 17.25 8.91421 17.25 8.5C17.25 8.08579 16.9142 7.75 16.5 7.75V9.25ZM13.25 5C13.25 4.58579 12.9142 4.25 12.5 4.25C12.0858 4.25 11.75 4.58579 11.75 5H13.25ZM11.75 13.5C11.75 15.0188 10.5188 16.25 9 16.25V17.75C11.3472 17.75 13.25 15.8472 13.25 13.5H11.75ZM9 16.25C7.48122 16.25 6.25 15.0188 6.25 13.5H4.75C4.75 15.8472 6.65279 17.75 9 17.75V16.25ZM6.25 13.5C6.25 11.9812 7.48122 10.75 9 10.75V9.25C6.65279 9.25 4.75 11.1528 4.75 13.5H6.25ZM9 10.75C9.13412 10.75 9.26557 10.7595 9.3938 10.7779L9.6062 9.293C9.40783 9.26463 9.2054 9.25 9 9.25V10.75ZM16.5 7.75C15.7254 7.75 14.8924 7.4308 14.2559 6.89923C13.62 6.36819 13.25 5.68835 13.25 5H11.75C11.75 6.24465 12.4135 7.31481 13.2944 8.05052C14.1746 8.7857 15.3416 9.25 16.5 9.25V7.75ZM11.75 5V13.5H13.25V5H11.75Z" fill="#FCFCFF"/>
</svg>
