<svg width="21" height="20" viewBox="0 0 21 20" fill="none" xmlns="http://www.w3.org/2000/svg">
<path d="M5.5 14.9787C5.60725 16.0691 5.84963 16.803 6.39743 17.3508C7.37997 18.3333 8.96135 18.3333 12.1241 18.3333C15.2869 18.3333 16.8682 18.3333 17.8508 17.3508C18.8333 16.3682 18.8333 14.7869 18.8333 11.6241C18.8333 8.46135 18.8333 6.87997 17.8508 5.89743C17.303 5.34963 16.5691 5.10725 15.4787 5" stroke="white" stroke-width="1.5"/>
<path d="M2.16675 8.33329C2.16675 5.1906 2.16675 3.61925 3.14306 2.64294C4.11937 1.66663 5.69072 1.66663 8.83341 1.66663C11.9761 1.66663 13.5475 1.66663 14.5238 2.64294C15.5001 3.61925 15.5001 5.1906 15.5001 8.33329C15.5001 11.476 15.5001 13.0473 14.5238 14.0236C13.5475 15 11.9761 15 8.83341 15C5.69072 15 4.11937 15 3.14306 14.0236C2.16675 13.0473 2.16675 11.476 2.16675 8.33329Z" stroke="white" stroke-width="1.5"/>
<path d="M4.66675 14.9999C7.51726 11.0405 10.7207 5.7895 15.5001 9.72779" stroke="white" stroke-width="1.5"/>
</svg>
