<svg width="16" height="14" viewBox="0 0 16 14" fill="none" xmlns="http://www.w3.org/2000/svg">
<path d="M1.33325 7C1.33325 4.34689 1.33325 3.02033 2.03512 2.13467C2.14738 1.99302 2.2711 1.86202 2.40489 1.74315C3.24134 1 4.4942 1 6.99992 1H8.99992C11.5056 1 12.7585 1 13.5949 1.74315C13.7287 1.86202 13.8525 1.99302 13.9647 2.13467C14.6666 3.02033 14.6666 4.34689 14.6666 7C14.6666 9.65311 14.6666 10.9797 13.9647 11.8653C13.8525 12.007 13.7287 12.138 13.5949 12.2568C12.7585 13 11.5056 13 8.99992 13H6.99992C4.4942 13 3.24134 13 2.40489 12.2568C2.2711 12.138 2.14738 12.007 2.03512 11.8653C1.33325 10.9797 1.33325 9.65311 1.33325 7Z" stroke="#C9C9C9" stroke-width="1.5" stroke-linecap="round"/>
<path d="M6.99984 5H6.6665C6.04525 5 5.73462 5 5.48959 5.10149C5.16289 5.23682 4.90332 5.49638 4.768 5.82309C4.6665 6.06812 4.6665 6.37874 4.6665 7C4.6665 7.62126 4.6665 7.93188 4.768 8.17691C4.90332 8.50362 5.16289 8.76318 5.48959 8.89851C5.73462 9 6.04525 9 6.6665 9H6.99984M11.3332 5H10.9998C10.3786 5 10.068 5 9.82293 5.10149C9.49622 5.23682 9.23666 5.49638 9.10133 5.82309C8.99984 6.06812 8.99984 6.37874 8.99984 7C8.99984 7.62126 8.99984 7.93188 9.10133 8.17691C9.23666 8.50362 9.49622 8.76318 9.82293 8.89851C10.068 9 10.3786 9 10.9998 9H11.3332" stroke="#C9C9C9" stroke-width="1.5" stroke-linecap="round"/>
</svg>
