<svg width="16" height="17" viewBox="0 0 16 17" fill="none" xmlns="http://www.w3.org/2000/svg">
<path d="M14.6667 8.50033C14.6667 4.81843 11.6819 1.83366 8.00004 1.83366C4.31814 1.83366 1.33337 4.81843 1.33337 8.50033C1.33337 12.1822 4.31814 15.167 8.00004 15.167C11.6819 15.167 14.6667 12.1822 14.6667 8.50033Z" fill="white"/>
<path d="M14.6667 8.50033C14.6667 4.81843 11.6819 1.83366 8.00004 1.83366C4.31814 1.83366 1.33337 4.81843 1.33337 8.50033C1.33337 12.1822 4.31814 15.167 8.00004 15.167C11.6819 15.167 14.6667 12.1822 14.6667 8.50033Z" fill="url(#paint0_linear_1218_3306)"/>
<path d="M14.6667 8.50033C14.6667 4.81843 11.6819 1.83366 8.00004 1.83366C4.31814 1.83366 1.33337 4.81843 1.33337 8.50033C1.33337 12.1822 4.31814 15.167 8.00004 15.167C11.6819 15.167 14.6667 12.1822 14.6667 8.50033Z" stroke="#6949FF" stroke-width="1.5"/>
<path d="M5.33337 8.83333L7.00004 10.5L10.6667 6.5" stroke="#6949FF" stroke-width="1.5" stroke-linecap="round" stroke-linejoin="round"/>
<defs>
<linearGradient id="paint0_linear_1218_3306" x1="12.6667" y1="4.16699" x2="3.33337" y2="12.8337" gradientUnits="userSpaceOnUse">
<stop stop-color="white"/>
<stop offset="1" stop-color="#E3E3E3"/>
</linearGradient>
</defs>
</svg>
