<svg width="20" height="22" viewBox="0 0 20 22" fill="none" xmlns="http://www.w3.org/2000/svg">
<path d="M1.5 11.8652V11.0615C1.5 8.09415 1.5 6.61046 1.96894 5.42548C2.72281 3.52045 4.31714 2.01778 6.33836 1.30725C7.59563 0.865267 9.16981 0.865267 12.3182 0.865267C14.1173 0.865267 15.0168 0.865266 15.7352 1.11782C16.8902 1.52385 17.8012 2.38251 18.232 3.4711C18.5 4.14824 18.5 4.99606 18.5 6.6917V10.8794V11.8652" stroke="white" stroke-width="1.5" stroke-linecap="round" stroke-linejoin="round"/>
<path d="M1.5 10.8652C1.5 9.02428 2.99238 7.5319 4.83333 7.5319C5.49912 7.5319 6.28404 7.64856 6.93137 7.47511C7.50652 7.321 7.95576 6.87175 8.10988 6.2966C8.28333 5.64927 8.16667 4.86435 8.16667 4.19857C8.16667 2.35762 9.65905 0.865234 11.5 0.865234" stroke="white" stroke-width="1.5" stroke-linecap="round" stroke-linejoin="round"/>
<path d="M18.5007 16.0848C18.4486 14.8945 17.674 14.8652 16.6231 14.8652C15.0044 14.8652 14.736 15.2713 14.736 16.8652V18.8652C14.736 20.4592 15.0044 20.8652 16.6231 20.8652C17.674 20.8652 18.4486 20.836 18.5007 19.6456M5.26568 17.8652C5.26568 19.5221 4.00155 20.8652 2.44215 20.8652C2.0903 20.8652 1.91437 20.8652 1.78333 20.7848C1.46959 20.5924 1.50098 20.2028 1.50098 19.8652V15.8652C1.50098 15.5277 1.46959 15.1381 1.78333 14.9456C1.91437 14.8652 2.0903 14.8652 2.44215 14.8652C4.00155 14.8652 5.26568 16.2084 5.26568 17.8652ZM10.0007 20.8652C9.11339 20.8652 8.66971 20.8652 8.39405 20.5723C8.11839 20.2794 8.11839 19.808 8.11839 18.8652V16.8652C8.11839 15.9224 8.11839 15.451 8.39405 15.1581C8.66971 14.8652 9.11339 14.8652 10.0007 14.8652C10.8881 14.8652 11.3318 14.8652 11.6074 15.1581C11.8831 15.451 11.8831 15.9224 11.8831 16.8652V18.8652C11.8831 19.808 11.8831 20.2794 11.6074 20.5723C11.3318 20.8652 10.8881 20.8652 10.0007 20.8652Z" stroke="white" stroke-width="1.5" stroke-linecap="round"/>
</svg>
