<svg width="16" height="16" viewBox="0 0 16 16" fill="none" xmlns="http://www.w3.org/2000/svg">
<path d="M11.3333 2V4" stroke="#C9C9C9" stroke-width="1.5" stroke-linecap="round" stroke-linejoin="round"/>
<path d="M4.6665 2V6" stroke="#C9C9C9" stroke-width="1.5" stroke-linecap="round" stroke-linejoin="round"/>
<path d="M4.6665 12L4.6665 14" stroke="#C9C9C9" stroke-width="1.5" stroke-linecap="round" stroke-linejoin="round"/>
<path d="M11.3333 10L11.3333 14" stroke="#C9C9C9" stroke-width="1.5" stroke-linecap="round" stroke-linejoin="round"/>
<path d="M11.3333 4C11.9545 4 12.2651 4 12.5102 4.10149C12.8369 4.23682 13.0964 4.49638 13.2318 4.82309C13.3333 5.06812 13.3333 5.37874 13.3333 6C13.3333 6.62126 13.3333 6.93188 13.2318 7.17691C13.0964 7.50362 12.8369 7.76318 12.5102 7.89851C12.2651 8 11.9545 8 11.3333 8C10.712 8 10.4014 8 10.1563 7.89851C9.82964 7.76318 9.57007 7.50362 9.43475 7.17691C9.33325 6.93188 9.33325 6.62126 9.33325 6C9.33325 5.37874 9.33325 5.06812 9.43475 4.82309C9.57007 4.49638 9.82964 4.23682 10.1563 4.10149C10.4014 4 10.712 4 11.3333 4Z" stroke="#C9C9C9" stroke-width="1.5"/>
<path d="M4.6665 8C5.28776 8 5.59839 8 5.84342 8.10149C6.17012 8.23682 6.42968 8.49638 6.56501 8.82309C6.6665 9.06812 6.6665 9.37874 6.6665 10C6.6665 10.6213 6.6665 10.9319 6.56501 11.1769C6.42968 11.5036 6.17012 11.7632 5.84342 11.8985C5.59839 12 5.28776 12 4.6665 12C4.04525 12 3.73462 12 3.48959 11.8985C3.16289 11.7632 2.90332 11.5036 2.768 11.1769C2.6665 10.9319 2.6665 10.6213 2.6665 10C2.6665 9.37874 2.6665 9.06812 2.768 8.82309C2.90332 8.49638 3.16289 8.23682 3.48959 8.10149C3.73462 8 4.04525 8 4.6665 8Z" stroke="#C9C9C9" stroke-width="1.5"/>
</svg>
