<svg width="19" height="18" viewBox="0 0 19 18" fill="none" xmlns="http://www.w3.org/2000/svg">
<path d="M1.58325 9.00004C1.58325 5.26809 1.58325 3.40211 2.74262 2.24274C3.90199 1.08337 5.76797 1.08337 9.49992 1.08337C13.2319 1.08337 15.0978 1.08337 16.2572 2.24274C17.4166 3.40211 17.4166 5.26809 17.4166 9.00004C17.4166 12.732 17.4166 14.598 16.2572 15.7573C15.0978 16.9167 13.2319 16.9167 9.49992 16.9167C5.76797 16.9167 3.90199 16.9167 2.74262 15.7573C1.58325 14.598 1.58325 12.732 1.58325 9.00004Z" stroke="white" stroke-width="1.5"/>
<circle cx="13.25" cy="5.25" r="1.25" stroke="white" stroke-width="1.5"/>
<path d="M12.8333 17.3334C12.3171 15.4791 11.1121 13.8185 9.39712 12.6119C7.54801 11.3109 5.22636 10.6223 2.84641 10.669C2.56382 10.6683 2.28146 10.6773 2 10.696" stroke="white" stroke-width="1.5" stroke-linejoin="round"/>
<path d="M10.3333 14C11.7512 12.8945 13.2787 12.3273 14.8218 12.3334C15.6968 12.3325 16.5676 12.5181 17.4166 12.8848" stroke="white" stroke-width="1.5" stroke-linejoin="round"/>
</svg>
