<svg width="18" height="18" viewBox="0 0 18 18" fill="none" xmlns="http://www.w3.org/2000/svg">
<path d="M7 10.229C7.14163 10.4609 7.30968 10.6804 7.50416 10.8828C8.71168 12.1395 10.5522 12.336 11.9576 11.4722C12.218 11.3121 12.4634 11.1157 12.6872 10.8828L15.9266 7.51142C17.3578 6.02184 17.3578 3.60676 15.9266 2.11718C14.4953 0.627605 12.1748 0.627606 10.7435 2.11718L10.03 2.85978" stroke="#686567" stroke-width="1.5" stroke-linecap="round"/>
<path d="M7.9703 15.14L7.25652 15.8828C5.82526 17.3724 3.50471 17.3724 2.07345 15.8828C0.642184 14.3932 0.642183 11.9782 2.07345 10.4886L5.31287 7.11718C6.74413 5.62761 9.06468 5.6276 10.4959 7.11718C10.6904 7.31954 10.8584 7.53897 11 7.77084" stroke="#686567" stroke-width="1.5" stroke-linecap="round"/>
</svg>
