<svg width="14" height="14" viewBox="0 0 14 14" fill="none" xmlns="http://www.w3.org/2000/svg">
<path d="M1.594 12.4573C0.666504 11.5298 0.666504 10.037 0.666504 7.05143C0.666503 4.06587 0.666503 2.57309 1.594 1.64559C2.52149 0.718099 4.01427 0.718099 6.99984 0.718099C9.9854 0.718099 11.4782 0.718099 12.4057 1.64559C13.3332 2.57309 13.3332 4.06587 13.3332 7.05143C13.3332 10.037 13.3332 11.5298 12.4057 12.4573C11.4782 13.3848 9.9854 13.3848 6.99984 13.3848C4.01428 13.3848 2.52149 13.3848 1.594 12.4573Z" stroke="#C9C9C9" stroke-linecap="round" stroke-linejoin="round"/>
<path d="M0.666504 5.05273L13.3332 5.05273" stroke="#C9C9C9"/>
<path d="M4.33301 13.3848L4.33301 5.05143" stroke="#C9C9C9"/>
</svg>
