<svg width="16" height="14" viewBox="0 0 16 14" fill="none" xmlns="http://www.w3.org/2000/svg">
<path d="M4.6665 4.66699L6.62785 5.82661C7.77132 6.50267 8.22836 6.50267 9.37183 5.82661L11.3332 4.66699" stroke="#C9C9C9" stroke-linecap="round" stroke-linejoin="round"/>
<path d="M1.34376 7.98391C1.38735 10.0276 1.40914 11.0494 2.16322 11.8064C2.91731 12.5634 3.96681 12.5897 6.0658 12.6425C7.35946 12.675 8.64038 12.675 9.93404 12.6425C12.033 12.5897 13.0825 12.5634 13.8366 11.8064C14.5907 11.0494 14.6125 10.0276 14.6561 7.98391C14.6701 7.32679 14.6701 6.67355 14.6561 6.01643C14.6125 3.97274 14.5907 2.95089 13.8366 2.19394C13.0825 1.43698 12.033 1.41061 9.93404 1.35788C8.64038 1.32537 7.35946 1.32537 6.0658 1.35787C3.9668 1.41061 2.91731 1.43697 2.16322 2.19393C1.40913 2.95088 1.38734 3.97273 1.34376 6.01642C1.32975 6.67354 1.32975 7.32679 1.34376 7.98391Z" stroke="#C9C9C9" stroke-linejoin="round"/>
</svg>
