<svg width="64" height="64" viewBox="0 0 64 64" fill="none" xmlns="http://www.w3.org/2000/svg">
<rect x="1.6" y="1.6" width="60.8" height="60.8" rx="30.4" fill="url(#paint0_linear_453_2558)"/>
<rect x="1.6" y="1.6" width="60.8" height="60.8" rx="30.4" stroke="url(#paint1_linear_453_2558)" stroke-width="3.2"/>
<g filter="url(#filter0_di_453_2558)">
<path d="M46.3997 29.229C48.533 30.4607 48.533 33.5399 46.3997 34.7716L27.1997 45.8567C25.0664 47.0884 22.3997 45.5488 22.3997 43.0854L22.3997 20.9152C22.3997 18.4518 25.0664 16.9122 27.1997 18.1439L46.3997 29.229Z" fill="#D9D9D9"/>
<path d="M46.3997 29.229C48.533 30.4607 48.533 33.5399 46.3997 34.7716L27.1997 45.8567C25.0664 47.0884 22.3997 45.5488 22.3997 43.0854L22.3997 20.9152C22.3997 18.4518 25.0664 16.9122 27.1997 18.1439L46.3997 29.229Z" fill="url(#paint2_linear_453_2558)"/>
</g>
<defs>
<filter id="filter0_di_453_2558" x="9.5999" y="4.91045" width="51.1996" height="54.1796" filterUnits="userSpaceOnUse" color-interpolation-filters="sRGB">
<feFlood flood-opacity="0" result="BackgroundImageFix"/>
<feColorMatrix in="SourceAlpha" type="matrix" values="0 0 0 0 0 0 0 0 0 0 0 0 0 0 0 0 0 0 127 0" result="hardAlpha"/>
<feOffset/>
<feGaussianBlur stdDeviation="6.4"/>
<feComposite in2="hardAlpha" operator="out"/>
<feColorMatrix type="matrix" values="0 0 0 0 0 0 0 0 0 0 0 0 0 0 0 0 0 0 0.2 0"/>
<feBlend mode="normal" in2="BackgroundImageFix" result="effect1_dropShadow_453_2558"/>
<feBlend mode="normal" in="SourceGraphic" in2="effect1_dropShadow_453_2558" result="shape"/>
<feColorMatrix in="SourceAlpha" type="matrix" values="0 0 0 0 0 0 0 0 0 0 0 0 0 0 0 0 0 0 127 0" result="hardAlpha"/>
<feOffset dy="-1.6"/>
<feComposite in2="hardAlpha" operator="arithmetic" k2="-1" k3="1"/>
<feColorMatrix type="matrix" values="0 0 0 0 0.701961 0 0 0 0 0.639216 0 0 0 0 0.996078 0 0 0 0.5 0"/>
<feBlend mode="normal" in2="shape" result="effect2_innerShadow_453_2558"/>
</filter>
<linearGradient id="paint0_linear_453_2558" x1="54.4" y1="52.8" x2="9.6" y2="11.2" gradientUnits="userSpaceOnUse">
<stop stop-color="white"/>
<stop offset="1" stop-color="#E3E3E3"/>
</linearGradient>
<linearGradient id="paint1_linear_453_2558" x1="12.8" y1="6.4" x2="56" y2="54.4" gradientUnits="userSpaceOnUse">
<stop stop-color="white"/>
<stop offset="1" stop-color="#E8E8E8"/>
</linearGradient>
<linearGradient id="paint2_linear_453_2558" x1="41.5997" y1="44.8003" x2="46.0838" y2="12.5938" gradientUnits="userSpaceOnUse">
<stop stop-color="#C0B3FF"/>
<stop offset="1" stop-color="#6949FF"/>
</linearGradient>
</defs>
</svg>
