<svg width="16" height="17" viewBox="0 0 16 17" fill="none" xmlns="http://www.w3.org/2000/svg">
<g filter="url(#filter0_di_374_1888)">
<path d="M11.5 7.63398C12.1667 8.01888 12.1667 8.98113 11.5 9.36603L5.5 12.8301C4.83333 13.215 4 12.7339 4 11.9641L4 5.0359C4 4.2661 4.83333 3.78497 5.5 4.16987L11.5 7.63398Z" fill="#D9D9D9"/>
<path d="M11.5 7.63398C12.1667 8.01888 12.1667 8.98113 11.5 9.36603L5.5 12.8301C4.83333 13.215 4 12.7339 4 11.9641L4 5.0359C4 4.2661 4.83333 3.78497 5.5 4.16987L11.5 7.63398Z" fill="url(#paint0_linear_374_1888)"/>
</g>
<defs>
<filter id="filter0_di_374_1888" x="0" y="0.0344238" width="16" height="16.9312" filterUnits="userSpaceOnUse" color-interpolation-filters="sRGB">
<feFlood flood-opacity="0" result="BackgroundImageFix"/>
<feColorMatrix in="SourceAlpha" type="matrix" values="0 0 0 0 0 0 0 0 0 0 0 0 0 0 0 0 0 0 127 0" result="hardAlpha"/>
<feOffset/>
<feGaussianBlur stdDeviation="2"/>
<feComposite in2="hardAlpha" operator="out"/>
<feColorMatrix type="matrix" values="0 0 0 0 0 0 0 0 0 0 0 0 0 0 0 0 0 0 0.2 0"/>
<feBlend mode="normal" in2="BackgroundImageFix" result="effect1_dropShadow_374_1888"/>
<feBlend mode="normal" in="SourceGraphic" in2="effect1_dropShadow_374_1888" result="shape"/>
<feColorMatrix in="SourceAlpha" type="matrix" values="0 0 0 0 0 0 0 0 0 0 0 0 0 0 0 0 0 0 127 0" result="hardAlpha"/>
<feOffset dy="-0.5"/>
<feComposite in2="hardAlpha" operator="arithmetic" k2="-1" k3="1"/>
<feColorMatrix type="matrix" values="0 0 0 0 0.701961 0 0 0 0 0.639216 0 0 0 0 0.996078 0 0 0 0.5 0"/>
<feBlend mode="normal" in2="shape" result="effect2_innerShadow_374_1888"/>
</filter>
<linearGradient id="paint0_linear_374_1888" x1="10" y1="12.5" x2="11.4013" y2="2.43547" gradientUnits="userSpaceOnUse">
<stop stop-color="#C0B3FF"/>
<stop offset="1" stop-color="#6949FF"/>
</linearGradient>
</defs>
</svg>
