<svg width="14" height="14" viewBox="0 0 14 14" fill="none" xmlns="http://www.w3.org/2000/svg">
<path d="M8.33325 5.66669L12.6666 1.33336M12.934 4.33333L12.9965 1.68232C13.0041 1.36133 13.0079 1.20083 12.9094 1.10041C12.8109 1 12.6498 1 12.3275 1H9.6666" stroke="#C9C9C9" stroke-width="1.5" stroke-linecap="round" stroke-linejoin="round"/>
<path d="M5.66664 5.66672L1.33331 1.33338M4.33333 1H1.66667C1.3524 1 1.19526 1 1.09763 1.09763C1 1.19526 1 1.3524 1 1.66667V4.33333" stroke="#C9C9C9" stroke-width="1.5" stroke-linecap="round" stroke-linejoin="round"/>
<path d="M5.66665 8.3335L1.33332 12.6668M1 9.6668V12.3335C1 12.6477 1 12.8049 1.09763 12.9025C1.19526 13.0001 1.3524 13.0001 1.66667 13.0001H4.33333" stroke="#C9C9C9" stroke-width="1.5" stroke-linecap="round" stroke-linejoin="round"/>
<path d="M8.33325 8.3335L12.6666 12.6668M9.66661 13.0001H12.3333C12.6476 13.0001 12.8047 13.0001 12.9023 12.9025C12.9999 12.8049 12.9999 12.6477 12.9999 12.3334V9.66678" stroke="#C9C9C9" stroke-width="1.5" stroke-linecap="round" stroke-linejoin="round"/>
</svg>
