<svg width="17" height="16" viewBox="0 0 17 16" fill="none" xmlns="http://www.w3.org/2000/svg">
<path d="M16 9.66667V11.5C16 12.9001 16 13.6002 15.7275 14.135C15.4878 14.6054 15.1054 14.9878 14.635 15.2275C14.1002 15.5 13.4001 15.5 12 15.5H10.1667M6.83333 0.5H5C3.59987 0.5 2.8998 0.5 2.36502 0.772484C1.89462 1.01217 1.51217 1.39462 1.27248 1.86502C1 2.3998 1 3.09987 1 4.5V6.33333M11 5.5L16 0.5M16 0.5H11M16 0.5V5.5M6 10.5L1 15.5M1 15.5H6M1 15.5L1 10.5" stroke="white" stroke-linecap="round" stroke-linejoin="round"/>
</svg>
