<svg width="16" height="16" viewBox="0 0 16 16" fill="none" xmlns="http://www.w3.org/2000/svg">
<path d="M8.58709 4.67775L11.769 5.52554M7.90501 7.20895L9.49598 7.63284M7.98415 11.9777L8.62054 12.1472C10.4205 12.6268 11.3205 12.8666 12.0295 12.4595C12.7385 12.0525 12.9797 11.1576 13.462 9.36777L14.1441 6.83657C14.6264 5.04674 14.8675 4.15183 14.4582 3.44681C14.0488 2.7418 13.1488 2.50201 11.3489 2.02242L10.7125 1.85287C8.91249 1.37328 8.0125 1.13349 7.30349 1.54053C6.59447 1.94757 6.35332 2.84249 5.87102 4.63231L5.18894 7.16351C4.70664 8.95334 4.46549 9.84825 4.87484 10.5533C5.28419 11.2583 6.18418 11.4981 7.98415 11.9777Z" stroke="#C9C9C9" stroke-width="1.5" stroke-linecap="round"/>
<path d="M7.99992 13.9642L7.36502 14.137C5.56927 14.626 4.6714 14.8705 3.96405 14.4555C3.2567 14.0405 3.01611 13.128 2.53494 11.3031L1.85446 8.72223C1.37329 6.8973 1.13271 5.98483 1.5411 5.26599C1.89436 4.64417 2.66659 4.6668 3.66659 4.66673" stroke="#C9C9C9" stroke-width="1.5" stroke-linecap="round"/>
</svg>
