<svg width="16" height="16" viewBox="0 0 16 16" fill="none" xmlns="http://www.w3.org/2000/svg">
<path d="M7.75 13.5C10.9256 13.5 13.5 10.9256 13.5 7.75C13.5 4.57436 10.9256 2 7.75 2C4.57436 2 2 4.57436 2 7.75C2 10.9256 4.57436 13.5 7.75 13.5Z" stroke="#686567" stroke-width="1.5" stroke-linecap="round" stroke-linejoin="round"/>
<path d="M7.75 13.5C10.9256 13.5 13.5 10.9256 13.5 7.75C13.5 4.57436 10.9256 2 7.75 2C4.57436 2 2 4.57436 2 7.75C2 10.9256 4.57436 13.5 7.75 13.5Z" stroke="black" stroke-opacity="0.2" stroke-width="1.5" stroke-linecap="round" stroke-linejoin="round"/>
<path d="M14 14L13 13" stroke="#686567" stroke-width="1.5" stroke-linecap="round" stroke-linejoin="round"/>
<path d="M14 14L13 13" stroke="black" stroke-opacity="0.2" stroke-width="1.5" stroke-linecap="round" stroke-linejoin="round"/>
</svg>
