<svg width="16" height="14" viewBox="0 0 16 14" fill="none" xmlns="http://www.w3.org/2000/svg">
<path d="M7.00028 6.99986H3.33362M3.27718 7.19419L1.72057 11.844C1.59828 12.2093 1.53713 12.3919 1.58101 12.5044C1.61912 12.6021 1.70096 12.6761 1.80195 12.7043C1.91824 12.7368 2.09388 12.6577 2.44517 12.4997L13.5862 7.48622C13.929 7.33192 14.1005 7.25477 14.1535 7.1476C14.1995 7.05449 14.1995 6.94524 14.1535 6.85212C14.1005 6.74495 13.929 6.6678 13.5862 6.5135L2.44129 1.49834C2.09106 1.34074 1.91595 1.26194 1.79977 1.29426C1.69888 1.32234 1.61704 1.39619 1.57881 1.49369C1.53478 1.60595 1.59527 1.7882 1.71625 2.15271L3.27761 6.85688C3.29839 6.91948 3.30878 6.95079 3.31288 6.9828C3.31652 7.01121 3.31649 7.03997 3.31277 7.06837C3.30859 7.10037 3.29812 7.13164 3.27718 7.19419Z" stroke="white" stroke-width="2" stroke-linecap="round" stroke-linejoin="round"/>
</svg>
