<svg width="12" height="12" viewBox="0 0 12 12" fill="none" xmlns="http://www.w3.org/2000/svg">
<g clip-path="url(#clip0_413_1339)">
<path d="M7.5 1L7.76936 2.19579C7.99784 3.21007 8.78992 4.00215 9.80421 4.23063L11 4.5L9.80421 4.76937C8.78992 4.99785 7.99785 5.78992 7.76937 6.80421L7.5 8L7.23063 6.80421C7.00215 5.78992 6.21008 4.99785 5.19579 4.76937L4 4.5L5.19579 4.23064C6.21007 4.00216 7.00215 3.21008 7.23063 2.19579L7.5 1Z" stroke="white" stroke-linejoin="round"/>
<path d="M3.5 6L3.6924 6.85413C3.8556 7.57862 4.42137 8.1444 5.14587 8.3076L6 8.5L5.14586 8.6924C4.42137 8.8556 3.8556 9.42137 3.6924 10.1459L3.5 11L3.3076 10.1459C3.1444 9.42137 2.57863 8.8556 1.85413 8.6924L1 8.5L1.85413 8.3076C2.57862 8.1444 3.1444 7.57863 3.3076 6.85413L3.5 6Z" stroke="white" stroke-linejoin="round"/>
</g>
<defs>
<clipPath id="clip0_413_1339">
<rect width="12" height="12" fill="white"/>
</clipPath>
</defs>
</svg>
