<svg width="13" height="12" viewBox="0 0 13 12" fill="none" xmlns="http://www.w3.org/2000/svg">
<path d="M8 1L8.26936 2.19579C8.49784 3.21007 9.28992 4.00215 10.3042 4.23063L11.5 4.5L10.3042 4.76937C9.28992 4.99785 8.49785 5.78992 8.26937 6.80421L8 8L7.73063 6.80421C7.50215 5.78992 6.71008 4.99785 5.69579 4.76937L4.5 4.5L5.69579 4.23064C6.71007 4.00216 7.50215 3.21008 7.73063 2.19579L8 1Z" stroke="white" stroke-linejoin="round"/>
<path d="M4 6L4.1924 6.85413C4.3556 7.57862 4.92137 8.1444 5.64587 8.3076L6.5 8.5L5.64586 8.6924C4.92137 8.8556 4.3556 9.42137 4.1924 10.1459L4 11L3.8076 10.1459C3.6444 9.42137 3.07863 8.8556 2.35413 8.6924L1.5 8.5L2.35413 8.3076C3.07862 8.1444 3.6444 7.57863 3.8076 6.85413L4 6Z" stroke="white" stroke-linejoin="round"/>
</svg>
