<svg width="19" height="19" viewBox="0 0 19 19" fill="none" xmlns="http://www.w3.org/2000/svg">
<path d="M12.0109 1.39062L12.4466 3.32499C12.8162 4.96574 14.0975 6.24705 15.7383 6.61665L17.6726 7.05239L15.7383 7.48813C14.0975 7.85773 12.8162 9.13903 12.4466 10.7798L12.0109 12.7142L11.5751 10.7798C11.2055 9.13903 9.92424 7.85773 8.28348 7.48813L6.34912 7.05239L8.28348 6.61665C9.92424 6.24705 11.2055 4.96575 11.5751 3.32499L12.0109 1.39062Z" stroke="white" stroke-width="1.21324" stroke-linejoin="round"/>
<path d="M12.0109 1.39062L12.4466 3.32499C12.8162 4.96574 14.0975 6.24705 15.7383 6.61665L17.6726 7.05239L15.7383 7.48813C14.0975 7.85773 12.8162 9.13903 12.4466 10.7798L12.0109 12.7142L11.5751 10.7798C11.2055 9.13903 9.92424 7.85773 8.28348 7.48813L6.34912 7.05239L8.28348 6.61665C9.92424 6.24705 11.2055 4.96575 11.5751 3.32499L12.0109 1.39062Z" stroke="url(#paint0_linear_2009_961)" stroke-width="1.21324" stroke-linejoin="round"/>
<path d="M5.54021 9.47949L5.85145 10.8612C6.11545 12.0331 7.03067 12.9484 8.20264 13.2124L9.58433 13.5236L8.20264 13.8349C7.03067 14.0989 6.11545 15.0141 5.85145 16.186L5.54021 17.5677L5.22897 16.186C4.96497 15.0141 4.04975 14.0988 2.87778 13.8349L1.49609 13.5236L2.87778 13.2124C4.04975 12.9484 4.96497 12.0332 5.22897 10.8612L5.54021 9.47949Z" stroke="white" stroke-width="1.21324" stroke-linejoin="round"/>
<path d="M5.54021 9.47949L5.85145 10.8612C6.11545 12.0331 7.03067 12.9484 8.20264 13.2124L9.58433 13.5236L8.20264 13.8349C7.03067 14.0989 6.11545 15.0141 5.85145 16.186L5.54021 17.5677L5.22897 16.186C4.96497 15.0141 4.04975 14.0988 2.87778 13.8349L1.49609 13.5236L2.87778 13.2124C4.04975 12.9484 4.96497 12.0332 5.22897 10.8612L5.54021 9.47949Z" stroke="url(#paint1_linear_2009_961)" stroke-width="1.21324" stroke-linejoin="round"/>
<defs>
<linearGradient id="paint0_linear_2009_961" x1="7.73949" y1="24.8633" x2="6.59292" y2="24.5562" gradientUnits="userSpaceOnUse">
<stop stop-color="#C0B3FF"/>
<stop offset="0.980641" stop-color="#6949FF"/>
</linearGradient>
<linearGradient id="paint1_linear_2009_961" x1="2.48921" y1="26.2457" x2="1.67023" y2="26.0263" gradientUnits="userSpaceOnUse">
<stop stop-color="#C0B3FF"/>
<stop offset="0.980641" stop-color="#6949FF"/>
</linearGradient>
</defs>
</svg>
