<svg width="12" height="11" viewBox="0 0 12 11" fill="none" xmlns="http://www.w3.org/2000/svg">
<path d="M8.75 8.25L10.75 10.25" stroke="white" stroke-linecap="round" stroke-linejoin="round"/>
<path d="M2.98592 1.39641L4.65893 1.9603C4.89024 2.04037 5.24125 1.98801 5.44001 1.84641L6.61364 1.00942C7.36451 0.474498 7.98601 0.793532 7.98666 1.72081L7.99311 3.29056C7.99421 3.5564 8.17909 3.8863 8.40433 4.02964L9.60348 4.78146C10.552 5.37718 10.4442 6.08247 9.36316 6.35652L7.85858 6.73643C7.58674 6.80494 7.30628 7.08545 7.23464 7.36049L6.8548 8.86535C6.58395 9.94342 5.87245 10.0513 5.28003 9.10572L4.52835 7.90635C4.38503 7.68106 4.0552 7.49615 3.7894 7.49505L2.21995 7.48859C1.29599 7.48479 0.973864 6.86633 1.50868 6.11532L2.34553 4.94147C2.48394 4.74583 2.53629 4.39476 2.45623 4.1634L1.89246 2.49008C1.58812 1.58054 2.07971 1.08886 2.98592 1.39641Z" stroke="white" stroke-linecap="round" stroke-linejoin="round"/>
</svg>
