<svg width="40" height="38" viewBox="0 0 40 38" fill="none" xmlns="http://www.w3.org/2000/svg">
<path d="M25.8525 3.82206L12.547 10.209C11.523 10.7006 10.4289 10.8237 9.31349 10.5739C8.58354 10.4103 8.21852 10.3286 7.92461 10.295C4.27486 9.87823 2 12.7668 2 16.0885V17.9115C2 21.2332 4.27486 24.1218 7.92461 23.705C8.21851 23.6714 8.58356 23.5896 9.31349 23.4261C10.4289 23.1763 11.523 23.2994 12.547 23.791L25.8525 30.1779C28.9069 31.6441 30.4341 32.3772 32.1368 31.8058C33.8395 31.2344 34.4239 30.0083 35.5927 27.5561C38.8024 20.8223 38.8024 13.1777 35.5927 6.44393C34.4239 3.99172 33.8395 2.76561 32.1368 2.1942C30.4341 1.62279 28.9069 2.35588 25.8525 3.82206Z" stroke="white" stroke-width="2.5" stroke-linecap="round" stroke-linejoin="round"/>
<path d="M22 29V30C22 32.5682 22 33.8522 21.552 34.5772C20.9546 35.5438 19.8623 36.0899 18.7306 35.9879C17.8818 35.9113 16.8545 35.1409 14.8 33.6L12.4 31.8C10.4451 30.3338 10 29.4437 10 27V24" stroke="white" stroke-width="2.5" stroke-linecap="round" stroke-linejoin="round"/>
<path d="M11 23V11" stroke="white" stroke-width="2.5" stroke-linecap="round" stroke-linejoin="round"/>
</svg>
