<svg width="44" height="40" viewBox="0 0 44 40" fill="none" xmlns="http://www.w3.org/2000/svg">
<path d="M22 28V38M34 38L26.0972 31.4143C24.6396 30.1997 23.9108 29.5924 23.0973 29.3603C22.3801 29.1557 21.6199 29.1557 20.9027 29.3603C20.0892 29.5924 19.3604 30.1997 17.9028 31.4143L10 38M14 18V20M22 14V20M30 10V20M42 2H2M4 2H40V18.4C40 21.7603 40 23.4405 39.346 24.7239C38.7708 25.8529 37.8529 26.7708 36.7239 27.346C35.4405 28 33.7603 28 30.4 28H13.6C10.2397 28 8.55953 28 7.27606 27.346C6.14708 26.7708 5.2292 25.8529 4.65396 24.7239C4 23.4405 4 21.7603 4 18.4V2Z" stroke="white" stroke-width="2.5" stroke-linecap="round" stroke-linejoin="round"/>
</svg>
