<svg width="39" height="40" viewBox="0 0 39 40" fill="none" xmlns="http://www.w3.org/2000/svg">
<path d="M22.0703 34.7294L7.14486 37.5011C4.28207 38.0328 2.85067 38.2986 2.02605 37.4739C1.20144 36.6493 1.46724 35.2178 1.99885 32.3549L4.77046 17.4287C5.21489 15.0352 5.43711 13.8385 6.22604 13.1154C7.01497 12.3923 8.45779 12.2512 11.3434 11.969C14.1245 11.6969 16.7566 10.7435 19.5 8L31.5 20.0011C28.7566 22.7446 27.8026 25.3749 27.5302 28.1561C27.2475 31.0421 27.1062 32.4851 26.3832 33.2739C25.6601 34.0627 24.4635 34.2849 22.0703 34.7294Z" stroke="white" stroke-width="2.5" stroke-linejoin="round"/>
<path d="M17.5 26.4211C16.3811 26.2394 15.3579 25.7526 14.5526 24.9474M14.5526 24.9474C13.7474 24.1421 13.2606 23.1189 13.0789 22M14.5526 24.9474L3.5 36" stroke="white" stroke-width="2.5" stroke-linecap="round"/>
<path d="M19.5 8C20.9246 5.89819 22.8542 2.36241 25.713 2.02196C27.6645 1.78957 29.2811 3.40623 32.5144 6.63955L32.8604 6.98555C36.0938 10.2189 37.7104 11.8355 37.478 13.787C37.1376 16.6458 33.6018 18.5754 31.5 20" stroke="white" stroke-width="2.5" stroke-linejoin="round"/>
</svg>
