<svg width="22" height="20" viewBox="0 0 22 20" fill="none" xmlns="http://www.w3.org/2000/svg">
<path d="M17.5 15V5C17.5 3.11438 17.5 2.17157 16.9142 1.58579C16.3284 1 15.3856 1 13.5 1H8.5C6.61438 1 5.67157 1 5.08579 1.58579C4.5 2.17157 4.5 3.11438 4.5 5V15C4.5 16.8856 4.5 17.8284 5.08579 18.4142C5.67157 19 6.61438 19 8.5 19H13.5C15.3856 19 16.3284 19 16.9142 18.4142C17.5 17.8284 17.5 16.8856 17.5 15Z" stroke="white" stroke-width="1.5"/>
<path d="M17.5 4H18C19.4142 4 20.1213 4 20.5607 4.43934C21 4.87868 21 5.58579 21 7V14C21 15.4142 21 16.1213 20.5607 16.5607C20.1213 17 19.4142 17 18 17H17.5" stroke="white" stroke-width="1.5" stroke-linecap="round"/>
<path d="M4.5 4H4C2.58579 4 1.87868 4 1.43934 4.43934C1 4.87868 1 5.58579 1 7V14C1 15.4142 1 16.1213 1.43934 16.5607C1.87868 17 2.58579 17 4 17H4.5" stroke="white" stroke-width="1.5" stroke-linecap="round"/>
<path d="M13.5 6L8.5 6M13.5 10L8.5 10M13.5 14H8.5" stroke="white" stroke-width="1.5" stroke-linecap="round"/>
</svg>
