<svg width="18" height="18" viewBox="0 0 18 18" fill="none" xmlns="http://www.w3.org/2000/svg">
<path d="M6.55138 3.02194L1.69926 7.26778C1.28317 7.63188 1.56215 8.27857 2.13532 8.27857C2.48549 8.27857 2.76936 8.54077 2.76936 8.86421V11.5671C2.76936 13.8925 2.76936 15.0552 3.55147 15.7776C4.33357 16.5 5.59235 16.5 8.10991 16.5H9.89009C12.4076 16.5 13.6664 16.5 14.4485 15.7776C15.2306 15.0552 15.2306 13.8925 15.2306 11.5671V8.86421C15.2306 8.54077 15.5145 8.27857 15.8647 8.27857C16.4379 8.27857 16.7168 7.63188 16.3007 7.26778L11.4486 3.02194C10.2891 2.00731 9.70935 1.5 9 1.5C8.29065 1.5 7.71089 2.00731 6.55138 3.02194Z" stroke="#686567" stroke-width="1.5" stroke-linecap="round" stroke-linejoin="round"/>
<path d="M9 12.3334H9.00749" stroke="#686567" stroke-width="2" stroke-linecap="round" stroke-linejoin="round"/>
</svg>
