<svg width="16" height="20" viewBox="0 0 16 20" fill="none" xmlns="http://www.w3.org/2000/svg">
<path d="M2.28575 11.6665C1.68116 10.6733 1.33337 9.50963 1.33337 8.26555C1.33337 4.621 4.31814 1.6665 8.00004 1.6665C11.6819 1.6665 14.6667 4.621 14.6667 8.26555C14.6667 9.50963 14.3189 10.6733 13.7143 11.6665" stroke="#686567" stroke-width="1.5" stroke-linecap="round"/>
<path d="M4.15248 14.2482C4.07592 14.0177 4.03764 13.9024 4.0421 13.8091C4.05153 13.6116 4.17603 13.4382 4.35972 13.3668C4.44657 13.333 4.56762 13.333 4.80972 13.333H11.1904C11.4325 13.333 11.5536 13.333 11.6404 13.3668C11.8241 13.4382 11.9486 13.6116 11.9581 13.8091C11.9625 13.9024 11.9242 14.0177 11.8477 14.2482C11.7062 14.6742 11.6355 14.8872 11.5263 15.0597C11.2977 15.421 10.9394 15.6803 10.5255 15.7837C10.328 15.833 10.1043 15.833 9.65686 15.833H6.3433C5.89588 15.833 5.67216 15.833 5.47462 15.7837C5.06077 15.6803 4.70243 15.421 4.47383 15.0597C4.36471 14.8872 4.29396 14.6742 4.15248 14.2482Z" stroke="#686567" stroke-width="1.5"/>
<path d="M10.5 15.833L10.3922 16.3718C10.2744 16.9611 10.2155 17.2557 10.0834 17.4885C9.8793 17.8485 9.54854 18.1196 9.15551 18.2492C8.90132 18.333 8.60088 18.333 8 18.333C7.39912 18.333 7.09868 18.333 6.84449 18.2492C6.45146 18.1196 6.1207 17.8485 5.91656 17.4885C5.78453 17.2557 5.72561 16.9611 5.60777 16.3718L5.5 15.833" stroke="#686567" stroke-width="1.5"/>
<path d="M8 13.3332V9.1665" stroke="#686567" stroke-width="1.5" stroke-linecap="round" stroke-linejoin="round"/>
</svg>
