<svg width="18" height="16" viewBox="0 0 18 16" fill="none" xmlns="http://www.w3.org/2000/svg">
<path d="M11.4385 1.6757L5.8946 4.33694C5.46792 4.54175 5.01203 4.59306 4.54729 4.48895C4.24314 4.42081 4.09105 4.38674 3.96859 4.37276C2.44786 4.1991 1.5 5.40269 1.5 6.78673V7.54628C1.5 8.93032 2.44786 10.1339 3.96859 9.96025C4.09105 9.94626 4.24315 9.91219 4.54729 9.84406C5.01203 9.73996 5.46793 9.79125 5.8946 9.99607L11.4385 12.6573C12.7112 13.2682 13.3475 13.5737 14.057 13.3356C14.7664 13.0975 15.01 12.5866 15.497 11.5649C16.8343 8.75913 16.8343 5.57388 15.497 2.76814C15.01 1.74639 14.7664 1.23551 14.057 0.997422C13.3475 0.759334 12.7112 1.06479 11.4385 1.6757Z" stroke="#686567" stroke-width="1.5" stroke-linecap="round" stroke-linejoin="round"/>
<path d="M9.83337 12.1663V12.583C9.83337 13.6531 9.83337 14.1881 9.64669 14.4902C9.39777 14.8929 8.94267 15.1205 8.47112 15.078C8.11745 15.0461 7.68943 14.725 6.83337 14.083L5.83337 13.333C5.01882 12.7221 4.83337 12.3512 4.83337 11.333V10.083" stroke="#686567" stroke-width="1.5" stroke-linecap="round" stroke-linejoin="round"/>
<path d="M5.25 9.6665V4.6665" stroke="#686567" stroke-width="1.5" stroke-linecap="round" stroke-linejoin="round"/>
</svg>
