<svg width="18" height="18" viewBox="0 0 18 18" fill="none" xmlns="http://www.w3.org/2000/svg">
<path d="M1.0835 5.25H16.9168" stroke="#686567" stroke-width="1.5" stroke-linejoin="round"/>
<path d="M13.1667 1.0835L10.6667 5.25016" stroke="#686567" stroke-width="1.5" stroke-linejoin="round"/>
<path d="M7.3335 1.0835L4.8335 5.25016" stroke="#686567" stroke-width="1.5" stroke-linejoin="round"/>
<path d="M1.08337 9.00016C1.08337 5.26821 1.08337 3.40223 2.24274 2.24287C3.40211 1.0835 5.26809 1.0835 9.00004 1.0835C12.732 1.0835 14.598 1.0835 15.7573 2.24287C16.9167 3.40223 16.9167 5.26821 16.9167 9.00016C16.9167 12.7321 16.9167 14.5981 15.7573 15.7575C14.598 16.9168 12.732 16.9168 9.00004 16.9168C5.26809 16.9168 3.40211 16.9168 2.24274 15.7575C1.08337 14.5981 1.08337 12.7321 1.08337 9.00016Z" stroke="#686567" stroke-width="1.5"/>
<path d="M11.4609 11.4126C11.3347 11.9349 10.7381 12.304 9.54491 13.0421C8.39145 13.7557 7.81471 14.1125 7.34994 13.9691C7.15779 13.9098 6.98271 13.7972 6.84152 13.642C6.5 13.2668 6.5 12.5391 6.5 11.0837C6.5 9.6282 6.5 8.90047 6.84152 8.52528C6.98271 8.37017 7.15779 8.25756 7.34994 8.19827C7.81471 8.05486 8.39145 8.41163 9.54491 9.12519C10.7381 9.86331 11.3347 10.2324 11.4609 10.7547C11.513 10.9703 11.513 11.1971 11.4609 11.4126Z" stroke="#686567" stroke-width="1.5" stroke-linejoin="round"/>
</svg>
