<svg width="16" height="20" viewBox="0 0 16 20" fill="none" xmlns="http://www.w3.org/2000/svg">
<path d="M12.1667 5.83317V9.1665C12.1667 11.4677 10.3012 13.3332 8.00004 13.3332C5.69885 13.3332 3.83337 11.4677 3.83337 9.1665V5.83317C3.83337 3.53198 5.69885 1.6665 8.00004 1.6665C10.3012 1.6665 12.1667 3.53198 12.1667 5.83317Z" stroke="#686567" stroke-width="1.5"/>
<path d="M15 7H12M15 11H12" stroke="#686567" stroke-width="1.5" stroke-linecap="round"/>
<path d="M14.6667 9.1665C14.6667 12.8484 11.6819 15.8332 8.00004 15.8332M8.00004 15.8332C4.31814 15.8332 1.33337 12.8484 1.33337 9.1665M8.00004 15.8332V18.3332M8.00004 18.3332H10.5M8.00004 18.3332H5.50004" stroke="#686567" stroke-width="1.5" stroke-linecap="round"/>
</svg>
