<svg width="16" height="20" viewBox="0 0 16 20" fill="none" xmlns="http://www.w3.org/2000/svg">
<path d="M11.3333 14.1665L5.49992 14.1665" stroke="#686567" stroke-width="1.5" stroke-linecap="round" stroke-linejoin="round"/>
<path d="M11.3333 10.833L8.83325 10.833" stroke="#686567" stroke-width="1.5" stroke-linecap="round" stroke-linejoin="round"/>
<path d="M15.0833 11.6663C15.0833 14.809 15.0833 16.3804 14.0459 17.3567C13.0086 18.333 11.339 18.333 7.99992 18.333H7.35598C4.63831 18.333 3.27947 18.333 2.33581 17.6681C2.06543 17.4777 1.8254 17.2517 1.623 16.9973C0.916585 16.1091 0.916585 14.8302 0.916585 12.2724V10.1512C0.916585 7.68188 0.916585 6.44723 1.30737 5.46113C1.9356 3.87586 3.2642 2.62541 4.94855 2.03413C5.99627 1.66634 7.3081 1.66634 9.93174 1.66634C11.431 1.66634 12.1806 1.66634 12.7793 1.87651C13.7418 2.21438 14.501 2.92892 14.8599 3.83479C15.0833 4.39827 15.0833 5.10379 15.0833 6.51483V11.6663Z" stroke="#686567" stroke-width="1.5" stroke-linejoin="round"/>
<path d="M0.916667 10C0.916667 8.46588 2.16032 7.22222 3.69444 7.22222C4.24926 7.22222 4.90336 7.31944 5.4428 7.1749C5.9221 7.04647 6.29647 6.6721 6.4249 6.1928C6.56944 5.65336 6.47222 4.99926 6.47222 4.44444C6.47222 2.91032 7.71588 1.66667 9.25 1.66667" stroke="#686567" stroke-width="1.5" stroke-linecap="round" stroke-linejoin="round"/>
</svg>
