<svg width="20" height="20" viewBox="0 0 20 20" fill="none" xmlns="http://www.w3.org/2000/svg">
<path d="M10.734 5.84697L14.7114 6.90671M9.88139 9.01097L11.8701 9.54084M9.98031 14.9719L10.7758 15.1838C13.0258 15.7833 14.1508 16.083 15.037 15.5742C15.9233 15.0654 16.2247 13.9468 16.8276 11.7095L17.6802 8.5455C18.2831 6.30821 18.5845 5.18957 18.0728 4.3083C17.5611 3.42703 16.4362 3.1273 14.1862 2.52782L13.3907 2.31587C11.1407 1.71639 10.0157 1.41665 9.12948 1.92545C8.24322 2.43425 7.94178 3.5529 7.3389 5.79018L6.4863 8.95418C5.88342 11.1915 5.58198 12.3101 6.09367 13.1914C6.60536 14.0726 7.73034 14.3724 9.98031 14.9719Z" stroke="#686567" stroke-width="1.5" stroke-linecap="round"/>
<path d="M9.99996 17.4549L9.20634 17.671C6.96165 18.2823 5.83931 18.5879 4.95512 18.0691C4.07093 17.5503 3.7702 16.4097 3.16874 14.1286L2.31814 10.9025C1.71668 8.62135 1.41595 7.48076 1.92643 6.58221C2.36802 5.80493 3.33329 5.83323 4.58329 5.83314" stroke="#686567" stroke-width="1.5" stroke-linecap="round"/>
</svg>
