<svg width="18" height="18" viewBox="0 0 18 18" fill="none" xmlns="http://www.w3.org/2000/svg">
<path d="M1.08337 9.00016C1.08337 5.26821 1.08337 3.40223 2.24274 2.24287C3.40211 1.0835 5.26809 1.0835 9.00004 1.0835C12.732 1.0835 14.598 1.0835 15.7573 2.24287C16.9167 3.40223 16.9167 5.26821 16.9167 9.00016C16.9167 12.7321 16.9167 14.5981 15.7573 15.7575C14.598 16.9168 12.732 16.9168 9.00004 16.9168C5.26809 16.9168 3.40211 16.9168 2.24274 15.7575C1.08337 14.5981 1.08337 12.7321 1.08337 9.00016Z" stroke="#686567" stroke-width="1.5"/>
<circle cx="12.75" cy="5.25" r="1.25" stroke="#686567" stroke-width="1.5"/>
<path d="M12.3333 17.3337C11.8171 15.4794 10.6121 13.8188 8.89712 12.6121C7.04801 11.3111 4.72636 10.6225 2.34641 10.6692C2.06382 10.6686 1.78146 10.6776 1.5 10.6962" stroke="#686567" stroke-width="1.5" stroke-linejoin="round"/>
<path d="M9.83337 14.0002C11.2513 12.8946 12.7788 12.3275 14.3219 12.3335C15.1969 12.3326 16.0677 12.5182 16.9167 12.8849" stroke="#686567" stroke-width="1.5" stroke-linejoin="round"/>
</svg>
