<svg width="20" height="18" viewBox="0 0 20 18" fill="none" xmlns="http://www.w3.org/2000/svg">
<path d="M5.83329 4.41671H13.9583C15.7139 4.41671 16.5917 4.41671 17.2222 4.83803C17.4952 5.02043 17.7296 5.25481 17.912 5.52778C18.2982 6.10582 18.3304 6.71655 18.3331 8.16671M9.99996 4.41671L9.4721 3.36098C9.03478 2.48635 8.63515 1.60597 7.66601 1.24255C7.24154 1.08337 6.75664 1.08337 5.78685 1.08337C4.27313 1.08337 3.51626 1.08337 2.94835 1.4003C2.54351 1.62622 2.20948 1.96026 1.98356 2.36509C1.66663 2.93301 1.66663 3.68987 1.66663 5.2036V7.75004C1.66663 11.6784 1.66663 13.6426 2.88701 14.863C3.97046 15.9464 5.64013 16.068 8.74996 16.0816H9.16663" stroke="#686567" stroke-width="1.5" stroke-linecap="round"/>
<path d="M14.6296 16.9167H15.3703C16.7671 16.9167 17.4655 16.9167 17.8994 16.4774C18.3333 16.0381 18.3333 15.331 18.3333 13.9167V13.6594C18.3333 13.0463 18.3333 12.7397 18.2205 12.464C18.1078 12.1884 17.8937 11.9716 17.4655 11.5381L16.3739 10.4329C16.0269 10.0815 15.8534 9.90581 15.6538 9.7756C15.4293 9.62902 15.1804 9.52466 14.9192 9.46751C14.6872 9.41675 14.4418 9.41675 13.951 9.41675C13.2023 9.41675 12.828 9.41675 12.5364 9.55059C12.2092 9.70076 11.9471 9.96615 11.7988 10.2974C11.6666 10.5926 11.6666 10.9716 11.6666 11.7297V13.9167C11.6666 15.331 11.6666 16.0381 12.1005 16.4774C12.5345 16.9167 13.2328 16.9167 14.6296 16.9167Z" stroke="#686567" stroke-width="1.5" stroke-linejoin="round"/>
</svg>
