<svg width="18" height="18" viewBox="0 0 18 18" fill="none" xmlns="http://www.w3.org/2000/svg">
<path d="M10.071 15.1372L3.85203 16.2921C2.65919 16.5136 2.06278 16.6244 1.71919 16.2808C1.3756 15.9372 1.48635 15.3407 1.70786 14.1479L2.86269 7.92862C3.04787 6.93135 3.14046 6.43271 3.46918 6.13142C3.79791 5.83013 4.39908 5.77133 5.60142 5.65373C6.76023 5.54039 7.85691 5.14314 9 4L14 9.00045C12.8569 10.1436 12.4594 11.2395 12.3459 12.3984C12.2281 13.6009 12.1692 14.2021 11.868 14.5308C11.5667 14.8595 11.0681 14.9521 10.071 15.1372Z" stroke="#686567" stroke-width="1.5" stroke-linejoin="round"/>
<path d="M8.16671 11.6756C7.7005 11.5999 7.27417 11.3971 6.93864 11.0616M6.93864 11.0616C6.60311 10.726 6.40029 10.2997 6.3246 9.8335M6.93864 11.0616L2.33337 15.6668" stroke="#686567" stroke-width="1.5" stroke-linecap="round"/>
<path d="M9 4C9.59358 3.12425 10.3976 1.651 11.5888 1.50915C12.4019 1.41232 13.0755 2.08593 14.4227 3.43315L14.5669 3.57731C15.9141 4.92453 16.5877 5.59814 16.4908 6.41125C16.349 7.60242 14.8758 8.40642 14 9" stroke="#686567" stroke-width="1.5" stroke-linejoin="round"/>
</svg>
