<svg width="20" height="20" viewBox="0 0 20 20" fill="none" xmlns="http://www.w3.org/2000/svg">
<path d="M8.09463 6.64551C5.50457 6.64551 3.40491 8.52526 3.40491 10.844H8.09463V6.64551Z" stroke="#686567" stroke-width="1.5"/>
<path d="M2.11207 13.2715C3.14428 15.3065 5.43417 16.7217 8.09326 16.7217L8.09326 10.8438H4.0601C2.84024 10.8438 2.23032 10.8438 1.85947 11.4431C1.48862 12.0424 1.69644 12.4521 2.11207 13.2715Z" stroke="#686567" stroke-width="1.5"/>
<path d="M10.596 18.0636C14.0365 17.1091 16.5355 14.2377 16.5355 10.8438H8.09399V15.882C8.09399 17.11 8.09399 17.724 8.59452 18.102C9.09505 18.4801 9.59537 18.3413 10.596 18.0636Z" stroke="#686567" stroke-width="1.5"/>
<path d="M18.0347 8.36177C17.0451 5.17849 14.199 2.68757 10.6065 1.88282C9.56525 1.64957 9.04462 1.53294 8.56931 1.91112C8.09399 2.2893 8.09399 2.90157 8.09399 4.12613V10.8438H15.8789C17.1122 10.8438 17.7288 10.8438 18.1083 10.3318C18.4879 9.81986 18.3368 9.33383 18.0347 8.36177Z" stroke="#686567" stroke-width="1.5"/>
</svg>
