<svg width="18" height="18" viewBox="0 0 18 18" fill="none" xmlns="http://www.w3.org/2000/svg">
<path d="M1.08337 9.00016C1.08337 5.26821 1.08337 3.40223 2.24274 2.24287C3.40211 1.0835 5.26809 1.0835 9.00004 1.0835C12.732 1.0835 14.598 1.0835 15.7573 2.24287C16.9167 3.40223 16.9167 5.26821 16.9167 9.00016C16.9167 12.7321 16.9167 14.5981 15.7573 15.7575C14.598 16.9168 12.732 16.9168 9.00004 16.9168C5.26809 16.9168 3.40211 16.9168 2.24274 15.7575C1.08337 14.5981 1.08337 12.7321 1.08337 9.00016Z" stroke="#686567" stroke-width="1.5"/>
<path d="M1.08337 6.5H16.9167" stroke="#686567" stroke-width="1.5" stroke-linejoin="round"/>
<path d="M9.83337 9.8335L13.1667 9.8335" stroke="#686567" stroke-width="1.5" stroke-linecap="round" stroke-linejoin="round"/>
<path d="M9.83337 13.167H11.5" stroke="#686567" stroke-width="1.5" stroke-linecap="round" stroke-linejoin="round"/>
<path d="M4.83321 4H4.8407" stroke="#686567" stroke-width="2" stroke-linecap="round" stroke-linejoin="round"/>
<path d="M8.16659 4H8.17407" stroke="#686567" stroke-width="2" stroke-linecap="round" stroke-linejoin="round"/>
<path d="M6.5 6.5V16.9167" stroke="#686567" stroke-width="1.5" stroke-linecap="round" stroke-linejoin="round"/>
</svg>
