<svg width="35" height="19" viewBox="0 0 35 19" fill="none" xmlns="http://www.w3.org/2000/svg">
<g filter="url(#filter0_d_413_1053)">
<path d="M4.03871 14V4.54545H7.40874C8.14429 4.54545 8.75367 4.67933 9.23686 4.94709C9.72005 5.21484 10.0817 5.58108 10.3217 6.04581C10.5618 6.50746 10.6818 7.02758 10.6818 7.60618C10.6818 8.18785 10.5603 8.71106 10.3171 9.17578C10.0771 9.63743 9.7139 10.0037 9.22763 10.2745C8.74444 10.5423 8.1366 10.6761 7.40412 10.6761H5.08665V9.46662H7.27486C7.73958 9.46662 8.1166 9.3866 8.4059 9.22656C8.69519 9.06345 8.90755 8.84186 9.04297 8.56179C9.17839 8.28172 9.24609 7.96319 9.24609 7.60618C9.24609 7.24917 9.17839 6.93217 9.04297 6.65518C8.90755 6.3782 8.69366 6.16122 8.40128 6.00426C8.11198 5.8473 7.73035 5.76882 7.25639 5.76882H5.4652V14H4.03871ZM13.3637 4.54545V14H11.9833V4.54545H13.3637ZM17.0242 14.157C16.5749 14.157 16.1686 14.0739 15.8055 13.9077C15.4423 13.7384 15.1545 13.4937 14.9422 13.1737C14.7329 12.8536 14.6283 12.4612 14.6283 11.9964C14.6283 11.5964 14.7052 11.267 14.8591 11.0085C15.013 10.75 15.2207 10.5453 15.4823 10.3945C15.7439 10.2437 16.0363 10.1299 16.3594 10.0529C16.6826 9.97597 17.0119 9.9175 17.3474 9.87749C17.7721 9.82824 18.1168 9.78823 18.3815 9.75746C18.6461 9.7236 18.8385 9.66974 18.9585 9.59588C19.0785 9.52202 19.1386 9.40199 19.1386 9.2358V9.20348C19.1386 8.80031 19.0247 8.48793 18.7969 8.26633C18.5723 8.04474 18.2368 7.93395 17.7905 7.93395C17.3258 7.93395 16.9596 8.03705 16.6918 8.24325C16.4271 8.44638 16.244 8.67259 16.1425 8.92188L14.8452 8.62642C14.9991 8.19555 15.2238 7.84777 15.5192 7.5831C15.8178 7.31534 16.1609 7.12145 16.5487 7.00142C16.9365 6.87831 17.3443 6.81676 17.7721 6.81676C18.0552 6.81676 18.3553 6.85062 18.6723 6.91832C18.9924 6.98295 19.2909 7.10298 19.5679 7.27841C19.848 7.45383 20.0772 7.70466 20.2557 8.03089C20.4342 8.35405 20.5235 8.77415 20.5235 9.29119V14H19.1755V13.0305H19.1201C19.0308 13.209 18.897 13.3845 18.7185 13.5568C18.54 13.7292 18.3107 13.8723 18.0306 13.9862C17.7505 14.1 17.4151 14.157 17.0242 14.157ZM17.3243 13.049C17.7059 13.049 18.0321 12.9736 18.303 12.8228C18.5769 12.672 18.7846 12.475 18.9262 12.2319C19.0708 11.9857 19.1432 11.7225 19.1432 11.4425V10.5284C19.0939 10.5777 18.9985 10.6238 18.857 10.6669C18.7185 10.7069 18.56 10.7423 18.3815 10.7731C18.203 10.8008 18.0291 10.8269 17.8598 10.8516C17.6905 10.8731 17.549 10.8916 17.4351 10.907C17.1673 10.9408 16.9226 10.9978 16.7011 11.0778C16.4825 11.1578 16.3071 11.2732 16.1748 11.424C16.0455 11.5717 15.9809 11.7687 15.9809 12.0149C15.9809 12.3565 16.1071 12.6151 16.3594 12.7905C16.6118 12.9628 16.9334 13.049 17.3243 13.049ZM22.102 14V6.90909H23.4823V14H22.102ZM22.7991 5.81499C22.559 5.81499 22.3528 5.73497 22.1805 5.57493C22.0112 5.41181 21.9266 5.21792 21.9266 4.99325C21.9266 4.76551 22.0112 4.57161 22.1805 4.41158C22.3528 4.24846 22.559 4.1669 22.7991 4.1669C23.0392 4.1669 23.2438 4.24846 23.4131 4.41158C23.5854 4.57161 23.6716 4.76551 23.6716 4.99325C23.6716 5.21792 23.5854 5.41181 23.4131 5.57493C23.2438 5.73497 23.0392 5.81499 22.7991 5.81499ZM26.4596 9.78977V14H25.0793V6.90909H26.4042V8.06321H26.492C26.6551 7.68774 26.9105 7.38613 27.2583 7.15838C27.6091 6.93063 28.0508 6.81676 28.5832 6.81676C29.0664 6.81676 29.4896 6.91832 29.8528 7.12145C30.2159 7.3215 30.4975 7.62003 30.6976 8.01705C30.8976 8.41406 30.9976 8.90495 30.9976 9.4897V14H29.6173V9.65589C29.6173 9.14193 29.4834 8.74029 29.2157 8.45099C28.9479 8.15862 28.5801 8.01243 28.1123 8.01243C27.7923 8.01243 27.5076 8.08168 27.2583 8.22017C27.0121 8.35866 26.8167 8.56179 26.672 8.82955C26.5304 9.09422 26.4596 9.4143 26.4596 9.78977Z" fill="#C9C9C9"/>
</g>
<defs>
<filter id="filter0_d_413_1053" x="0.0388184" y="0.166992" width="34.9587" height="17.99" filterUnits="userSpaceOnUse" color-interpolation-filters="sRGB">
<feFlood flood-opacity="0" result="BackgroundImageFix"/>
<feColorMatrix in="SourceAlpha" type="matrix" values="0 0 0 0 0 0 0 0 0 0 0 0 0 0 0 0 0 0 127 0" result="hardAlpha"/>
<feOffset/>
<feGaussianBlur stdDeviation="2"/>
<feComposite in2="hardAlpha" operator="out"/>
<feColorMatrix type="matrix" values="0 0 0 0 0 0 0 0 0 0 0 0 0 0 0 0 0 0 0.7 0"/>
<feBlend mode="normal" in2="BackgroundImageFix" result="effect1_dropShadow_413_1053"/>
<feBlend mode="normal" in="SourceGraphic" in2="effect1_dropShadow_413_1053" result="shape"/>
</filter>
</defs>
</svg>
