<svg width="39" height="19" viewBox="0 0 39 19" fill="none" xmlns="http://www.w3.org/2000/svg">
<g filter="url(#filter0_d_413_1087)">
<mask id="path-1-outside-1_413_1087" maskUnits="userSpaceOnUse" x="3" y="3" width="33" height="13" fill="black">
<rect fill="white" x="3" y="3" width="33" height="13"/>
<path d="M4.14489 14V4.54545H7.45028C8.1089 4.54545 8.65211 4.65933 9.0799 4.88707C9.50769 5.11174 9.82623 5.41489 10.0355 5.79652C10.2448 6.17507 10.3494 6.59517 10.3494 7.05682C10.3494 7.46307 10.2771 7.79853 10.1325 8.06321C9.99089 8.32789 9.80315 8.53717 9.56925 8.69105C9.33842 8.84493 9.08759 8.95881 8.81676 9.03267V9.125C9.10606 9.14347 9.3969 9.24503 9.68928 9.42969C9.98165 9.61435 10.2263 9.87902 10.4233 10.2237C10.6203 10.5684 10.7188 10.9901 10.7188 11.4886C10.7188 11.9626 10.611 12.3888 10.3956 12.7674C10.1802 13.146 9.84008 13.446 9.37536 13.6676C8.91063 13.8892 8.30587 14 7.56108 14H4.14489ZM5.28977 12.9844H7.56108C8.30895 12.9844 8.83984 12.8397 9.15376 12.5504C9.47076 12.258 9.62926 11.9041 9.62926 11.4886C9.62926 11.1686 9.5477 10.8731 9.38459 10.6023C9.22147 10.3284 8.98911 10.1098 8.6875 9.94673C8.38589 9.78054 8.02888 9.69744 7.61648 9.69744H5.28977V12.9844ZM5.28977 8.70028H7.41335C7.75805 8.70028 8.06889 8.63258 8.34588 8.49716C8.62595 8.36174 8.84754 8.17093 9.01065 7.92472C9.17685 7.6785 9.25994 7.3892 9.25994 7.05682C9.25994 6.64134 9.11529 6.28894 8.82599 5.99964C8.5367 5.70727 8.07813 5.56108 7.45028 5.56108H5.28977V8.70028ZM14.2789 14.1662C13.8295 14.1662 13.4218 14.0816 13.0555 13.9123C12.6893 13.7399 12.3984 13.4922 12.183 13.169C11.9676 12.8428 11.8599 12.4489 11.8599 11.9872C11.8599 11.581 11.9399 11.2517 12.0999 10.9993C12.2599 10.7438 12.4738 10.5438 12.7416 10.3991C13.0094 10.2545 13.3048 10.1468 13.628 10.076C13.9542 10.0021 14.282 9.94366 14.6113 9.90057C15.0421 9.84517 15.3915 9.80362 15.6592 9.77592C15.93 9.74515 16.127 9.69437 16.2501 9.62358C16.3763 9.55279 16.4394 9.42969 16.4394 9.25426V9.21733C16.4394 8.76184 16.3148 8.40791 16.0655 8.15554C15.8192 7.90317 15.4453 7.77699 14.9437 7.77699C14.4235 7.77699 14.0157 7.89086 13.7203 8.11861C13.4248 8.34635 13.2171 8.58949 13.0971 8.84801L12.063 8.47869C12.2476 8.04782 12.4938 7.71236 12.8016 7.4723C13.1125 7.22917 13.451 7.0599 13.8172 6.96449C14.1866 6.866 14.5497 6.81676 14.9067 6.81676C15.1345 6.81676 15.3961 6.84446 15.6915 6.89986C15.9901 6.95218 16.2778 7.06143 16.5548 7.22763C16.8349 7.39382 17.0672 7.64465 17.2519 7.98011C17.4366 8.31558 17.5289 8.76491 17.5289 9.32812V14H16.4394V13.0398H16.384C16.3101 13.1937 16.187 13.3583 16.0147 13.5337C15.8423 13.7092 15.613 13.8584 15.3268 13.9815C15.0406 14.1046 14.6913 14.1662 14.2789 14.1662ZM14.4451 13.1875C14.8759 13.1875 15.2391 13.1029 15.5346 12.9336C15.8331 12.7643 16.0578 12.5458 16.2086 12.2781C16.3625 12.0103 16.4394 11.7287 16.4394 11.4332V10.4361C16.3932 10.4915 16.2917 10.5423 16.1347 10.5884C15.9808 10.6315 15.8023 10.67 15.5992 10.7038C15.3991 10.7346 15.2037 10.7623 15.0129 10.7869C14.8252 10.8085 14.6728 10.8269 14.5559 10.8423C14.2727 10.8793 14.0081 10.9393 13.7618 11.0224C13.5187 11.1024 13.3217 11.224 13.1709 11.3871C13.0232 11.5471 12.9493 11.7656 12.9493 12.0426C12.9493 12.4212 13.0894 12.7074 13.3694 12.9013C13.6526 13.0921 14.0111 13.1875 14.4451 13.1875ZM24.2802 8.49716L23.3015 8.77415C23.2399 8.61103 23.1491 8.45253 23.0291 8.29865C22.9121 8.14169 22.7521 8.01243 22.549 7.91087C22.3459 7.8093 22.0858 7.75852 21.7688 7.75852C21.3348 7.75852 20.9732 7.85855 20.6839 8.05859C20.3977 8.25556 20.2546 8.50639 20.2546 8.81108C20.2546 9.08191 20.3531 9.29581 20.55 9.45277C20.747 9.60973 21.0548 9.74053 21.4733 9.84517L22.5259 10.1037C23.1599 10.2576 23.6323 10.493 23.9432 10.81C24.254 11.1239 24.4094 11.5286 24.4094 12.0241C24.4094 12.4304 24.2925 12.7936 24.0586 13.1136C23.8277 13.4337 23.5046 13.6861 23.0891 13.8707C22.6736 14.0554 22.1904 14.1477 21.6395 14.1477C20.9163 14.1477 20.3177 13.9908 19.8437 13.6768C19.3698 13.3629 19.0697 12.9044 18.9435 12.3011L19.9776 12.0426C20.0761 12.4242 20.2623 12.7105 20.5362 12.9013C20.8132 13.0921 21.1748 13.1875 21.6211 13.1875C22.1289 13.1875 22.5321 13.0798 22.8306 12.8643C23.1322 12.6458 23.283 12.3842 23.283 12.0795C23.283 11.8333 23.1968 11.6271 23.0245 11.4609C22.8521 11.2917 22.5875 11.1655 22.2304 11.0824L21.0486 10.8054C20.3992 10.6515 19.9222 10.413 19.6175 10.0898C19.3159 9.76361 19.1651 9.35582 19.1651 8.86648C19.1651 8.46638 19.2774 8.11245 19.5021 7.80469C19.7299 7.49692 20.0392 7.25533 20.43 7.0799C20.824 6.90447 21.2702 6.81676 21.7688 6.81676C22.4705 6.81676 23.0214 6.97064 23.4215 7.27841C23.8247 7.58617 24.1109 7.99242 24.2802 8.49716ZM25.7894 14V6.90909H26.8789V14H25.7894ZM26.3434 5.72727C26.131 5.72727 25.9479 5.65495 25.794 5.5103C25.6432 5.36565 25.5678 5.19176 25.5678 4.98864C25.5678 4.78551 25.6432 4.61162 25.794 4.46697C25.9479 4.32232 26.131 4.25 26.3434 4.25C26.5558 4.25 26.7373 4.32232 26.8881 4.46697C27.042 4.61162 27.119 4.78551 27.119 4.98864C27.119 5.19176 27.042 5.36565 26.8881 5.5103C26.7373 5.65495 26.5558 5.72727 26.3434 5.72727ZM31.4951 14.1477C30.8303 14.1477 30.2579 13.9908 29.7777 13.6768C29.2976 13.3629 28.9283 12.9305 28.6698 12.3796C28.4113 11.8287 28.282 11.1993 28.282 10.4915C28.282 9.77131 28.4143 9.13577 28.679 8.58487C28.9468 8.03089 29.3192 7.59848 29.7962 7.28764C30.2763 6.97372 30.8364 6.81676 31.4766 6.81676C31.9752 6.81676 32.4245 6.90909 32.8246 7.09375C33.2247 7.27841 33.5525 7.53693 33.8079 7.86932C34.0634 8.2017 34.2219 8.58949 34.2834 9.03267H33.1939C33.1108 8.70952 32.9262 8.4233 32.64 8.17401C32.3568 7.92164 31.9752 7.79545 31.4951 7.79545C31.0704 7.79545 30.698 7.90625 30.3779 8.12784C30.0609 8.34635 29.8131 8.65566 29.6346 9.05575C29.4592 9.45277 29.3715 9.91903 29.3715 10.4545C29.3715 11.0024 29.4577 11.4794 29.63 11.8857C29.8054 12.2919 30.0516 12.6074 30.3686 12.832C30.6887 13.0567 31.0642 13.169 31.4951 13.169C31.7782 13.169 32.0352 13.1198 32.266 13.0213C32.4968 12.9228 32.6923 12.7812 32.8523 12.5966C33.0123 12.4119 33.1262 12.1903 33.1939 11.9318H34.2834C34.2219 12.3504 34.0695 12.7274 33.8264 13.0629C33.5863 13.3952 33.2678 13.6599 32.8708 13.8569C32.4768 14.0508 32.0183 14.1477 31.4951 14.1477Z"/>
</mask>
<path d="M4.14489 14V4.54545H7.45028C8.1089 4.54545 8.65211 4.65933 9.0799 4.88707C9.50769 5.11174 9.82623 5.41489 10.0355 5.79652C10.2448 6.17507 10.3494 6.59517 10.3494 7.05682C10.3494 7.46307 10.2771 7.79853 10.1325 8.06321C9.99089 8.32789 9.80315 8.53717 9.56925 8.69105C9.33842 8.84493 9.08759 8.95881 8.81676 9.03267V9.125C9.10606 9.14347 9.3969 9.24503 9.68928 9.42969C9.98165 9.61435 10.2263 9.87902 10.4233 10.2237C10.6203 10.5684 10.7188 10.9901 10.7188 11.4886C10.7188 11.9626 10.611 12.3888 10.3956 12.7674C10.1802 13.146 9.84008 13.446 9.37536 13.6676C8.91063 13.8892 8.30587 14 7.56108 14H4.14489ZM5.28977 12.9844H7.56108C8.30895 12.9844 8.83984 12.8397 9.15376 12.5504C9.47076 12.258 9.62926 11.9041 9.62926 11.4886C9.62926 11.1686 9.5477 10.8731 9.38459 10.6023C9.22147 10.3284 8.98911 10.1098 8.6875 9.94673C8.38589 9.78054 8.02888 9.69744 7.61648 9.69744H5.28977V12.9844ZM5.28977 8.70028H7.41335C7.75805 8.70028 8.06889 8.63258 8.34588 8.49716C8.62595 8.36174 8.84754 8.17093 9.01065 7.92472C9.17685 7.6785 9.25994 7.3892 9.25994 7.05682C9.25994 6.64134 9.11529 6.28894 8.82599 5.99964C8.5367 5.70727 8.07813 5.56108 7.45028 5.56108H5.28977V8.70028ZM14.2789 14.1662C13.8295 14.1662 13.4218 14.0816 13.0555 13.9123C12.6893 13.7399 12.3984 13.4922 12.183 13.169C11.9676 12.8428 11.8599 12.4489 11.8599 11.9872C11.8599 11.581 11.9399 11.2517 12.0999 10.9993C12.2599 10.7438 12.4738 10.5438 12.7416 10.3991C13.0094 10.2545 13.3048 10.1468 13.628 10.076C13.9542 10.0021 14.282 9.94366 14.6113 9.90057C15.0421 9.84517 15.3915 9.80362 15.6592 9.77592C15.93 9.74515 16.127 9.69437 16.2501 9.62358C16.3763 9.55279 16.4394 9.42969 16.4394 9.25426V9.21733C16.4394 8.76184 16.3148 8.40791 16.0655 8.15554C15.8192 7.90317 15.4453 7.77699 14.9437 7.77699C14.4235 7.77699 14.0157 7.89086 13.7203 8.11861C13.4248 8.34635 13.2171 8.58949 13.0971 8.84801L12.063 8.47869C12.2476 8.04782 12.4938 7.71236 12.8016 7.4723C13.1125 7.22917 13.451 7.0599 13.8172 6.96449C14.1866 6.866 14.5497 6.81676 14.9067 6.81676C15.1345 6.81676 15.3961 6.84446 15.6915 6.89986C15.9901 6.95218 16.2778 7.06143 16.5548 7.22763C16.8349 7.39382 17.0672 7.64465 17.2519 7.98011C17.4366 8.31558 17.5289 8.76491 17.5289 9.32812V14H16.4394V13.0398H16.384C16.3101 13.1937 16.187 13.3583 16.0147 13.5337C15.8423 13.7092 15.613 13.8584 15.3268 13.9815C15.0406 14.1046 14.6913 14.1662 14.2789 14.1662ZM14.4451 13.1875C14.8759 13.1875 15.2391 13.1029 15.5346 12.9336C15.8331 12.7643 16.0578 12.5458 16.2086 12.2781C16.3625 12.0103 16.4394 11.7287 16.4394 11.4332V10.4361C16.3932 10.4915 16.2917 10.5423 16.1347 10.5884C15.9808 10.6315 15.8023 10.67 15.5992 10.7038C15.3991 10.7346 15.2037 10.7623 15.0129 10.7869C14.8252 10.8085 14.6728 10.8269 14.5559 10.8423C14.2727 10.8793 14.0081 10.9393 13.7618 11.0224C13.5187 11.1024 13.3217 11.224 13.1709 11.3871C13.0232 11.5471 12.9493 11.7656 12.9493 12.0426C12.9493 12.4212 13.0894 12.7074 13.3694 12.9013C13.6526 13.0921 14.0111 13.1875 14.4451 13.1875ZM24.2802 8.49716L23.3015 8.77415C23.2399 8.61103 23.1491 8.45253 23.0291 8.29865C22.9121 8.14169 22.7521 8.01243 22.549 7.91087C22.3459 7.8093 22.0858 7.75852 21.7688 7.75852C21.3348 7.75852 20.9732 7.85855 20.6839 8.05859C20.3977 8.25556 20.2546 8.50639 20.2546 8.81108C20.2546 9.08191 20.3531 9.29581 20.55 9.45277C20.747 9.60973 21.0548 9.74053 21.4733 9.84517L22.5259 10.1037C23.1599 10.2576 23.6323 10.493 23.9432 10.81C24.254 11.1239 24.4094 11.5286 24.4094 12.0241C24.4094 12.4304 24.2925 12.7936 24.0586 13.1136C23.8277 13.4337 23.5046 13.6861 23.0891 13.8707C22.6736 14.0554 22.1904 14.1477 21.6395 14.1477C20.9163 14.1477 20.3177 13.9908 19.8437 13.6768C19.3698 13.3629 19.0697 12.9044 18.9435 12.3011L19.9776 12.0426C20.0761 12.4242 20.2623 12.7105 20.5362 12.9013C20.8132 13.0921 21.1748 13.1875 21.6211 13.1875C22.1289 13.1875 22.5321 13.0798 22.8306 12.8643C23.1322 12.6458 23.283 12.3842 23.283 12.0795C23.283 11.8333 23.1968 11.6271 23.0245 11.4609C22.8521 11.2917 22.5875 11.1655 22.2304 11.0824L21.0486 10.8054C20.3992 10.6515 19.9222 10.413 19.6175 10.0898C19.3159 9.76361 19.1651 9.35582 19.1651 8.86648C19.1651 8.46638 19.2774 8.11245 19.5021 7.80469C19.7299 7.49692 20.0392 7.25533 20.43 7.0799C20.824 6.90447 21.2702 6.81676 21.7688 6.81676C22.4705 6.81676 23.0214 6.97064 23.4215 7.27841C23.8247 7.58617 24.1109 7.99242 24.2802 8.49716ZM25.7894 14V6.90909H26.8789V14H25.7894ZM26.3434 5.72727C26.131 5.72727 25.9479 5.65495 25.794 5.5103C25.6432 5.36565 25.5678 5.19176 25.5678 4.98864C25.5678 4.78551 25.6432 4.61162 25.794 4.46697C25.9479 4.32232 26.131 4.25 26.3434 4.25C26.5558 4.25 26.7373 4.32232 26.8881 4.46697C27.042 4.61162 27.119 4.78551 27.119 4.98864C27.119 5.19176 27.042 5.36565 26.8881 5.5103C26.7373 5.65495 26.5558 5.72727 26.3434 5.72727ZM31.4951 14.1477C30.8303 14.1477 30.2579 13.9908 29.7777 13.6768C29.2976 13.3629 28.9283 12.9305 28.6698 12.3796C28.4113 11.8287 28.282 11.1993 28.282 10.4915C28.282 9.77131 28.4143 9.13577 28.679 8.58487C28.9468 8.03089 29.3192 7.59848 29.7962 7.28764C30.2763 6.97372 30.8364 6.81676 31.4766 6.81676C31.9752 6.81676 32.4245 6.90909 32.8246 7.09375C33.2247 7.27841 33.5525 7.53693 33.8079 7.86932C34.0634 8.2017 34.2219 8.58949 34.2834 9.03267H33.1939C33.1108 8.70952 32.9262 8.4233 32.64 8.17401C32.3568 7.92164 31.9752 7.79545 31.4951 7.79545C31.0704 7.79545 30.698 7.90625 30.3779 8.12784C30.0609 8.34635 29.8131 8.65566 29.6346 9.05575C29.4592 9.45277 29.3715 9.91903 29.3715 10.4545C29.3715 11.0024 29.4577 11.4794 29.63 11.8857C29.8054 12.2919 30.0516 12.6074 30.3686 12.832C30.6887 13.0567 31.0642 13.169 31.4951 13.169C31.7782 13.169 32.0352 13.1198 32.266 13.0213C32.4968 12.9228 32.6923 12.7812 32.8523 12.5966C33.0123 12.4119 33.1262 12.1903 33.1939 11.9318H34.2834C34.2219 12.3504 34.0695 12.7274 33.8264 13.0629C33.5863 13.3952 33.2678 13.6599 32.8708 13.8569C32.4768 14.0508 32.0183 14.1477 31.4951 14.1477Z" fill="#C9C9C9"/>
<path d="M4.14489 14H3.14489V15H4.14489V14ZM4.14489 4.54545V3.54545H3.14489V4.54545H4.14489ZM9.0799 4.88707L8.60996 5.76979L8.61494 5.77241L9.0799 4.88707ZM10.0355 5.79652L9.15869 6.27735L9.16035 6.28035L10.0355 5.79652ZM10.1325 8.06321L9.25492 7.58362L9.25067 7.59156L10.1325 8.06321ZM9.56925 8.69105L9.01962 7.85562L9.01455 7.859L9.56925 8.69105ZM8.81676 9.03267L8.55364 8.06791L7.81676 8.26887V9.03267H8.81676ZM8.81676 9.125H7.81676V10.0632L8.75306 10.123L8.81676 9.125ZM9.68928 9.42969L9.15528 10.2752L9.15528 10.2752L9.68928 9.42969ZM10.3956 12.7674L11.2647 13.262L10.3956 12.7674ZM9.37536 13.6676L8.94496 12.765L9.37536 13.6676ZM5.28977 12.9844H4.28977V13.9844H5.28977V12.9844ZM9.15376 12.5504L9.83145 13.2858L9.83175 13.2855L9.15376 12.5504ZM9.38459 10.6023L8.52539 11.1139L8.52796 11.1182L9.38459 10.6023ZM8.6875 9.94673L8.20488 10.8226L8.2118 10.8263L8.6875 9.94673ZM5.28977 9.69744V8.69744H4.28977V9.69744H5.28977ZM5.28977 8.70028H4.28977V9.70028H5.28977V8.70028ZM8.34588 8.49716L7.91057 7.59687L7.90667 7.59877L8.34588 8.49716ZM9.01065 7.92472L8.18177 7.36522L8.177 7.37242L9.01065 7.92472ZM8.82599 5.99964L8.11515 6.70301L8.11889 6.70675L8.82599 5.99964ZM5.28977 5.56108V4.56108H4.28977V5.56108H5.28977ZM5.14489 14V4.54545H3.14489V14H5.14489ZM4.14489 5.54545H7.45028V3.54545H4.14489V5.54545ZM7.45028 5.54545C8.00114 5.54545 8.36938 5.6417 8.60997 5.76978L9.54983 4.00437C8.93483 3.67696 8.21666 3.54545 7.45028 3.54545V5.54545ZM8.61494 5.77241C8.88858 5.91612 9.05422 6.08683 9.1587 6.27735L10.9123 5.31569C10.5982 4.74295 10.1268 4.30737 9.54486 4.00174L8.61494 5.77241ZM9.16035 6.28035C9.28224 6.50083 9.34943 6.75266 9.34943 7.05682H11.3494C11.3494 6.43768 11.2073 5.84931 10.9107 5.31269L9.16035 6.28035ZM9.34943 7.05682C9.34943 7.35122 9.29617 7.50822 9.25495 7.58364L11.01 8.54278C11.258 8.08884 11.3494 7.57491 11.3494 7.05682H9.34943ZM9.25067 7.59156C9.18192 7.72009 9.10423 7.79998 9.01963 7.85563L10.1189 9.52647C10.5021 9.27436 10.7998 8.93569 11.0142 8.53486L9.25067 7.59156ZM9.01455 7.859C8.87423 7.95254 8.72204 8.02198 8.55364 8.06791L9.07988 9.99743C9.45315 9.89563 9.80261 9.73732 10.1239 9.5231L9.01455 7.859ZM7.81676 9.03267V9.125H9.81676V9.03267H7.81676ZM8.75306 10.123C8.84585 10.1289 8.97719 10.1627 9.15528 10.2752L10.2233 8.5842C9.81661 8.32736 9.36627 8.15804 8.88046 8.12703L8.75306 10.123ZM9.15528 10.2752C9.29009 10.3603 9.42714 10.496 9.55505 10.7199L11.2915 9.72758C11.0255 9.26204 10.6732 8.86838 10.2233 8.5842L9.15528 10.2752ZM9.55505 10.7199C9.64624 10.8794 9.71875 11.1202 9.71875 11.4886H11.7188C11.7188 10.8599 11.5943 10.2574 11.2915 9.72758L9.55505 10.7199ZM9.71875 11.4886C9.71875 11.8049 9.64868 12.0581 9.52648 12.2728L11.2647 13.262C11.5734 12.7196 11.7188 12.1203 11.7188 11.4886H9.71875ZM9.52648 12.2728C9.4295 12.4432 9.25959 12.615 8.94496 12.765L9.80575 14.5703C10.4206 14.2771 10.9308 13.8487 11.2647 13.262L9.52648 12.2728ZM8.94496 12.765C8.66092 12.9004 8.21849 13 7.56108 13V15C8.39325 15 9.16034 14.878 9.80575 14.5703L8.94496 12.765ZM7.56108 13H4.14489V15H7.56108V13ZM5.28977 13.9844H7.56108V11.9844H5.28977V13.9844ZM7.56108 13.9844C8.38751 13.9844 9.23641 13.8341 9.83145 13.2858L8.47608 11.8151C8.44328 11.8453 8.23039 11.9844 7.56108 11.9844V13.9844ZM9.83175 13.2855C10.3452 12.8119 10.6293 12.1951 10.6293 11.4886H8.62926C8.62926 11.6131 8.59632 11.7042 8.47578 11.8153L9.83175 13.2855ZM10.6293 11.4886C10.6293 10.9891 10.4994 10.5149 10.2412 10.0863L8.52796 11.1182C8.59605 11.2313 8.62926 11.348 8.62926 11.4886H10.6293ZM10.2438 10.0906C9.98139 9.65 9.61106 9.30934 9.1632 9.06713L8.2118 10.8263C8.36716 10.9104 8.46155 11.0067 8.5254 11.1139L10.2438 10.0906ZM9.1701 9.07089C8.69405 8.80858 8.16438 8.69744 7.61648 8.69744V10.6974C7.89338 10.6974 8.07773 10.7525 8.2049 10.8226L9.1701 9.07089ZM7.61648 8.69744H5.28977V10.6974H7.61648V8.69744ZM4.28977 9.69744V12.9844H6.28977V9.69744H4.28977ZM5.28977 9.70028H7.41335V7.70028H5.28977V9.70028ZM7.41335 9.70028C7.89215 9.70028 8.35594 9.60535 8.78509 9.39554L7.90667 7.59877C7.78185 7.6598 7.62395 7.70028 7.41335 7.70028V9.70028ZM8.78118 9.39744C9.21388 9.18823 9.57668 8.88097 9.8443 8.47701L8.177 7.37242C8.1184 7.46089 8.03801 7.53526 7.91058 7.59687L8.78118 9.39744ZM9.8395 8.48419C10.1303 8.05343 10.2599 7.56397 10.2599 7.05682H8.25994C8.25994 7.21443 8.22343 7.30358 8.1818 7.36524L9.8395 8.48419ZM10.2599 7.05682C10.2599 6.38074 10.0132 5.77262 9.5331 5.29254L8.11889 6.70675C8.21741 6.80527 8.25994 6.90193 8.25994 7.05682H10.2599ZM9.53683 5.29629C8.98082 4.73437 8.207 4.56108 7.45028 4.56108V6.56108C7.94925 6.56108 8.09257 6.68017 8.11516 6.703L9.53683 5.29629ZM7.45028 4.56108H5.28977V6.56108H7.45028V4.56108ZM4.28977 5.56108V8.70028H6.28977V5.56108H4.28977ZM13.0555 13.9123L12.6297 14.8171L12.636 14.82L13.0555 13.9123ZM12.183 13.169L11.3485 13.7201L11.351 13.7237L12.183 13.169ZM12.0999 10.9993L12.9444 11.5348L12.9473 11.5302L12.0999 10.9993ZM13.628 10.076L13.8419 11.0529L13.8488 11.0513L13.628 10.076ZM14.6113 9.90057L14.4837 8.90873L14.4815 8.90902L14.6113 9.90057ZM15.6592 9.77592L15.7621 10.7707L15.7721 10.7695L15.6592 9.77592ZM16.2501 9.62358L15.7608 8.75139L15.7516 8.75667L16.2501 9.62358ZM16.0655 8.15554L15.3497 8.85388L15.354 8.85829L16.0655 8.15554ZM13.7203 8.11861L14.3308 8.91062V8.91062L13.7203 8.11861ZM13.0971 8.84801L12.7607 9.78975L13.6199 10.0966L14.0041 9.26912L13.0971 8.84801ZM12.063 8.47869L11.1438 8.08477L10.7248 9.06262L11.7266 9.42043L12.063 8.47869ZM12.8016 7.4723L13.4166 8.2608L13.4177 8.25997L12.8016 7.4723ZM13.8172 6.96449L14.0693 7.93221L14.0749 7.93072L13.8172 6.96449ZM15.6915 6.89986L15.5072 7.8828L15.5189 7.88484L15.6915 6.89986ZM16.5548 7.22763L16.0403 8.08513L16.0445 8.08761L16.5548 7.22763ZM17.2519 7.98011L16.3758 8.46234L16.3759 8.46234L17.2519 7.98011ZM17.5289 14V15H18.5289V14H17.5289ZM16.4394 14H15.4394V15H16.4394V14ZM16.4394 13.0398H17.4394V12.0398H16.4394V13.0398ZM16.384 13.0398V12.0398H15.7548L15.4825 12.607L16.384 13.0398ZM16.0147 13.5337L16.728 14.2346V14.2346L16.0147 13.5337ZM15.3268 13.9815L14.9317 13.0629L15.3268 13.9815ZM15.5346 12.9336L15.0413 12.0637L15.0375 12.0659L15.5346 12.9336ZM16.2086 12.2781L15.3415 11.7798L15.3373 11.7873L16.2086 12.2781ZM16.4394 10.4361H17.4394V7.67402L15.6712 9.7959L16.4394 10.4361ZM16.1347 10.5884L16.4044 11.5515L16.4169 11.5478L16.1347 10.5884ZM15.5992 10.7038L15.7513 11.6923L15.7636 11.6902L15.5992 10.7038ZM15.0129 10.7869L15.1269 11.7805L15.1409 11.7787L15.0129 10.7869ZM14.5559 10.8423L14.6852 11.8339L14.6863 11.8338L14.5559 10.8423ZM13.7618 11.0224L14.0745 11.9723L14.0816 11.9699L13.7618 11.0224ZM13.1709 11.3871L12.4367 10.7082L12.4361 10.7088L13.1709 11.3871ZM13.3694 12.9013L12.8002 13.7235L12.8106 13.7305L13.3694 12.9013ZM14.2789 13.1662C13.9578 13.1662 13.6955 13.1064 13.4751 13.0046L12.636 14.82C13.148 15.0567 13.7013 15.1662 14.2789 15.1662V13.1662ZM13.4813 13.0075C13.2726 12.9092 13.1251 12.7794 13.0151 12.6143L11.351 13.7237C11.6718 14.205 12.106 14.5706 12.6297 14.8171L13.4813 13.0075ZM13.0175 12.618C12.9283 12.483 12.8599 12.289 12.8599 11.9872H10.8599C10.8599 12.6087 11.0068 13.2026 11.3485 13.7201L13.0175 12.618ZM12.8599 11.9872C12.8599 11.7046 12.9163 11.5792 12.9444 11.5348L11.2554 10.4637C10.9634 10.9241 10.8599 11.4573 10.8599 11.9872H12.8599ZM12.9473 11.5302C13.0147 11.4227 13.0997 11.3423 13.2169 11.279L12.2663 9.51933C11.848 9.74533 11.5052 10.0649 11.2525 10.4684L12.9473 11.5302ZM13.2169 11.279C13.3957 11.1824 13.6021 11.1054 13.8419 11.0528L13.414 9.09915C13.0075 9.18819 12.623 9.32662 12.2663 9.51933L13.2169 11.279ZM13.8488 11.0513C14.1451 10.9842 14.4425 10.9312 14.741 10.8921L14.4815 8.90902C14.1214 8.95614 13.7632 9.02005 13.4071 9.10068L13.8488 11.0513ZM14.7388 10.8924C15.1658 10.8375 15.506 10.7971 15.7621 10.7706L15.5563 8.78123C15.2769 8.81013 14.9185 8.85283 14.4837 8.90873L14.7388 10.8924ZM15.7721 10.7695C16.0768 10.7349 16.4422 10.6667 16.7486 10.4905L15.7516 8.75667C15.7937 8.73249 15.806 8.73468 15.7604 8.74642C15.719 8.75709 15.65 8.77053 15.5463 8.78232L15.7721 10.7695ZM16.7394 10.4957C17.253 10.2076 17.4394 9.70044 17.4394 9.25426H15.4394C15.4394 9.2248 15.4446 9.13442 15.5021 9.02207C15.5646 8.90025 15.6607 8.80763 15.7609 8.75144L16.7394 10.4957ZM17.4394 9.25426V9.21733H15.4394V9.25426H17.4394ZM17.4394 9.21733C17.4394 8.57682 17.2595 7.94137 16.7769 7.45278L15.354 8.85829C15.37 8.87444 15.4394 8.94685 15.4394 9.21733H17.4394ZM16.7812 7.45722C16.2792 6.94259 15.5994 6.77699 14.9437 6.77699V8.77699C15.1138 8.77699 15.2203 8.79876 15.2806 8.81913C15.3358 8.83776 15.3496 8.85382 15.3497 8.85386L16.7812 7.45722ZM14.9437 6.77699C14.288 6.77699 13.6375 6.91979 13.1098 7.3266L14.3308 8.91062C14.394 8.86193 14.559 8.77699 14.9437 8.77699V6.77699ZM13.1098 7.3266C12.725 7.62317 12.3953 7.98478 12.1901 8.4269L14.0041 9.26912C14.0389 9.1942 14.1246 9.06954 14.3308 8.91062L13.1098 7.3266ZM13.4334 7.90627L12.3993 7.53695L11.7266 9.42043L12.7607 9.78975L13.4334 7.90627ZM12.9821 8.87261C13.1136 8.56575 13.2662 8.37812 13.4166 8.2608L12.1866 6.6838C11.7215 7.0466 11.3816 7.5299 11.1438 8.08477L12.9821 8.87261ZM13.4177 8.25997C13.6255 8.09743 13.8411 7.99164 14.0693 7.93219L13.5651 5.99678C13.0609 6.12815 12.5994 6.3609 12.1855 6.68463L13.4177 8.25997ZM14.0749 7.93072C14.3661 7.85308 14.6426 7.81676 14.9067 7.81676V5.81676C14.4568 5.81676 14.007 5.87893 13.5596 5.99825L14.0749 7.93072ZM14.9067 7.81676C15.0567 7.81676 15.2545 7.83535 15.5072 7.88273L15.8758 5.91699C15.5376 5.85357 15.2123 5.81676 14.9067 5.81676V7.81676ZM15.5189 7.88484C15.6889 7.91463 15.8615 7.97784 16.0403 8.08512L17.0693 6.37013C16.6941 6.14503 16.2913 5.98972 15.8642 5.91487L15.5189 7.88484ZM16.0445 8.08761C16.146 8.14786 16.262 8.25543 16.3758 8.46234L18.1279 7.49789C17.8725 7.03386 17.5237 6.63978 17.0651 6.36764L16.0445 8.08761ZM16.3759 8.46234C16.4498 8.5967 16.5289 8.85978 16.5289 9.32812H18.5289C18.5289 8.67005 18.4233 8.03445 18.1279 7.49789L16.3759 8.46234ZM16.5289 9.32812V14H18.5289V9.32812H16.5289ZM17.5289 13H16.4394V15H17.5289V13ZM17.4394 14V13.0398H15.4394V14H17.4394ZM16.4394 12.0398H16.384V14.0398H16.4394V12.0398ZM15.4825 12.607C15.4721 12.6286 15.4276 12.7044 15.3013 12.8329L16.728 14.2346C16.9465 14.0122 17.1481 13.7587 17.2855 13.4725L15.4825 12.607ZM15.3013 12.8329C15.2407 12.8947 15.1293 12.9779 14.9317 13.0629L15.7219 14.9002C16.0968 14.7389 16.444 14.5237 16.728 14.2346L15.3013 12.8329ZM14.9317 13.0629C14.8037 13.118 14.5972 13.1662 14.2789 13.1662V15.1662C14.7854 15.1662 15.2775 15.0913 15.7219 14.9002L14.9317 13.0629ZM14.4451 14.1875C15.0048 14.1875 15.5498 14.0774 16.0317 13.8013L15.0375 12.0659C14.9285 12.1284 14.7471 12.1875 14.4451 12.1875V14.1875ZM16.0278 13.8035C16.4655 13.5553 16.8297 13.2129 17.0799 12.7688L15.3373 11.7873C15.2858 11.8787 15.2007 11.9734 15.0413 12.0637L16.0278 13.8035ZM17.0756 12.7763C17.3125 12.3641 17.4394 11.9116 17.4394 11.4332H15.4394C15.4394 11.5458 15.4124 11.6565 15.3416 11.7798L17.0756 12.7763ZM17.4394 11.4332V10.4361H15.4394V11.4332H17.4394ZM15.6712 9.7959C15.7256 9.73062 15.7776 9.68854 15.8107 9.66475C15.8446 9.64045 15.8703 9.62682 15.8814 9.62129C15.9011 9.61143 15.8967 9.61607 15.8525 9.62906L16.4169 11.5478C16.5297 11.5146 16.6545 11.4708 16.7758 11.4101C16.8868 11.3546 17.0601 11.2533 17.2076 11.0763L15.6712 9.7959ZM15.8651 9.62546C15.754 9.65655 15.612 9.68791 15.4348 9.71744L15.7636 11.6902C15.9927 11.6521 16.2076 11.6065 16.4043 11.5514L15.8651 9.62546ZM15.4471 9.71546C15.2547 9.74507 15.0673 9.77162 14.8849 9.79515L15.1409 11.7787C15.3401 11.753 15.5436 11.7242 15.7513 11.6922L15.4471 9.71546ZM14.8989 9.79345C14.7085 9.8153 14.5501 9.83447 14.4254 9.85087L14.6863 11.8338C14.7956 11.8194 14.9418 11.8017 15.1269 11.7804L14.8989 9.79345ZM14.4265 9.85073C14.0849 9.89529 13.7559 9.96896 13.4421 10.0749L14.0816 11.9699C14.2602 11.9096 14.4605 11.8632 14.6852 11.8339L14.4265 9.85073ZM13.4492 10.0725C13.0696 10.1974 12.7192 10.4026 12.4367 10.7082L13.9052 12.0659C13.9242 12.0453 13.9678 12.0074 14.0745 11.9723L13.4492 10.0725ZM12.4361 10.7088C12.0752 11.0998 11.9493 11.5851 11.9493 12.0426H13.9493C13.9493 11.9918 13.9562 11.979 13.9521 11.9912C13.9499 11.9976 13.9453 12.009 13.937 12.0232C13.9286 12.0376 13.918 12.0521 13.9057 12.0654L12.4361 10.7088ZM11.9493 12.0426C11.9493 12.7066 12.2171 13.3198 12.8002 13.7235L13.9386 12.0791C13.9317 12.0743 13.933 12.0741 13.9382 12.08C13.9436 12.0862 13.9489 12.0941 13.9526 12.1017C13.9562 12.1091 13.9557 12.1107 13.9541 12.1031C13.9524 12.095 13.9493 12.0757 13.9493 12.0426H11.9493ZM12.8106 13.7305C13.2985 14.0593 13.8658 14.1875 14.4451 14.1875V12.1875C14.1564 12.1875 14.0067 12.1249 13.9283 12.072L12.8106 13.7305ZM24.2802 8.49716L24.5525 9.45936L25.5618 9.17371L25.2283 8.1792L24.2802 8.49716ZM23.3015 8.77415L22.3659 9.1272L22.6901 9.98645L23.5738 9.73635L23.3015 8.77415ZM23.0291 8.29865L22.2272 8.89613L22.2338 8.90498L22.2406 8.91368L23.0291 8.29865ZM22.549 7.91087L22.9962 7.01644H22.9962L22.549 7.91087ZM20.6839 8.05859L21.2508 8.88238L21.2527 8.8811L20.6839 8.05859ZM20.55 9.45277L19.9268 10.2348V10.2348L20.55 9.45277ZM21.4733 9.84517L21.2308 10.8153L21.2348 10.8163L21.4733 9.84517ZM22.5259 10.1037L22.2874 11.0748L22.29 11.0755L22.5259 10.1037ZM23.9432 10.81L23.2291 11.5102L23.2326 11.5136L23.9432 10.81ZM24.0586 13.1136L23.2512 12.5236L23.2475 12.5287L24.0586 13.1136ZM19.8437 13.6768L20.3959 12.8431L19.8437 13.6768ZM18.9435 12.3011L18.701 11.331L17.7677 11.5643L17.9647 12.5059L18.9435 12.3011ZM19.9776 12.0426L20.9459 11.7927L20.6979 10.8318L19.7351 11.0725L19.9776 12.0426ZM20.5362 12.9013L19.9646 13.7218L19.9689 13.7248L20.5362 12.9013ZM22.8306 12.8643L23.4158 13.6752L23.4173 13.6742L22.8306 12.8643ZM23.0245 11.4609L22.3237 12.1744L22.3303 12.1808L23.0245 11.4609ZM22.2304 11.0824L22.0023 12.056L22.0037 12.0564L22.2304 11.0824ZM21.0486 10.8054L20.818 11.7785L20.8204 11.779L21.0486 10.8054ZM19.6175 10.0898L18.8832 10.7687L18.8899 10.7759L19.6175 10.0898ZM19.5021 7.80469L18.6982 7.20983L18.6944 7.21508L19.5021 7.80469ZM20.43 7.0799L20.0232 6.16638L20.0205 6.16758L20.43 7.0799ZM23.4215 7.27841L22.8118 8.07104L22.8147 8.07328L23.4215 7.27841ZM24.0078 7.53495L23.0291 7.81194L23.5738 9.73635L24.5525 9.45936L24.0078 7.53495ZM24.2371 8.42109C24.136 8.15324 23.9923 7.90756 23.8176 7.68362L22.2406 8.91368C22.306 8.9975 22.3438 9.06882 22.3659 9.1272L24.2371 8.42109ZM23.831 7.70117C23.6067 7.40021 23.3167 7.1767 22.9962 7.01644L22.1018 8.80529C22.1875 8.84816 22.2176 8.88317 22.2272 8.89613L23.831 7.70117ZM22.9962 7.01644C22.6104 6.82354 22.1832 6.75852 21.7688 6.75852V8.75852C21.9884 8.75852 22.0813 8.79507 22.1018 8.80529L22.9962 7.01644ZM21.7688 6.75852C21.1796 6.75852 20.6072 6.89589 20.1152 7.23609L21.2527 8.8811C21.3393 8.82121 21.4901 8.75852 21.7688 8.75852V6.75852ZM20.117 7.23481C19.6038 7.58798 19.2546 8.12706 19.2546 8.81108H21.2546C21.2546 8.81384 21.2542 8.82517 21.2498 8.84213C21.2454 8.85939 21.2385 8.87602 21.2305 8.89001C21.2138 8.91919 21.2068 8.91265 21.2508 8.88238L20.117 7.23481ZM19.2546 8.81108C19.2546 9.36002 19.4719 9.8723 19.9268 10.2348L21.1733 8.67071C21.1882 8.68264 21.2162 8.71169 21.2368 8.7564C21.2564 8.79892 21.2546 8.82372 21.2546 8.81108H19.2546ZM19.9268 10.2348C20.2886 10.5231 20.7587 10.6973 21.2308 10.8153L21.7159 8.87503C21.3508 8.78377 21.2054 8.69634 21.1733 8.67071L19.9268 10.2348ZM21.2348 10.8163L22.2874 11.0748L22.7644 9.13256L21.7119 8.87403L21.2348 10.8163ZM22.29 11.0755C22.8225 11.2047 23.0969 11.3753 23.2292 11.5102L24.6572 10.1099C24.1678 9.61077 23.4973 9.31043 22.7618 9.13191L22.29 11.0755ZM23.2326 11.5136C23.3348 11.6168 23.4094 11.7572 23.4094 12.0241H25.4094C25.4094 11.3001 25.1732 10.631 24.6537 10.1064L23.2326 11.5136ZM23.4094 12.0241C23.4094 12.2239 23.3566 12.3793 23.2512 12.5236L24.866 13.7037C25.2283 13.2078 25.4094 12.6369 25.4094 12.0241H23.4094ZM23.2475 12.5287C23.135 12.6846 22.9617 12.833 22.683 12.9569L23.4952 14.7846C24.0475 14.5391 24.5204 14.1828 24.8697 13.6986L23.2475 12.5287ZM22.683 12.9569C22.4194 13.0741 22.0795 13.1477 21.6395 13.1477V15.1477C22.3014 15.1477 22.9278 15.0367 23.4952 14.7846L22.683 12.9569ZM21.6395 13.1477C21.0595 13.1477 20.6668 13.0225 20.3959 12.8431L19.2915 14.5106C19.9686 14.959 20.7731 15.1477 21.6395 15.1477V13.1477ZM20.3959 12.8431C20.1609 12.6875 19.9996 12.4658 19.9223 12.0964L17.9647 12.5059C18.1398 13.3429 18.5786 14.0384 19.2915 14.5106L20.3959 12.8431ZM19.186 13.2713L20.2201 13.0128L19.7351 11.0725L18.701 11.331L19.186 13.2713ZM19.0093 12.2925C19.1562 12.8616 19.4602 13.3704 19.9646 13.7218L21.1078 12.0807C21.0644 12.0505 20.996 11.9868 20.9459 11.7927L19.0093 12.2925ZM19.9689 13.7248C20.4594 14.0627 21.0374 14.1875 21.6211 14.1875V12.1875C21.3122 12.1875 21.167 12.1215 21.1035 12.0778L19.9689 13.7248ZM21.6211 14.1875C22.2611 14.1875 22.8931 14.0524 23.4158 13.6752L22.2454 12.0534C22.171 12.1071 21.9966 12.1875 21.6211 12.1875V14.1875ZM23.4173 13.6742C23.9136 13.3146 24.283 12.7773 24.283 12.0795H22.283C22.283 12.0723 22.284 12.0591 22.2884 12.0426C22.2928 12.0261 22.2988 12.0131 22.3035 12.0048C22.3129 11.9886 22.3066 12.0091 22.2439 12.0545L23.4173 13.6742ZM24.283 12.0795C24.283 11.5705 24.0926 11.1017 23.7186 10.7411L22.3303 12.1808C22.3254 12.1761 22.3089 12.1574 22.2957 12.1258C22.2828 12.0949 22.283 12.0753 22.283 12.0795H24.283ZM23.7252 10.7475C23.3707 10.3993 22.9074 10.2132 22.4571 10.1084L22.0037 12.0564C22.1286 12.0854 22.2129 12.1165 22.2664 12.142C22.3194 12.1673 22.3314 12.1819 22.3238 12.1744L23.7252 10.7475ZM22.4586 10.1088L21.2768 9.83178L20.8204 11.779L22.0023 12.056L22.4586 10.1088ZM21.2792 9.83235C20.7305 9.70232 20.4641 9.53008 20.3451 9.40383L18.8899 10.7759C19.3803 11.2959 20.068 11.6007 20.818 11.7785L21.2792 9.83235ZM20.3518 9.41099C20.2389 9.28892 20.1651 9.13186 20.1651 8.86648H18.1651C18.1651 9.57979 18.3929 10.2383 18.8832 10.7687L20.3518 9.41099ZM20.1651 8.86648C20.1651 8.66704 20.2166 8.52197 20.3098 8.3943L18.6944 7.21508C18.3383 7.70293 18.1651 8.26572 18.1651 8.86648H20.1651ZM20.3059 8.39953C20.4199 8.24549 20.5861 8.10593 20.8395 7.99222L20.0205 6.16758C19.4922 6.40473 19.0398 6.74836 18.6983 7.20984L20.3059 8.39953ZM20.8368 7.99342C21.0842 7.88324 21.3886 7.81676 21.7688 7.81676V5.81676C21.1518 5.81676 20.5637 5.92571 20.0232 6.16638L20.8368 7.99342ZM21.7688 7.81676C22.3344 7.81676 22.6433 7.94145 22.8118 8.07103L24.0312 6.48578C23.3995 5.99983 22.6066 5.81676 21.7688 5.81676V7.81676ZM22.8147 8.07328C23.0509 8.25356 23.223 8.48997 23.3321 8.81512L25.2283 8.1792C24.9988 7.49488 24.5984 6.91879 24.0283 6.48353L22.8147 8.07328ZM25.7894 14H24.7894V15H25.7894V14ZM25.7894 6.90909V5.90909H24.7894V6.90909H25.7894ZM26.8789 6.90909H27.8789V5.90909H26.8789V6.90909ZM26.8789 14V15H27.8789V14H26.8789ZM25.794 5.5103L25.1018 6.23202L25.1091 6.23892L25.794 5.5103ZM25.794 4.46697L25.1091 3.73831L25.1018 3.74529L25.794 4.46697ZM26.8881 4.46697L26.1959 5.18869L26.2032 5.1956L26.8881 4.46697ZM26.8881 5.5103L26.2032 4.78163L26.1959 4.78862L26.8881 5.5103ZM26.7894 14V6.90909H24.7894V14H26.7894ZM25.7894 7.90909H26.8789V5.90909H25.7894V7.90909ZM25.8789 6.90909V14H27.8789V6.90909H25.8789ZM26.8789 13H25.7894V15H26.8789V13ZM26.3434 4.72727C26.353 4.72727 26.3798 4.72939 26.4141 4.74294C26.4485 4.75654 26.4705 4.77372 26.479 4.78167L25.1091 6.23892C25.4496 6.55896 25.8781 6.72727 26.3434 6.72727V4.72727ZM26.4863 4.78862C26.4968 4.79875 26.5215 4.82673 26.5418 4.87356C26.5624 4.921 26.5678 4.96329 26.5678 4.98864H24.5678C24.5678 5.4729 24.7608 5.90484 25.1018 6.23198L26.4863 4.78862ZM26.5678 4.98864C26.5678 5.01399 26.5624 5.05627 26.5418 5.10371C26.5215 5.15054 26.4968 5.17852 26.4863 5.18865L25.1018 3.74529C24.7608 4.07243 24.5678 4.50437 24.5678 4.98864H26.5678ZM26.479 5.1956C26.4705 5.20356 26.4485 5.22074 26.4141 5.23433C26.3798 5.24788 26.353 5.25 26.3434 5.25V3.25C25.8781 3.25 25.4496 3.41831 25.1091 3.73835L26.479 5.1956ZM26.3434 5.25C26.3339 5.25 26.3056 5.2479 26.2688 5.23326C26.2318 5.2185 26.2071 5.19933 26.1959 5.18866L27.5804 3.74529C27.24 3.41884 26.8091 3.25 26.3434 3.25V5.25ZM26.2032 5.1956C26.1936 5.18652 26.1681 5.15869 26.1468 5.11051C26.1251 5.06146 26.119 5.01678 26.119 4.98864H28.119C28.119 4.49745 27.919 4.06353 27.5731 3.73835L26.2032 5.1956ZM26.119 4.98864C26.119 4.96049 26.1251 4.91581 26.1468 4.86676C26.1681 4.81858 26.1936 4.79075 26.2032 4.78167L27.5731 6.23893C27.919 5.91374 28.119 5.47983 28.119 4.98864H26.119ZM26.1959 4.78862C26.207 4.77794 26.2318 4.75877 26.2688 4.74401C26.3056 4.72937 26.3339 4.72727 26.3434 4.72727V6.72727C26.8091 6.72727 27.24 6.55844 27.5804 6.23198L26.1959 4.78862ZM29.7777 13.6768L29.2305 14.5138L29.7777 13.6768ZM28.679 8.58487L27.7787 8.1497L27.7776 8.15181L28.679 8.58487ZM29.7962 7.28764L30.3421 8.12547L30.3435 8.12461L29.7962 7.28764ZM33.8079 7.86932L34.6008 7.25996V7.25996L33.8079 7.86932ZM34.2834 9.03267V10.0327H35.4319L35.2739 8.8951L34.2834 9.03267ZM33.1939 9.03267L32.2254 9.28171L32.4185 10.0327H33.1939V9.03267ZM32.64 8.17401L31.9745 8.92057L31.9832 8.92809L32.64 8.17401ZM30.3779 8.12784L30.9454 8.95118L30.9471 8.95003L30.3779 8.12784ZM29.6346 9.05575L28.7214 8.64831L28.7199 8.65159L29.6346 9.05575ZM29.63 11.8857L28.7094 12.2762L28.7119 12.2821L29.63 11.8857ZM30.3686 12.832L29.7904 13.6479L29.7941 13.6505L30.3686 12.832ZM32.266 13.0213L31.8736 12.1015L32.266 13.0213ZM32.8523 12.5966L33.608 13.2515L32.8523 12.5966ZM33.1939 11.9318V10.9318H32.4221L32.2266 11.6785L33.1939 11.9318ZM34.2834 11.9318L35.2728 12.0773L35.4412 10.9318H34.2834V11.9318ZM33.8264 13.0629L33.0167 12.476L33.0157 12.4774L33.8264 13.0629ZM32.8708 13.8569L33.3124 14.7541L33.3152 14.7527L32.8708 13.8569ZM31.4951 13.1477C30.9931 13.1477 30.6178 13.0313 30.325 12.8399L29.2305 14.5138C29.8979 14.9502 30.6675 15.1477 31.4951 15.1477V13.1477ZM30.325 12.8399C30.0097 12.6337 29.7598 12.3484 29.5751 11.9548L27.7645 12.8044C28.0968 13.5126 28.5855 14.0921 29.2305 14.5138L30.325 12.8399ZM29.5751 11.9548C29.3883 11.5568 29.282 11.0763 29.282 10.4915H27.282C27.282 11.3223 27.4342 12.1006 27.7645 12.8044L29.5751 11.9548ZM29.282 10.4915C29.282 9.89469 29.3912 9.41166 29.5804 9.01793L27.7776 8.15181C27.4375 8.85988 27.282 9.64792 27.282 10.4915H29.282ZM29.5794 9.02004C29.7745 8.61635 30.03 8.32888 30.3421 8.12547L29.2503 6.44982C28.6084 6.86809 28.1191 7.44544 27.7787 8.1497L29.5794 9.02004ZM30.3435 8.12461C30.6424 7.92916 31.0075 7.81676 31.4766 7.81676V5.81676C30.6654 5.81676 29.9102 6.01829 29.249 6.45067L30.3435 8.12461ZM31.4766 7.81676C31.8495 7.81676 32.1531 7.8852 32.4056 8.00171L33.2437 6.18579C32.6959 5.93298 32.1008 5.81676 31.4766 5.81676V7.81676ZM32.4056 8.00171C32.6665 8.12213 32.8633 8.28121 33.015 8.47867L34.6008 7.25996C34.2417 6.79265 33.7829 6.43469 33.2437 6.18579L32.4056 8.00171ZM33.015 8.47867C33.1577 8.66432 33.2536 8.88683 33.2929 9.17024L35.2739 8.8951C35.1902 8.29215 34.969 7.73909 34.6008 7.25996L33.015 8.47867ZM34.2834 8.03267H33.1939V10.0327H34.2834V8.03267ZM34.1624 8.78363C34.0222 8.2383 33.7138 7.78322 33.2967 7.41992L31.9832 8.92809C32.1385 9.06338 32.1995 9.18073 32.2254 9.28171L34.1624 8.78363ZM33.3053 7.42749C32.7942 6.97195 32.1531 6.79545 31.4951 6.79545V8.79545C31.7972 8.79545 31.9194 8.87132 31.9746 8.92052L33.3053 7.42749ZM31.4951 6.79545C30.8863 6.79545 30.3113 6.95771 29.8087 7.30565L30.9471 8.95003C31.0847 8.85479 31.2544 8.79545 31.4951 8.79545V6.79545ZM29.8103 7.3045C29.3221 7.64104 28.9642 8.10411 28.7214 8.64831L30.5479 9.46319C30.6621 9.2072 30.7997 9.05166 30.9454 8.95118L29.8103 7.3045ZM28.7199 8.65159C28.4767 9.20201 28.3715 9.81151 28.3715 10.4545H30.3715C30.3715 10.0266 30.4417 9.70353 30.5493 9.45992L28.7199 8.65159ZM28.3715 10.4545C28.3715 11.1052 28.4737 11.7205 28.7094 12.2762L30.5506 11.4951C30.4417 11.2383 30.3715 10.8996 30.3715 10.4545H28.3715ZM28.7119 12.2821C28.9497 12.8328 29.3039 13.3031 29.7904 13.6479L30.9469 12.0162C30.7994 11.9116 30.6611 11.751 30.5481 11.4892L28.7119 12.2821ZM29.7941 13.6505C30.2996 14.0053 30.8805 14.169 31.4951 14.169V12.169C31.2479 12.169 31.0779 12.1081 30.9432 12.0135L29.7941 13.6505ZM31.4951 14.169C31.8958 14.169 32.2886 14.0989 32.6585 13.9411L31.8736 12.1015C31.7818 12.1407 31.6606 12.169 31.4951 12.169V14.169ZM32.6585 13.9411C33.025 13.7847 33.3458 13.554 33.608 13.2515L32.0966 11.9417C32.0387 12.0085 31.9687 12.061 31.8736 12.1015L32.6585 13.9411ZM33.608 13.2515C33.8776 12.9405 34.0584 12.5779 34.1613 12.1852L32.2266 11.6785C32.194 11.8028 32.1471 11.8834 32.0966 11.9417L33.608 13.2515ZM33.1939 12.9318H34.2834V10.9318H33.1939V12.9318ZM33.2941 11.7863C33.2554 12.0489 33.1632 12.2739 33.0167 12.476L34.6361 13.6497C34.9759 13.1809 35.1883 12.6518 35.2728 12.0773L33.2941 11.7863ZM33.0157 12.4774C32.8783 12.6676 32.69 12.8303 32.4263 12.9611L33.3152 14.7527C33.8456 14.4895 34.2944 14.1229 34.6371 13.6483L33.0157 12.4774ZM32.4292 12.9597C32.1965 13.0742 31.8942 13.1477 31.4951 13.1477V15.1477C32.1423 15.1477 32.7571 15.0274 33.3124 14.7541L32.4292 12.9597Z" fill="black" mask="url(#path-1-outside-1_413_1087)"/>
</g>
<defs>
<filter id="filter0_d_413_1087" x="0.144775" y="0.25" width="38.1387" height="17.9163" filterUnits="userSpaceOnUse" color-interpolation-filters="sRGB">
<feFlood flood-opacity="0" result="BackgroundImageFix"/>
<feColorMatrix in="SourceAlpha" type="matrix" values="0 0 0 0 0 0 0 0 0 0 0 0 0 0 0 0 0 0 127 0" result="hardAlpha"/>
<feOffset/>
<feGaussianBlur stdDeviation="2"/>
<feComposite in2="hardAlpha" operator="out"/>
<feColorMatrix type="matrix" values="0 0 0 0 0 0 0 0 0 0 0 0 0 0 0 0 0 0 0.7 0"/>
<feBlend mode="normal" in2="BackgroundImageFix" result="effect1_dropShadow_413_1087"/>
<feBlend mode="normal" in="SourceGraphic" in2="effect1_dropShadow_413_1087" result="shape"/>
</filter>
</defs>
</svg>
