<svg width="34" height="11" viewBox="0 0 34 11" fill="none" xmlns="http://www.w3.org/2000/svg">
<mask id="path-1-outside-1_413_1089" maskUnits="userSpaceOnUse" x="-1" y="-1" width="36" height="13" fill="black">
<rect fill="white" x="-1" y="-1" width="36" height="13"/>
<path d="M0.821733 10V0.545454H4.60724C5.30279 0.545454 5.88293 0.648556 6.34766 0.854758C6.81238 1.06096 7.1617 1.34718 7.3956 1.71342C7.6295 2.07659 7.74645 2.49515 7.74645 2.96911C7.74645 3.33842 7.67259 3.66312 7.52486 3.94318C7.37713 4.22017 7.17401 4.44792 6.91548 4.62642C6.66004 4.80185 6.36766 4.92649 6.03835 5.00035V5.09268C6.39844 5.10807 6.73544 5.20964 7.04936 5.39737C7.36636 5.58511 7.62334 5.84825 7.82031 6.18679C8.01728 6.52225 8.11577 6.92235 8.11577 7.38707C8.11577 7.88873 7.99112 8.33653 7.74183 8.73047C7.49562 9.12133 7.13092 9.43063 6.64773 9.65838C6.16454 9.88613 5.56901 10 4.86115 10H0.821733ZM2.82067 8.36577H4.45028C5.00734 8.36577 5.41359 8.25959 5.66903 8.04723C5.92448 7.83179 6.0522 7.54557 6.0522 7.18857C6.0522 6.92696 5.98911 6.69614 5.86293 6.49609C5.73674 6.29605 5.5567 6.13909 5.3228 6.02521C5.09197 5.91134 4.81652 5.8544 4.49645 5.8544H2.82067V8.36577ZM2.82067 4.50178H4.30256C4.57647 4.50178 4.8196 4.45407 5.03196 4.35866C5.2474 4.26018 5.41667 4.12169 5.53977 3.94318C5.66596 3.76468 5.72905 3.55078 5.72905 3.30149C5.72905 2.95987 5.60748 2.68442 5.36435 2.47514C5.12429 2.26586 4.78267 2.16122 4.33949 2.16122H2.82067V4.50178ZM11.1415 10.1339C10.6891 10.1339 10.286 10.0554 9.93203 9.89844C9.5781 9.7384 9.29803 9.50296 9.09183 9.19212C8.8887 8.8782 8.78714 8.48733 8.78714 8.01953C8.78714 7.62559 8.85947 7.29474 9.00412 7.02699C9.14877 6.75923 9.34573 6.5438 9.59502 6.38068C9.84431 6.21757 10.1275 6.09446 10.4445 6.01136C10.7645 5.92827 11.1 5.86979 11.4508 5.83594C11.8633 5.79285 12.1956 5.75284 12.448 5.71591C12.7004 5.6759 12.8835 5.61742 12.9974 5.54048C13.1112 5.46354 13.1682 5.34967 13.1682 5.19886V5.17116C13.1682 4.87879 13.0758 4.65258 12.8912 4.49254C12.7096 4.3325 12.4511 4.25249 12.1156 4.25249C11.7617 4.25249 11.4801 4.33097 11.2708 4.48793C11.0615 4.64181 10.923 4.8357 10.8553 5.0696L9.03643 4.92188C9.12876 4.491 9.31034 4.11861 9.58118 3.80469C9.85201 3.48769 10.2013 3.24455 10.6291 3.07528C11.06 2.90294 11.5586 2.81676 12.1249 2.81676C12.5188 2.81676 12.8958 2.86293 13.2559 2.95526C13.6191 3.04759 13.9407 3.1907 14.2207 3.38459C14.5039 3.57848 14.727 3.82777 14.8901 4.13246C15.0532 4.43407 15.1348 4.79569 15.1348 5.21733V10H13.2697V9.01669H13.2143C13.1005 9.23828 12.9481 9.43371 12.7573 9.60298C12.5665 9.76918 12.3372 9.89998 12.0695 9.99538C11.8017 10.0877 11.4924 10.1339 11.1415 10.1339ZM11.7048 8.77663C11.9941 8.77663 12.2495 8.7197 12.4711 8.60582C12.6927 8.48887 12.8666 8.33191 12.9928 8.13494C13.1189 7.93797 13.182 7.71484 13.182 7.46555V6.71307C13.1205 6.75308 13.0358 6.79001 12.9281 6.82386C12.8235 6.85464 12.705 6.88388 12.5727 6.91158C12.4403 6.9362 12.308 6.95928 12.1756 6.98082C12.0433 6.99929 11.9233 7.01622 11.8156 7.0316C11.5847 7.06546 11.3831 7.11932 11.2108 7.19318C11.0384 7.26705 10.9046 7.36707 10.8092 7.49325C10.7138 7.61636 10.666 7.77024 10.666 7.9549C10.666 8.22266 10.763 8.42732 10.9569 8.56889C11.1539 8.70739 11.4031 8.77663 11.7048 8.77663ZM22.3004 4.93111L20.5 5.0419C20.4692 4.88802 20.403 4.74953 20.3015 4.62642C20.1999 4.50024 20.066 4.40021 19.8998 4.32635C19.7367 4.24941 19.5413 4.21094 19.3135 4.21094C19.0089 4.21094 18.7519 4.27557 18.5426 4.40483C18.3333 4.53101 18.2287 4.70028 18.2287 4.91264C18.2287 5.08191 18.2964 5.22502 18.4318 5.34197C18.5672 5.45893 18.7996 5.55279 19.1289 5.62358L20.4123 5.8821C21.1017 6.02367 21.6156 6.25142 21.9542 6.56534C22.2927 6.87926 22.462 7.29167 22.462 7.80256C22.462 8.26728 22.325 8.67507 22.0511 9.02592C21.7803 9.37678 21.4079 9.65069 20.9339 9.84766C20.463 10.0415 19.9198 10.1385 19.3043 10.1385C18.3656 10.1385 17.6178 9.94306 17.0607 9.5522C16.5067 9.15826 16.182 8.62275 16.0866 7.94567L18.0209 7.8441C18.0794 8.13033 18.221 8.34884 18.4456 8.49964C18.6703 8.64737 18.9581 8.72124 19.3089 8.72124C19.6536 8.72124 19.9306 8.65507 20.1399 8.52273C20.3522 8.38731 20.46 8.21342 20.463 8.00107C20.46 7.82256 20.3846 7.67637 20.2368 7.5625C20.0891 7.44555 19.8614 7.3563 19.5536 7.29474L18.3256 7.05007C17.6331 6.91158 17.1176 6.67152 16.7791 6.3299C16.4436 5.98828 16.2759 5.55279 16.2759 5.02344C16.2759 4.56794 16.399 4.17554 16.6452 3.84624C16.8945 3.51693 17.2438 3.26302 17.6932 3.08452C18.1456 2.90601 18.6749 2.81676 19.2812 2.81676C20.1768 2.81676 20.8816 3.00604 21.3956 3.38459C21.9126 3.76314 22.2142 4.27865 22.3004 4.93111ZM23.4403 10V2.90909H25.407V10H23.4403ZM24.4283 1.99503C24.1359 1.99503 23.8851 1.89808 23.6758 1.70419C23.4696 1.50722 23.3665 1.27178 23.3665 0.997869C23.3665 0.727036 23.4696 0.494673 23.6758 0.300781C23.8851 0.103811 24.1359 0.00532621 24.4283 0.00532621C24.7207 0.00532621 24.9699 0.103811 25.1761 0.300781C25.3854 0.494673 25.4901 0.727036 25.4901 0.997869C25.4901 1.27178 25.3854 1.50722 25.1761 1.70419C24.9699 1.89808 24.7207 1.99503 24.4283 1.99503ZM29.9262 10.1385C29.1998 10.1385 28.5751 9.98461 28.0519 9.67685C27.5318 9.366 27.1317 8.93513 26.8516 8.38423C26.5746 7.83333 26.4361 7.19934 26.4361 6.48224C26.4361 5.75592 26.5762 5.11884 26.8562 4.57102C27.1394 4.02012 27.541 3.59079 28.0611 3.28303C28.5812 2.97218 29.1998 2.81676 29.9169 2.81676C30.5355 2.81676 31.0772 2.9291 31.5419 3.15376C32.0067 3.37843 32.3744 3.69389 32.6453 4.10014C32.9161 4.50639 33.0654 4.98343 33.0931 5.53125H31.2373C31.1849 5.17732 31.0464 4.89264 30.8218 4.6772C30.6002 4.45869 30.3093 4.34943 29.9493 4.34943C29.6446 4.34943 29.3784 4.43253 29.1506 4.59872C28.9259 4.76184 28.7505 5.00036 28.6243 5.31428C28.4981 5.6282 28.4351 6.00829 28.4351 6.45455C28.4351 6.90696 28.4966 7.29167 28.6197 7.60866C28.7459 7.92566 28.9229 8.16726 29.1506 8.33345C29.3784 8.49964 29.6446 8.58274 29.9493 8.58274C30.1739 8.58274 30.3755 8.53658 30.554 8.44425C30.7356 8.35192 30.8849 8.21804 31.0018 8.04261C31.1218 7.86411 31.2003 7.65021 31.2373 7.40092H33.0931C33.0623 7.94259 32.9146 8.41963 32.6499 8.83203C32.3883 9.24136 32.0267 9.56143 31.565 9.79226C31.1034 10.0231 30.5571 10.1385 29.9262 10.1385Z"/>
</mask>
<path d="M0.821733 10V0.545454H4.60724C5.30279 0.545454 5.88293 0.648556 6.34766 0.854758C6.81238 1.06096 7.1617 1.34718 7.3956 1.71342C7.6295 2.07659 7.74645 2.49515 7.74645 2.96911C7.74645 3.33842 7.67259 3.66312 7.52486 3.94318C7.37713 4.22017 7.17401 4.44792 6.91548 4.62642C6.66004 4.80185 6.36766 4.92649 6.03835 5.00035V5.09268C6.39844 5.10807 6.73544 5.20964 7.04936 5.39737C7.36636 5.58511 7.62334 5.84825 7.82031 6.18679C8.01728 6.52225 8.11577 6.92235 8.11577 7.38707C8.11577 7.88873 7.99112 8.33653 7.74183 8.73047C7.49562 9.12133 7.13092 9.43063 6.64773 9.65838C6.16454 9.88613 5.56901 10 4.86115 10H0.821733ZM2.82067 8.36577H4.45028C5.00734 8.36577 5.41359 8.25959 5.66903 8.04723C5.92448 7.83179 6.0522 7.54557 6.0522 7.18857C6.0522 6.92696 5.98911 6.69614 5.86293 6.49609C5.73674 6.29605 5.5567 6.13909 5.3228 6.02521C5.09197 5.91134 4.81652 5.8544 4.49645 5.8544H2.82067V8.36577ZM2.82067 4.50178H4.30256C4.57647 4.50178 4.8196 4.45407 5.03196 4.35866C5.2474 4.26018 5.41667 4.12169 5.53977 3.94318C5.66596 3.76468 5.72905 3.55078 5.72905 3.30149C5.72905 2.95987 5.60748 2.68442 5.36435 2.47514C5.12429 2.26586 4.78267 2.16122 4.33949 2.16122H2.82067V4.50178ZM11.1415 10.1339C10.6891 10.1339 10.286 10.0554 9.93203 9.89844C9.5781 9.7384 9.29803 9.50296 9.09183 9.19212C8.8887 8.8782 8.78714 8.48733 8.78714 8.01953C8.78714 7.62559 8.85947 7.29474 9.00412 7.02699C9.14877 6.75923 9.34573 6.5438 9.59502 6.38068C9.84431 6.21757 10.1275 6.09446 10.4445 6.01136C10.7645 5.92827 11.1 5.86979 11.4508 5.83594C11.8633 5.79285 12.1956 5.75284 12.448 5.71591C12.7004 5.6759 12.8835 5.61742 12.9974 5.54048C13.1112 5.46354 13.1682 5.34967 13.1682 5.19886V5.17116C13.1682 4.87879 13.0758 4.65258 12.8912 4.49254C12.7096 4.3325 12.4511 4.25249 12.1156 4.25249C11.7617 4.25249 11.4801 4.33097 11.2708 4.48793C11.0615 4.64181 10.923 4.8357 10.8553 5.0696L9.03643 4.92188C9.12876 4.491 9.31034 4.11861 9.58118 3.80469C9.85201 3.48769 10.2013 3.24455 10.6291 3.07528C11.06 2.90294 11.5586 2.81676 12.1249 2.81676C12.5188 2.81676 12.8958 2.86293 13.2559 2.95526C13.6191 3.04759 13.9407 3.1907 14.2207 3.38459C14.5039 3.57848 14.727 3.82777 14.8901 4.13246C15.0532 4.43407 15.1348 4.79569 15.1348 5.21733V10H13.2697V9.01669H13.2143C13.1005 9.23828 12.9481 9.43371 12.7573 9.60298C12.5665 9.76918 12.3372 9.89998 12.0695 9.99538C11.8017 10.0877 11.4924 10.1339 11.1415 10.1339ZM11.7048 8.77663C11.9941 8.77663 12.2495 8.7197 12.4711 8.60582C12.6927 8.48887 12.8666 8.33191 12.9928 8.13494C13.1189 7.93797 13.182 7.71484 13.182 7.46555V6.71307C13.1205 6.75308 13.0358 6.79001 12.9281 6.82386C12.8235 6.85464 12.705 6.88388 12.5727 6.91158C12.4403 6.9362 12.308 6.95928 12.1756 6.98082C12.0433 6.99929 11.9233 7.01622 11.8156 7.0316C11.5847 7.06546 11.3831 7.11932 11.2108 7.19318C11.0384 7.26705 10.9046 7.36707 10.8092 7.49325C10.7138 7.61636 10.666 7.77024 10.666 7.9549C10.666 8.22266 10.763 8.42732 10.9569 8.56889C11.1539 8.70739 11.4031 8.77663 11.7048 8.77663ZM22.3004 4.93111L20.5 5.0419C20.4692 4.88802 20.403 4.74953 20.3015 4.62642C20.1999 4.50024 20.066 4.40021 19.8998 4.32635C19.7367 4.24941 19.5413 4.21094 19.3135 4.21094C19.0089 4.21094 18.7519 4.27557 18.5426 4.40483C18.3333 4.53101 18.2287 4.70028 18.2287 4.91264C18.2287 5.08191 18.2964 5.22502 18.4318 5.34197C18.5672 5.45893 18.7996 5.55279 19.1289 5.62358L20.4123 5.8821C21.1017 6.02367 21.6156 6.25142 21.9542 6.56534C22.2927 6.87926 22.462 7.29167 22.462 7.80256C22.462 8.26728 22.325 8.67507 22.0511 9.02592C21.7803 9.37678 21.4079 9.65069 20.9339 9.84766C20.463 10.0415 19.9198 10.1385 19.3043 10.1385C18.3656 10.1385 17.6178 9.94306 17.0607 9.5522C16.5067 9.15826 16.182 8.62275 16.0866 7.94567L18.0209 7.8441C18.0794 8.13033 18.221 8.34884 18.4456 8.49964C18.6703 8.64737 18.9581 8.72124 19.3089 8.72124C19.6536 8.72124 19.9306 8.65507 20.1399 8.52273C20.3522 8.38731 20.46 8.21342 20.463 8.00107C20.46 7.82256 20.3846 7.67637 20.2368 7.5625C20.0891 7.44555 19.8614 7.3563 19.5536 7.29474L18.3256 7.05007C17.6331 6.91158 17.1176 6.67152 16.7791 6.3299C16.4436 5.98828 16.2759 5.55279 16.2759 5.02344C16.2759 4.56794 16.399 4.17554 16.6452 3.84624C16.8945 3.51693 17.2438 3.26302 17.6932 3.08452C18.1456 2.90601 18.6749 2.81676 19.2812 2.81676C20.1768 2.81676 20.8816 3.00604 21.3956 3.38459C21.9126 3.76314 22.2142 4.27865 22.3004 4.93111ZM23.4403 10V2.90909H25.407V10H23.4403ZM24.4283 1.99503C24.1359 1.99503 23.8851 1.89808 23.6758 1.70419C23.4696 1.50722 23.3665 1.27178 23.3665 0.997869C23.3665 0.727036 23.4696 0.494673 23.6758 0.300781C23.8851 0.103811 24.1359 0.00532621 24.4283 0.00532621C24.7207 0.00532621 24.9699 0.103811 25.1761 0.300781C25.3854 0.494673 25.4901 0.727036 25.4901 0.997869C25.4901 1.27178 25.3854 1.50722 25.1761 1.70419C24.9699 1.89808 24.7207 1.99503 24.4283 1.99503ZM29.9262 10.1385C29.1998 10.1385 28.5751 9.98461 28.0519 9.67685C27.5318 9.366 27.1317 8.93513 26.8516 8.38423C26.5746 7.83333 26.4361 7.19934 26.4361 6.48224C26.4361 5.75592 26.5762 5.11884 26.8562 4.57102C27.1394 4.02012 27.541 3.59079 28.0611 3.28303C28.5812 2.97218 29.1998 2.81676 29.9169 2.81676C30.5355 2.81676 31.0772 2.9291 31.5419 3.15376C32.0067 3.37843 32.3744 3.69389 32.6453 4.10014C32.9161 4.50639 33.0654 4.98343 33.0931 5.53125H31.2373C31.1849 5.17732 31.0464 4.89264 30.8218 4.6772C30.6002 4.45869 30.3093 4.34943 29.9493 4.34943C29.6446 4.34943 29.3784 4.43253 29.1506 4.59872C28.9259 4.76184 28.7505 5.00036 28.6243 5.31428C28.4981 5.6282 28.4351 6.00829 28.4351 6.45455C28.4351 6.90696 28.4966 7.29167 28.6197 7.60866C28.7459 7.92566 28.9229 8.16726 29.1506 8.33345C29.3784 8.49964 29.6446 8.58274 29.9493 8.58274C30.1739 8.58274 30.3755 8.53658 30.554 8.44425C30.7356 8.35192 30.8849 8.21804 31.0018 8.04261C31.1218 7.86411 31.2003 7.65021 31.2373 7.40092H33.0931C33.0623 7.94259 32.9146 8.41963 32.6499 8.83203C32.3883 9.24136 32.0267 9.56143 31.565 9.79226C31.1034 10.0231 30.5571 10.1385 29.9262 10.1385Z" fill="#C9C9C9"/>
<path d="M0.821733 10H-0.178267V11H0.821733V10ZM0.821733 0.545454V-0.454546H-0.178267V0.545454H0.821733ZM6.34766 0.854758L5.94208 1.76882L6.34766 0.854758ZM7.3956 1.71342L6.5528 2.25168L6.55488 2.2549L7.3956 1.71342ZM7.52486 3.94318L8.40722 4.41377L8.40935 4.40973L7.52486 3.94318ZM6.91548 4.62642L7.48159 5.45076L7.48367 5.44932L6.91548 4.62642ZM6.03835 5.00035L5.81949 4.0246L5.03835 4.19981V5.00035H6.03835ZM6.03835 5.09268H5.03835V6.05086L5.99566 6.09177L6.03835 5.09268ZM7.04936 5.39737L6.5361 6.25561L6.53979 6.2578L7.04936 5.39737ZM7.82031 6.18679L6.95596 6.68969L6.95797 6.69312L7.82031 6.18679ZM7.74183 8.73047L6.89681 8.19573L6.89571 8.19748L7.74183 8.73047ZM6.64773 9.65838L6.22138 8.75382H6.22137L6.64773 9.65838ZM2.82067 8.36577H1.82067V9.36577H2.82067V8.36577ZM5.66903 8.04723L6.30832 8.81623L6.31374 8.81166L5.66903 8.04723ZM5.86293 6.49609L5.01713 7.0296V7.0296L5.86293 6.49609ZM5.3228 6.02521L4.88037 6.92203L4.88507 6.92432L5.3228 6.02521ZM2.82067 5.8544V4.8544H1.82067V5.8544H2.82067ZM2.82067 4.50178H1.82067V5.50178H2.82067V4.50178ZM5.03196 4.35866L5.44178 5.27085L5.44772 5.26814L5.03196 4.35866ZM5.53977 3.94318L4.72314 3.36591L4.71656 3.37545L5.53977 3.94318ZM5.36435 2.47514L4.7072 3.22893L4.71198 3.23304L5.36435 2.47514ZM2.82067 2.16122V1.16122H1.82067V2.16122H2.82067ZM1.82173 10V0.545454H-0.178267V10H1.82173ZM0.821733 1.54545H4.60724V-0.454546H0.821733V1.54545ZM4.60724 1.54545C5.21143 1.54545 5.64288 1.63606 5.94208 1.76882L6.75323 -0.0593026C6.12298 -0.338951 5.39416 -0.454546 4.60724 -0.454546V1.54545ZM5.94208 1.76882C6.25851 1.90922 6.44157 2.07749 6.55281 2.25167L8.23838 1.17517C7.88182 0.616877 7.36625 0.212699 6.75323 -0.0593026L5.94208 1.76882ZM6.55488 2.2549C6.67477 2.44105 6.74645 2.6678 6.74645 2.96911H8.74645C8.74645 2.32249 8.58422 1.71212 8.23631 1.17195L6.55488 2.2549ZM6.74645 2.96911C6.74645 3.20294 6.70052 3.36259 6.64036 3.47663L8.40935 4.40973C8.64465 3.96364 8.74645 3.4739 8.74645 2.96911H6.74645ZM6.64251 3.47259C6.56994 3.60865 6.47459 3.71563 6.34729 3.80352L7.48367 5.44932C7.87343 5.1802 8.18432 4.8317 8.40721 4.41377L6.64251 3.47259ZM6.34938 3.80209C6.20799 3.89919 6.03559 3.97613 5.81949 4.0246L6.25721 5.97611C6.69973 5.87685 7.11209 5.70451 7.48159 5.45075L6.34938 3.80209ZM5.03835 5.00035V5.09268H7.03835V5.00035H5.03835ZM5.99566 6.09177C6.18706 6.09995 6.36267 6.15189 6.5361 6.25561L7.56262 4.53914C7.10821 4.26738 6.60982 4.11619 6.08105 4.0936L5.99566 6.09177ZM6.53979 6.2578C6.70067 6.35308 6.83921 6.48901 6.95596 6.68968L8.68466 5.6839C8.40748 5.20748 8.03205 4.81714 7.55894 4.53694L6.53979 6.2578ZM6.95797 6.69312C7.04869 6.84762 7.11577 7.06559 7.11577 7.38707H9.11577C9.11577 6.77911 8.98588 6.19689 8.68265 5.68046L6.95797 6.69312ZM7.11577 7.38707C7.11577 7.71442 7.03713 7.974 6.89681 8.19573L8.58685 9.26521C8.94512 8.69906 9.11577 8.06304 9.11577 7.38707H7.11577ZM6.89571 8.19748C6.76624 8.40302 6.55964 8.59439 6.22138 8.75382L7.07408 10.5629C7.7022 10.2669 8.225 9.83964 8.58795 9.26346L6.89571 8.19748ZM6.22137 8.75382C5.9075 8.90177 5.46734 9 4.86115 9V11C5.67069 11 6.42158 10.8705 7.07408 10.5629L6.22137 8.75382ZM4.86115 9H0.821733V11H4.86115V9ZM2.82067 9.36577H4.45028V7.36577H2.82067V9.36577ZM4.45028 9.36577C5.09557 9.36577 5.78659 9.24993 6.30831 8.81621L5.02976 7.27825C5.0404 7.26941 5.01751 7.29312 4.91989 7.31863C4.82114 7.34444 4.66944 7.36577 4.45028 7.36577V9.36577ZM6.31374 8.81166C6.81145 8.3919 7.0522 7.81733 7.0522 7.18857H5.0522C5.0522 7.21815 5.04957 7.2374 5.0474 7.24829C5.04531 7.25885 5.04335 7.26316 5.04321 7.26348C5.04312 7.26367 5.04309 7.26391 5.04197 7.26538C5.0407 7.26704 5.03586 7.27307 5.02433 7.2828L6.31374 8.81166ZM7.0522 7.18857C7.0522 6.75884 6.94615 6.339 6.70872 5.96259L5.01713 7.0296C5.03207 7.05328 5.0522 7.09509 5.0522 7.18857H7.0522ZM6.70872 5.96259C6.47342 5.58955 6.14454 5.31306 5.76052 5.1261L4.88507 6.92432C4.96886 6.96511 5.00006 7.00254 5.01713 7.0296L6.70872 5.96259ZM5.76522 5.12841C5.3674 4.93215 4.93342 4.8544 4.49645 4.8544V6.8544C4.69963 6.8544 4.81655 6.89053 4.88037 6.92202L5.76522 5.12841ZM4.49645 4.8544H2.82067V6.8544H4.49645V4.8544ZM1.82067 5.8544V8.36577H3.82067V5.8544H1.82067ZM2.82067 5.50178H4.30256V3.50178H2.82067V5.50178ZM4.30256 5.50178C4.69308 5.50178 5.07981 5.43346 5.44178 5.27083L4.62215 3.4465C4.5594 3.47469 4.45986 3.50178 4.30256 3.50178V5.50178ZM5.44772 5.26814C5.81167 5.10176 6.12804 4.85158 6.36299 4.51091L4.71656 3.37545C4.70529 3.39179 4.68313 3.4186 4.6162 3.44919L5.44772 5.26814ZM6.35635 4.52042C6.61815 4.15006 6.72905 3.72742 6.72905 3.30149H4.72905C4.72905 3.34149 4.72406 3.36098 4.72258 3.36597C4.72145 3.36981 4.72165 3.36813 4.7232 3.36595L6.35635 4.52042ZM6.72905 3.30149C6.72905 2.69015 6.49632 2.13007 6.01672 1.71724L4.71198 3.23304C4.72149 3.24123 4.72478 3.24567 4.72482 3.24573C4.72494 3.24589 4.72465 3.24551 4.72416 3.24468C4.72367 3.24384 4.72327 3.24304 4.72301 3.24246C4.72232 3.24089 4.72355 3.24302 4.72511 3.25098C4.72674 3.25925 4.72905 3.27545 4.72905 3.30149H6.72905ZM6.02148 1.72137C5.53897 1.30072 4.92995 1.16122 4.33949 1.16122V3.16122C4.48464 3.16122 4.57891 3.17861 4.63521 3.19585C4.68814 3.21206 4.70526 3.22721 4.70721 3.22891L6.02148 1.72137ZM4.33949 1.16122H2.82067V3.16122H4.33949V1.16122ZM1.82067 2.16122V4.50178H3.82067V2.16122H1.82067ZM9.93203 9.89844L9.52001 10.8096L9.52663 10.8126L9.93203 9.89844ZM9.09183 9.19212L8.2522 9.7354L8.25851 9.74491L9.09183 9.19212ZM9.00412 7.02699L8.1243 6.55168L9.00412 7.02699ZM9.59503 6.38068L9.0475 5.54389V5.54389L9.59503 6.38068ZM10.4445 6.01136L10.1932 5.04345L10.1909 5.04405L10.4445 6.01136ZM11.4508 5.83594L11.5469 6.83135L11.5548 6.83052L11.4508 5.83594ZM12.448 5.71591L12.5928 6.70544L12.6046 6.70357L12.448 5.71591ZM12.9974 5.54048L12.4375 4.71189L12.4375 4.71189L12.9974 5.54048ZM12.8912 4.49254L12.23 5.24278L12.2363 5.24823L12.8912 4.49254ZM11.2708 4.48793L11.8632 5.29361L11.8708 5.28793L11.2708 4.48793ZM10.8553 5.0696L10.7744 6.06632L11.5887 6.13246L11.8159 5.34766L10.8553 5.0696ZM9.03643 4.92188L8.05863 4.71235L7.81991 5.82636L8.95548 5.91859L9.03643 4.92188ZM9.58117 3.80469L10.3383 4.45793L10.3415 4.45426L9.58117 3.80469ZM10.6291 3.07528L10.997 4.00514L11.0005 4.00376L10.6291 3.07528ZM13.2559 2.95526L13.0075 3.92392L13.0095 3.92442L13.2559 2.95526ZM14.2207 3.38459L13.6515 4.20679L13.6557 4.20967L14.2207 3.38459ZM14.8901 4.13246L14.0085 4.60444L14.0105 4.60816L14.8901 4.13246ZM15.1348 10V11H16.1348V10H15.1348ZM13.2697 10H12.2697V11H13.2697V10ZM13.2697 9.01669H14.2697V8.01669H13.2697V9.01669ZM13.2143 9.01669V8.01669H12.6039L12.3249 8.55962L13.2143 9.01669ZM12.7573 9.60298L13.4141 10.3571L13.4209 10.3511L12.7573 9.60298ZM12.0695 9.99538L12.3955 10.9408L12.4051 10.9374L12.0695 9.99538ZM12.4711 8.60582L12.9282 9.49531L12.9378 9.49021L12.4711 8.60582ZM12.9928 8.13494L12.1507 7.59552V7.59552L12.9928 8.13494ZM13.182 6.71307H14.182V4.87039L12.637 5.87462L13.182 6.71307ZM12.9281 6.82386L13.2103 7.78323L13.2191 7.78062L13.2279 7.77786L12.9281 6.82386ZM12.5727 6.91158L12.7556 7.89471L12.7666 7.89266L12.7775 7.89037L12.5727 6.91158ZM12.1756 6.98082L12.3138 7.97123L12.3251 7.96966L12.3363 7.96783L12.1756 6.98082ZM11.8155 7.0316L11.6741 6.04165L11.6704 6.04219L11.8155 7.0316ZM11.2108 7.19318L11.6047 8.11233H11.6047L11.2108 7.19318ZM10.8092 7.49325L11.5996 8.10587L11.6068 8.09636L10.8092 7.49325ZM10.9569 8.56889L10.3672 9.37652L10.3744 9.38178L10.3817 9.38692L10.9569 8.56889ZM11.1415 9.13388C10.8055 9.13388 10.544 9.07591 10.3374 8.9843L9.52663 10.8126C10.0279 11.0349 10.5728 11.1339 11.1415 11.1339V9.13388ZM10.344 8.98726C10.154 8.90133 10.023 8.7868 9.92515 8.63932L8.25851 9.74491C8.57308 10.2191 9.00219 10.5755 9.52002 10.8096L10.344 8.98726ZM9.9314 8.64886C9.85647 8.53307 9.78714 8.3429 9.78714 8.01953H7.78714C7.78714 8.63177 7.92093 9.22332 8.25226 9.73537L9.9314 8.64886ZM9.78714 8.01953C9.78714 7.74408 9.83801 7.58732 9.88394 7.50229L8.1243 6.55168C7.88093 7.00217 7.78714 7.5071 7.78714 8.01953H9.78714ZM9.88394 7.50229C9.95136 7.37749 10.0354 7.28756 10.1426 7.21747L9.0475 5.54389C8.65603 5.80004 8.34617 6.14097 8.1243 6.55168L9.88394 7.50229ZM10.1426 7.21747C10.293 7.11904 10.475 7.03714 10.698 6.97868L10.1909 5.04405C9.77988 5.15178 9.39565 5.31609 9.0475 5.54389L10.1426 7.21747ZM10.6957 6.97928C10.9617 6.91024 11.245 6.86044 11.5469 6.83131L11.3548 4.84056C10.955 4.87914 10.5674 4.94629 10.1932 5.04345L10.6957 6.97928ZM11.5548 6.83052C11.9735 6.78677 12.3211 6.74513 12.5928 6.70537L12.3032 4.72645C12.0701 4.76056 11.753 4.79893 11.3469 4.84135L11.5548 6.83052ZM12.6046 6.70357C12.8981 6.65704 13.2581 6.57116 13.5572 6.36907L12.4375 4.71189C12.4626 4.69493 12.4798 4.68681 12.4841 4.68484C12.4887 4.68277 12.4849 4.6848 12.4704 4.68944C12.4398 4.6992 12.3828 4.71376 12.2914 4.72824L12.6046 6.70357ZM13.5572 6.36907C13.9764 6.08583 14.1682 5.64376 14.1682 5.19886H12.1682C12.1682 5.14748 12.1784 5.05547 12.231 4.95016C12.2855 4.84121 12.3637 4.76179 12.4375 4.71189L13.5572 6.36907ZM14.1682 5.19886V5.17116H12.1682V5.19886H14.1682ZM14.1682 5.17116C14.1682 4.65127 13.9931 4.12426 13.5461 3.73685L12.2363 5.24823C12.2249 5.23842 12.212 5.22486 12.1997 5.20775C12.1875 5.19064 12.1788 5.17402 12.1731 5.16012C12.1617 5.13215 12.1682 5.12962 12.1682 5.17116H14.1682ZM13.5524 3.74233C13.1282 3.36848 12.6006 3.25249 12.1156 3.25249V5.25249C12.2061 5.25249 12.2517 5.26352 12.2654 5.26779C12.2757 5.27097 12.2571 5.26661 12.23 5.24275L13.5524 3.74233ZM12.1156 3.25249C11.6208 3.25249 11.1051 3.36219 10.6708 3.68793L11.8708 5.28793C11.8551 5.29974 11.9026 5.25249 12.1156 5.25249V3.25249ZM10.6784 3.68228C10.3043 3.95736 10.028 4.33142 9.89476 4.79154L11.8159 5.34766C11.819 5.33692 11.8216 5.33288 11.8237 5.33C11.8262 5.32649 11.8361 5.31351 11.8632 5.29358L10.6784 3.68228ZM10.9363 4.07288L9.11738 3.92516L8.95548 5.91859L10.7744 6.06632L10.9363 4.07288ZM10.0142 5.1314C10.0737 4.85396 10.184 4.6368 10.3383 4.45792L8.82402 3.15145C8.43668 3.60041 8.18384 4.12805 8.05863 4.71235L10.0142 5.1314ZM10.3415 4.45426C10.4957 4.27374 10.705 4.12071 10.997 4.00514L10.2612 2.14543C9.69769 2.3684 9.20831 2.70164 8.82088 3.15511L10.3415 4.45426ZM11.0005 4.00376C11.2904 3.88782 11.6586 3.81676 12.1249 3.81676V1.81676C11.4586 1.81676 10.8296 1.91806 10.2577 2.14681L11.0005 4.00376ZM12.1249 3.81676C12.44 3.81676 12.7333 3.8536 13.0075 3.92392L13.5043 1.98659C13.0583 1.87225 12.5976 1.81676 12.1249 1.81676V3.81676ZM13.0095 3.92442C13.2687 3.99032 13.4788 4.08719 13.6515 4.20678L14.7899 2.5624C14.4026 2.2942 13.9694 2.10485 13.5023 1.98609L13.0095 3.92442ZM13.6557 4.20967C13.8056 4.31229 13.9205 4.44009 14.0085 4.60443L15.7717 3.66048C15.5335 3.21545 15.2022 2.84467 14.7857 2.5595L13.6557 4.20967ZM14.0105 4.60816C14.0784 4.73376 14.1348 4.92411 14.1348 5.21733H16.1348C16.1348 4.66727 16.028 4.13437 15.7697 3.65675L14.0105 4.60816ZM14.1348 5.21733V10H16.1348V5.21733H14.1348ZM15.1348 9H13.2697V11H15.1348V9ZM14.2697 10V9.01669H12.2697V10H14.2697ZM13.2697 8.01669H13.2143V10.0167H13.2697V8.01669ZM12.3249 8.55962C12.269 8.66842 12.1941 8.76582 12.0937 8.85491L13.4209 10.3511C13.7021 10.1016 13.9319 9.80814 14.1038 9.47376L12.3249 8.55962ZM12.1005 8.8489C12.015 8.92341 11.8982 8.99483 11.7338 9.0534L12.4051 10.9374C12.7763 10.8051 13.118 10.6149 13.4141 10.3571L12.1005 8.8489ZM11.7435 9.05001C11.6022 9.09872 11.4069 9.13388 11.1415 9.13388V11.1339C11.5779 11.1339 12.0012 11.0767 12.3954 10.9408L11.7435 9.05001ZM11.7048 9.77663C12.1274 9.77663 12.544 9.69268 12.9282 9.49525L12.014 7.71639C11.955 7.74671 11.8607 7.77663 11.7048 7.77663V9.77663ZM12.9378 9.49021C13.301 9.29854 13.6088 9.02714 13.8348 8.67437L12.1507 7.59552C12.1243 7.63669 12.0844 7.6792 12.0043 7.72144L12.9378 9.49021ZM13.8348 8.67437C14.071 8.30567 14.182 7.89291 14.182 7.46555H12.182C12.182 7.53677 12.1669 7.57028 12.1507 7.59552L13.8348 8.67437ZM14.182 7.46555V6.71307H12.182V7.46555H14.182ZM12.637 5.87462C12.6503 5.86602 12.6602 5.8605 12.6658 5.85758C12.6714 5.85463 12.6738 5.85362 12.6724 5.85423C12.6711 5.85483 12.6668 5.85663 12.6592 5.85942C12.6517 5.86221 12.6414 5.86574 12.6283 5.86987L13.2279 7.77786C13.3811 7.72972 13.5601 7.65999 13.727 7.55151L12.637 5.87462ZM12.646 5.8645C12.572 5.88625 12.48 5.9093 12.3678 5.93279L12.7775 7.89037C12.93 7.85845 13.075 7.82303 13.2103 7.78323L12.646 5.8645ZM12.3897 5.92845C12.2648 5.9517 12.1398 5.97349 12.015 5.99382L12.3363 7.96783C12.4761 7.94507 12.6159 7.9207 12.7556 7.89471L12.3897 5.92845ZM12.0374 5.99042C11.9043 6.009 11.7831 6.02608 11.6741 6.04166L11.957 8.02155C12.0634 8.00635 12.1823 7.98958 12.3138 7.97123L12.0374 5.99042ZM11.6704 6.04219C11.3739 6.08568 11.0853 6.15898 10.8169 6.27404L11.6047 8.11233C11.6809 8.07966 11.7956 8.04523 11.9607 8.02102L11.6704 6.04219ZM10.8169 6.27404C10.5145 6.40363 10.2296 6.60162 10.0115 6.89015L11.6068 8.09636C11.601 8.10401 11.5953 8.11037 11.5902 8.11539C11.5852 8.12037 11.5814 8.12339 11.5796 8.1247C11.5761 8.12732 11.5825 8.12185 11.6047 8.11233L10.8169 6.27404ZM10.0187 6.88068C9.76347 7.21007 9.66605 7.59113 9.66605 7.9549H11.666C11.666 7.94858 11.6668 7.96531 11.657 7.99709C11.6466 8.03066 11.6278 8.06936 11.5996 8.10583L10.0187 6.88068ZM9.66605 7.9549C9.66605 8.4994 9.88292 9.02293 10.3672 9.37652L11.5466 7.76127C11.576 7.78272 11.6153 7.82366 11.6425 7.88113C11.6679 7.93484 11.666 7.96746 11.666 7.9549H9.66605ZM10.3817 9.38692C10.7854 9.67076 11.2496 9.77663 11.7048 9.77663V7.77663C11.6298 7.77663 11.5837 7.76798 11.5592 7.76118C11.5471 7.75783 11.54 7.75483 11.5365 7.7532C11.5346 7.75235 11.5335 7.75173 11.5329 7.7514C11.5323 7.75106 11.5321 7.75088 11.5321 7.75086L10.3817 9.38692ZM22.3004 4.93111L22.3618 5.92922L23.4322 5.86335L23.2918 4.80017L22.3004 4.93111ZM20.5 5.0419L19.5194 5.23802L19.6905 6.09361L20.5614 6.04002L20.5 5.0419ZM20.3015 4.62642L19.5224 5.25348L19.5301 5.2628L20.3015 4.62642ZM19.8998 4.32635L19.4732 5.23078L19.4834 5.23559L19.4937 5.24016L19.8998 4.32635ZM18.5426 4.40483L19.059 5.26126L19.0681 5.25563L18.5426 4.40483ZM18.4318 5.34197L17.7782 6.0988L17.7782 6.0988L18.4318 5.34197ZM19.1289 5.62358L18.9187 6.60133L18.9314 6.60389L19.1289 5.62358ZM20.4123 5.8821L20.6134 4.90254L20.6097 4.90179L20.4123 5.8821ZM21.9542 6.56534L21.2742 7.29861L21.9542 6.56534ZM22.0511 9.02592L21.2629 8.41054L21.2595 8.41487L22.0511 9.02592ZM20.9339 9.84766L21.3147 10.7723L21.3177 10.7711L20.9339 9.84766ZM17.0607 9.5522L16.4812 10.3672L16.4863 10.3708L17.0607 9.5522ZM16.0866 7.94567L16.0342 6.94704L14.9441 7.00428L15.0964 8.0852L16.0866 7.94567ZM18.0209 7.8441L19.0007 7.64394L18.8283 6.80033L17.9685 6.84548L18.0209 7.8441ZM18.4456 8.49965L17.8883 9.32998L17.8962 9.3352L18.4456 8.49965ZM20.1399 8.52273L20.6744 9.36793L20.6776 9.36588L20.1399 8.52273ZM20.463 8.00107L21.4629 8.01556L21.4632 7.99969L21.4629 7.98383L20.463 8.00107ZM20.2368 7.5625L19.6161 8.34661L19.6263 8.35451L20.2368 7.5625ZM19.5536 7.29474L19.7497 6.31416L19.749 6.31402L19.5536 7.29474ZM18.3256 7.05007L18.1295 8.03065L18.1302 8.03079L18.3256 7.05007ZM16.7791 6.3299L16.0656 7.03056L16.0688 7.0338L16.7791 6.3299ZM16.6452 3.84624L15.8479 3.24265L15.8443 3.24743L16.6452 3.84624ZM17.6932 3.08452L17.3261 2.1543L17.324 2.15516L17.6932 3.08452ZM21.3956 3.38459L20.8025 4.18977L20.8048 4.19145L21.3956 3.38459ZM22.239 3.933L20.4386 4.04379L20.5614 6.04002L22.3618 5.92922L22.239 3.933ZM21.4806 4.84579C21.4169 4.5273 21.2775 4.23814 21.0728 3.99004L19.5301 5.2628C19.5311 5.26402 19.5284 5.26085 19.525 5.25372C19.5215 5.24652 19.5199 5.24052 19.5194 5.23802L21.4806 4.84579ZM21.0805 3.99941C20.8675 3.73481 20.5994 3.54297 20.306 3.41254L19.4937 5.24016C19.5146 5.24945 19.5241 5.25621 19.5264 5.25787C19.5282 5.25925 19.5259 5.25776 19.5225 5.25343L21.0805 3.99941ZM20.3265 3.42192C19.9996 3.26776 19.6512 3.21094 19.3135 3.21094V5.21094C19.3716 5.21094 19.412 5.21588 19.4378 5.22096C19.4505 5.22347 19.4594 5.22595 19.465 5.22776C19.4706 5.22955 19.4731 5.23073 19.4732 5.23078L20.3265 3.42192ZM19.3135 3.21094C18.8674 3.21094 18.4181 3.30637 18.0171 3.55403L19.0681 5.25563C19.0857 5.24477 19.1503 5.21094 19.3135 5.21094V3.21094ZM18.0262 3.54845C17.5705 3.82323 17.2287 4.29133 17.2287 4.91264H19.2287C19.2287 4.97922 19.2097 5.06818 19.1577 5.15224C19.1096 5.23018 19.0598 5.26066 19.0589 5.26121L18.0262 3.54845ZM17.2287 4.91264C17.2287 5.39089 17.4371 5.80422 17.7782 6.0988L19.0854 4.58515C19.1094 4.6059 19.1503 4.64944 19.1834 4.71926C19.2171 4.79052 19.2287 4.8598 19.2287 4.91264H17.2287ZM17.7782 6.0988C18.1094 6.38486 18.5465 6.52123 18.9187 6.60125L19.339 4.64591C19.2127 4.61876 19.1306 4.59242 19.0822 4.57289C19.0302 4.55189 19.0442 4.54953 19.0854 4.58515L17.7782 6.0988ZM18.9314 6.60389L20.2148 6.86241L20.6097 4.90179L19.3264 4.64327L18.9314 6.60389ZM20.2111 6.86166C20.8082 6.98427 21.1225 7.15792 21.2742 7.29861L22.6341 5.83207C22.1087 5.34492 21.3952 5.06308 20.6134 4.90254L20.2111 6.86166ZM21.2742 7.29861C21.3857 7.40201 21.462 7.53705 21.462 7.80256H23.462C23.462 7.04628 23.1997 6.35651 22.6341 5.83207L21.2742 7.29861ZM21.462 7.80256C21.462 8.05486 21.3932 8.24363 21.2629 8.41055L22.8393 9.6413C23.2569 9.10651 23.462 8.47971 23.462 7.80256H21.462ZM21.2595 8.41487C21.1109 8.60739 20.889 8.78341 20.5502 8.92422L21.3177 10.7711C21.9268 10.518 22.4496 10.1462 22.8427 9.63698L21.2595 8.41487ZM20.5532 8.92298C20.2255 9.05792 19.8158 9.13849 19.3043 9.13849V11.1385C20.0238 11.1385 20.7006 11.0252 21.3147 10.7723L20.5532 8.92298ZM19.3043 9.13849C18.4952 9.13849 17.9709 8.96923 17.6351 8.73361L16.4863 10.3708C17.2646 10.9169 18.236 11.1385 19.3043 11.1385V9.13849ZM17.6402 8.73725C17.3116 8.50355 17.1342 8.21305 17.0768 7.80614L15.0964 8.0852C15.2299 9.03245 15.7019 9.81297 16.4812 10.3672L17.6402 8.73725ZM16.1391 8.94429L18.0734 8.84273L17.9685 6.84548L16.0342 6.94704L16.1391 8.94429ZM17.0412 8.04427C17.1476 8.56529 17.4271 9.02037 17.8883 9.32994L19.003 7.66935C18.9995 7.66705 19.0001 7.66701 19.0028 7.6697C19.0055 7.67247 19.0082 7.67584 19.0102 7.67892C19.0121 7.6819 19.0118 7.68205 19.01 7.67762C19.0082 7.67299 19.0044 7.66235 19.0007 7.64394L17.0412 8.04427ZM17.8962 9.3352C18.327 9.61845 18.8215 9.72124 19.3089 9.72124V7.72124C19.0946 7.72124 19.0136 7.67629 18.995 7.66409L17.8962 9.3352ZM19.3089 9.72124C19.7716 9.72124 20.2541 9.63369 20.6744 9.36792L19.6054 7.67753C19.6072 7.67645 19.5356 7.72124 19.3089 7.72124V9.72124ZM20.6776 9.36588C21.1126 9.08846 21.454 8.6307 21.4629 8.01556L19.4631 7.98657C19.4641 7.91889 19.4846 7.83724 19.5298 7.76414C19.5712 7.69739 19.6105 7.6743 19.6022 7.67957L20.6776 9.36588ZM21.4629 7.98383C21.4543 7.48589 21.2234 7.06038 20.8473 6.77049L19.6263 8.35451C19.5997 8.33399 19.5534 8.28953 19.5154 8.21595C19.4768 8.14108 19.4641 8.06933 19.4632 8.0183L21.4629 7.98383ZM20.8575 6.77845C20.5294 6.51865 20.1218 6.38859 19.7497 6.31416L19.3575 8.27532C19.469 8.29763 19.544 8.32073 19.5904 8.33891C19.638 8.35758 19.6389 8.3646 19.6161 8.34655L20.8575 6.77845ZM19.749 6.31402L18.521 6.06935L18.1302 8.03079L19.3582 8.27547L19.749 6.31402ZM18.5217 6.06949C17.9378 5.95271 17.6365 5.77447 17.4894 5.626L16.0688 7.0338C16.5987 7.56857 17.3285 7.87044 18.1295 8.03065L18.5217 6.06949ZM17.4926 5.62925C17.3609 5.49516 17.2759 5.321 17.2759 5.02344H15.2759C15.2759 5.78458 15.5263 6.4814 16.0656 7.03055L17.4926 5.62925ZM17.2759 5.02344C17.2759 4.75931 17.3431 4.58282 17.4461 4.44504L15.8443 3.24743C15.4549 3.76826 15.2759 4.37659 15.2759 5.02344H17.2759ZM17.4425 4.44981C17.5639 4.28943 17.7535 4.13658 18.0624 4.01387L17.324 2.15516C16.7342 2.38946 16.2251 2.74442 15.8479 3.24266L17.4425 4.44981ZM18.0602 4.01473C18.3708 3.89216 18.7707 3.81676 19.2812 3.81676V1.81676C18.5792 1.81676 17.9203 1.91986 17.3261 2.1543L18.0602 4.01473ZM19.2812 3.81676C20.0471 3.81676 20.5174 3.97972 20.8025 4.18976L21.9886 2.57941C21.2459 2.03235 20.3065 1.81676 19.2812 1.81676V3.81676ZM20.8048 4.19145C21.0951 4.40395 21.2575 4.67188 21.309 5.06205L23.2918 4.80017C23.171 3.88541 22.7302 3.12233 21.9863 2.57772L20.8048 4.19145ZM23.4403 10H22.4403V11H23.4403V10ZM23.4403 2.90909V1.90909H22.4403V2.90909H23.4403ZM25.407 2.90909H26.407V1.90909H25.407V2.90909ZM25.407 10V11H26.407V10H25.407ZM23.6758 1.70419L22.9851 2.4273L22.9906 2.43257L22.9962 2.43775L23.6758 1.70419ZM23.6758 0.300781L24.3608 1.0293L24.3612 1.02898L23.6758 0.300781ZM25.1761 0.300781L24.4854 1.02389L24.4909 1.02916L24.4965 1.03434L25.1761 0.300781ZM25.1761 1.70419L25.8612 2.43271L25.8615 2.43239L25.1761 1.70419ZM24.4403 10V2.90909H22.4403V10H24.4403ZM23.4403 3.90909H25.407V1.90909H23.4403V3.90909ZM24.407 2.90909V10H26.407V2.90909H24.407ZM25.407 9H23.4403V11H25.407V9ZM24.4283 0.995028C24.3946 0.995028 24.3821 0.989857 24.3814 0.989564C24.38 0.989048 24.3781 0.988185 24.3749 0.986145C24.3715 0.984038 24.365 0.979486 24.3554 0.970629L22.9962 2.43775C23.3953 2.80757 23.8908 2.99503 24.4283 2.99503V0.995028ZM24.3665 0.981079C24.3569 0.971905 24.3536 0.967149 24.3538 0.967463C24.3542 0.967968 24.3568 0.971849 24.3598 0.97875C24.3629 0.985713 24.3649 0.992466 24.3659 0.997695C24.367 1.00275 24.3665 1.0033 24.3665 0.997869H22.3665C22.3665 1.55729 22.5904 2.05036 22.9851 2.4273L24.3665 0.981079ZM24.3665 0.997869C24.3665 0.993928 24.3668 0.996042 24.3655 1.00268C24.3641 1.0095 24.3616 1.01773 24.3579 1.02605C24.3542 1.03429 24.3509 1.03929 24.3498 1.04072C24.3489 1.04194 24.3517 1.0379 24.3608 1.0293L22.9908 -0.427738C22.5938 -0.0544419 22.3665 0.437452 22.3665 0.997869H24.3665ZM24.3612 1.02898C24.371 1.01972 24.3776 1.01504 24.3809 1.01297C24.384 1.01097 24.3856 1.0103 24.3863 1.01001C24.3871 1.00971 24.3897 1.00875 24.3952 1.00775C24.4009 1.00672 24.4115 1.00533 24.4283 1.00533V-0.994674C23.8861 -0.994674 23.3887 -0.802311 22.9904 -0.427418L24.3612 1.02898ZM24.4283 1.00533C24.4451 1.00533 24.4554 1.00672 24.4606 1.00766C24.4632 1.00814 24.4649 1.00858 24.4658 1.00883C24.4667 1.00907 24.4671 1.00923 24.4671 1.00924C24.4671 1.00926 24.4672 1.00927 24.4673 1.00936C24.4675 1.00944 24.4681 1.00977 24.4692 1.01048C24.4712 1.01179 24.4767 1.01559 24.4854 1.02389L25.8669 -0.422328C25.4695 -0.801957 24.9707 -0.994674 24.4283 -0.994674V1.00533ZM24.4965 1.03434C24.5062 1.04331 24.5091 1.04759 24.5083 1.04641C24.5073 1.04503 24.5037 1.03982 24.4998 1.03109C24.4958 1.02226 24.493 1.0133 24.4914 1.00555C24.4898 0.997985 24.4901 0.994897 24.4901 0.997869H26.4901C26.4901 0.432267 26.257 -0.0610142 25.8558 -0.432781L24.4965 1.03434ZM24.4901 0.997869C24.4901 1.00235 24.4897 1.00083 24.4909 0.994853C24.4922 0.988702 24.4944 0.981222 24.4978 0.973744C24.5011 0.966343 24.5039 0.962244 24.5042 0.961762C24.5045 0.961481 24.5009 0.966461 24.4908 0.975989L25.8615 2.43239C26.2605 2.0569 26.4901 1.5624 26.4901 0.997869H24.4901ZM24.4911 0.975671C24.4827 0.983566 24.4774 0.98724 24.4752 0.988592C24.4732 0.989877 24.4724 0.990186 24.4721 0.990314C24.4717 0.990458 24.4692 0.991437 24.4633 0.992492C24.4572 0.993577 24.446 0.995028 24.4283 0.995028V2.99503C24.9659 2.99503 25.4628 2.80725 25.8612 2.43271L24.4911 0.975671ZM28.0519 9.67685L27.5389 10.5353L27.5449 10.5388L28.0519 9.67685ZM26.8516 8.38423L25.9582 8.83345L25.9602 8.83741L26.8516 8.38423ZM26.8562 4.57102L25.9668 4.1139L25.9658 4.11582L26.8562 4.57102ZM28.0611 3.28303L28.5704 4.14366L28.5741 4.14141L28.0611 3.28303ZM31.5419 3.15376L31.9772 2.25345L31.9772 2.25345L31.5419 3.15376ZM32.6453 4.10014L31.8132 4.65484L32.6453 4.10014ZM33.0931 5.53125V6.53125H34.1449L34.0918 5.48075L33.0931 5.53125ZM31.2373 5.53125L30.248 5.67749L30.3742 6.53125H31.2373V5.53125ZM30.8218 4.6772L30.1196 5.38931L30.1297 5.39898L30.8218 4.6772ZM29.1506 4.59872L29.7381 5.40794L29.7401 5.40651L29.1506 4.59872ZM28.6197 7.60866L27.6875 7.97069L27.6906 7.9785L28.6197 7.60866ZM29.1506 8.33345L29.7401 7.52566L29.1506 8.33345ZM30.554 8.44425L30.1008 7.55284L30.0946 7.55603L30.554 8.44425ZM31.0018 8.04261L30.172 7.48461L30.1698 7.48791L31.0018 8.04261ZM31.2373 7.40092V6.40092H30.3745L30.2481 7.25437L31.2373 7.40092ZM33.0931 7.40092L34.0915 7.45765L34.1515 6.40092H33.0931V7.40092ZM32.6499 8.83203L31.8083 8.29191L31.8073 8.29352L32.6499 8.83203ZM31.565 9.79226L31.1178 8.89783L31.565 9.79226ZM29.9262 9.13849C29.343 9.13849 28.9007 9.01597 28.5589 8.81491L27.5449 10.5388C28.2495 10.9532 29.0567 11.1385 29.9262 11.1385V9.13849ZM28.5649 8.81846C28.2099 8.60633 27.9395 8.31745 27.743 7.93105L25.9602 8.83741C26.3239 9.55281 26.8536 10.1257 27.5389 10.5352L28.5649 8.81846ZM27.745 7.93502C27.5487 7.54455 27.4361 7.06875 27.4361 6.48224H25.4361C25.4361 7.32992 25.6005 8.12211 25.9582 8.83344L27.745 7.93502ZM27.4361 6.48224C27.4361 5.88572 27.5505 5.40979 27.7466 5.02622L25.9658 4.11582C25.6018 4.8279 25.4361 5.62611 25.4361 6.48224H27.4361ZM27.7456 5.02815C27.9449 4.64048 28.2167 4.35294 28.5704 4.14365L27.5519 2.4224C26.8653 2.82864 26.3339 3.39977 25.9668 4.1139L27.7456 5.02815ZM28.5741 4.14141C28.9128 3.93901 29.3471 3.81676 29.9169 3.81676V1.81676C29.0526 1.81676 28.2497 2.00536 27.5481 2.42464L28.5741 4.14141ZM29.9169 3.81676C30.4144 3.81676 30.802 3.90677 31.1067 4.05407L31.9772 2.25345C31.3524 1.95143 30.6567 1.81676 29.9169 1.81676V3.81676ZM31.1067 4.05407C31.4202 4.20565 31.6472 4.40575 31.8132 4.65484L33.4773 3.54544C33.1017 2.98203 32.5931 2.55121 31.9772 2.25345L31.1067 4.05407ZM31.8132 4.65484C31.9722 4.89323 32.0746 5.19119 32.0944 5.58175L34.0918 5.48075C34.0562 4.77567 33.8601 4.11955 33.4773 3.54544L31.8132 4.65484ZM33.0931 4.53125H31.2373V6.53125H33.0931V4.53125ZM32.2265 5.38501C32.1468 4.8459 31.9221 4.34682 31.5139 3.95542L30.1297 5.39898C30.1708 5.43845 30.2231 5.50874 30.248 5.67749L32.2265 5.38501ZM31.5239 3.96517C31.0857 3.53303 30.5276 3.34943 29.9493 3.34943V5.34943C30.0911 5.34943 30.1147 5.38435 30.1196 5.38924L31.5239 3.96517ZM29.9493 3.34943C29.4508 3.34943 28.9741 3.48958 28.5611 3.79093L29.7401 5.40651C29.7826 5.37547 29.8384 5.34943 29.9493 5.34943V3.34943ZM28.5631 3.78951C28.1559 4.08511 27.8774 4.49116 27.6965 4.94132L29.5522 5.68723C29.6236 5.50955 29.6959 5.43856 29.7381 5.40794L28.5631 3.78951ZM27.6965 4.94132C27.5101 5.40502 27.4351 5.91911 27.4351 6.45455H29.4351C29.4351 6.09746 29.4862 5.85137 29.5522 5.68723L27.6965 4.94132ZM27.4351 6.45455C27.4351 6.99222 27.5075 7.50705 27.6875 7.97067L29.5519 7.24666C29.4857 7.07628 29.4351 6.8217 29.4351 6.45455H27.4351ZM27.6906 7.9785C27.8717 8.43354 28.1519 8.84262 28.5611 9.14124L29.7401 7.52566C29.6938 7.4919 29.62 7.41778 29.5488 7.23883L27.6906 7.9785ZM28.5611 9.14124C28.9741 9.44259 29.4508 9.58274 29.9493 9.58274V7.58274C29.8384 7.58274 29.7826 7.5567 29.7401 7.52566L28.5611 9.14124ZM29.9493 9.58274C30.3147 9.58274 30.6769 9.50655 31.0134 9.33247L30.0946 7.55603C30.0741 7.56661 30.0332 7.58274 29.9493 7.58274V9.58274ZM31.0073 9.33563C31.3474 9.16267 31.6251 8.91042 31.8339 8.59731L30.1698 7.48791C30.1446 7.52566 30.1238 7.54116 30.1008 7.55286L31.0073 9.33563ZM31.8317 8.60061C32.0479 8.27907 32.1714 7.91895 32.2265 7.54747L30.2481 7.25437C30.2292 7.38148 30.1958 7.44915 30.172 7.48462L31.8317 8.60061ZM31.2373 8.40092H33.0931V6.40092H31.2373V8.40092ZM32.0947 7.3442C32.0726 7.73277 31.9703 8.03955 31.8083 8.29191L33.4915 9.37215C33.8589 8.7997 34.052 8.15241 34.0915 7.45765L32.0947 7.3442ZM31.8073 8.29352C31.6491 8.54109 31.4284 8.74252 31.1178 8.89783L32.0122 10.6867C32.6249 10.3804 33.1275 9.94163 33.4925 9.37055L31.8073 8.29352ZM31.1178 8.89783C30.8225 9.04548 30.4358 9.13849 29.9262 9.13849V11.1385C30.6784 11.1385 31.3842 11.0007 32.0122 10.6867L31.1178 8.89783Z" fill="black" mask="url(#path-1-outside-1_413_1089)"/>
</svg>
