<svg width="46" height="22" viewBox="0 0 46 22" fill="none" xmlns="http://www.w3.org/2000/svg">
<rect x="0.5" width="45" height="20" rx="1" fill="#6949FF"/>
<g filter="url(#filter0_d_413_1099)">
<mask id="path-2-outside-1_413_1099" maskUnits="userSpaceOnUse" x="2.5" y="4" width="39" height="15" fill="black">
<rect fill="white" x="2.5" y="4" width="39" height="15"/>
<path d="M7.36222 15L4.77699 5.54545H5.94034L7.91619 13.2457H8.00852L10.0213 5.54545H11.3139L13.3267 13.2457H13.419L15.3949 5.54545H16.5582L13.973 15H12.7912L10.7045 7.46591H10.6307L8.54403 15H7.36222ZM17.1327 15V7.90909H18.1852V8.98011H18.2591C18.3883 8.62926 18.6223 8.34458 18.9608 8.12606C19.2993 7.90755 19.681 7.79829 20.1057 7.79829C20.1857 7.79829 20.2857 7.79983 20.4057 7.80291C20.5258 7.80599 20.6166 7.81061 20.6781 7.81676V8.92472C20.6412 8.91548 20.5566 8.90163 20.4242 8.88317C20.295 8.86162 20.158 8.85085 20.0133 8.85085C19.6687 8.85085 19.3609 8.92318 19.0901 9.06783C18.8223 9.2094 18.6099 9.40637 18.453 9.65874C18.2991 9.90803 18.2222 10.1927 18.2222 10.5128V15H17.1327ZM23.7962 15.1662C23.3469 15.1662 22.9391 15.0816 22.5729 14.9123C22.2066 14.7399 21.9158 14.4922 21.7003 14.169C21.4849 13.8428 21.3772 13.4489 21.3772 12.9872C21.3772 12.581 21.4572 12.2517 21.6173 11.9993C21.7773 11.7438 21.9912 11.5438 22.2589 11.3991C22.5267 11.2545 22.8222 11.1468 23.1453 11.076C23.4715 11.0021 23.7993 10.9437 24.1286 10.9006C24.5595 10.8452 24.9088 10.8036 25.1766 10.7759C25.4474 10.7451 25.6444 10.6944 25.7675 10.6236C25.8936 10.5528 25.9567 10.4297 25.9567 10.2543V10.2173C25.9567 9.76184 25.8321 9.40791 25.5828 9.15554C25.3366 8.90317 24.9627 8.77699 24.461 8.77699C23.9409 8.77699 23.5331 8.89086 23.2376 9.11861C22.9422 9.34635 22.7344 9.58949 22.6144 9.84801L21.5803 9.47869C21.765 9.04782 22.0112 8.71236 22.319 8.4723C22.6298 8.22917 22.9683 8.0599 23.3346 7.96449C23.7039 7.866 24.0671 7.81676 24.4241 7.81676C24.6518 7.81676 24.9134 7.84446 25.2089 7.89986C25.5074 7.95218 25.7952 8.06143 26.0722 8.22763C26.3522 8.39382 26.5846 8.64465 26.7692 8.98011C26.9539 9.31558 27.0462 9.76491 27.0462 10.3281V15H25.9567V14.0398H25.9013C25.8275 14.1937 25.7044 14.3583 25.532 14.5337C25.3597 14.7092 25.1304 14.8584 24.8442 14.9815C24.5579 15.1046 24.2086 15.1662 23.7962 15.1662ZM23.9624 14.1875C24.3933 14.1875 24.7565 14.1029 25.0519 13.9336C25.3504 13.7643 25.5751 13.5458 25.7259 13.2781C25.8798 13.0103 25.9567 12.7287 25.9567 12.4332V11.4361C25.9106 11.4915 25.809 11.5423 25.6521 11.5884C25.4982 11.6315 25.3197 11.67 25.1165 11.7038C24.9165 11.7346 24.7211 11.7623 24.5302 11.7869C24.3425 11.8085 24.1902 11.8269 24.0732 11.8423C23.7901 11.8793 23.5254 11.9393 23.2792 12.0224C23.036 12.1024 22.8391 12.224 22.6883 12.3871C22.5405 12.5471 22.4667 12.7656 22.4667 13.0426C22.4667 13.4212 22.6067 13.7074 22.8868 13.9013C23.1699 14.0921 23.5285 14.1875 23.9624 14.1875ZM28.7748 17.6591V7.90909H29.8273V9.03551H29.9566C30.0366 8.91241 30.1474 8.75544 30.289 8.56463C30.4336 8.37074 30.6398 8.19839 30.9076 8.04759C31.1784 7.8937 31.5447 7.81676 32.0063 7.81676C32.6034 7.81676 33.1297 7.96603 33.5851 8.26456C34.0406 8.56309 34.3961 8.98627 34.6516 9.53409C34.907 10.0819 35.0347 10.7282 35.0347 11.473C35.0347 12.224 34.907 12.8749 34.6516 13.4258C34.3961 13.9736 34.0422 14.3983 33.5898 14.6999C33.1373 14.9985 32.6157 15.1477 32.0248 15.1477C31.5693 15.1477 31.2046 15.0723 30.9307 14.9215C30.6568 14.7676 30.4459 14.5937 30.2982 14.3999C30.1505 14.2029 30.0366 14.0398 29.9566 13.9105H29.8643V17.6591H28.7748ZM29.8458 11.4545C29.8458 11.9901 29.9243 12.4625 30.0812 12.8718C30.2382 13.2781 30.4675 13.5966 30.7691 13.8274C31.0707 14.0552 31.44 14.169 31.877 14.169C32.3325 14.169 32.7126 14.049 33.0173 13.8089C33.3251 13.5658 33.5559 13.2396 33.7098 12.8303C33.8668 12.4179 33.9452 11.9593 33.9452 11.4545C33.9452 10.956 33.8683 10.5066 33.7144 10.1065C33.5636 9.70336 33.3343 9.38482 33.0266 9.15092C32.7219 8.91394 32.3387 8.79545 31.877 8.79545C31.4339 8.79545 31.0615 8.90779 30.7599 9.13246C30.4583 9.35405 30.2305 9.66489 30.0766 10.065C29.9227 10.462 29.8458 10.9252 29.8458 11.4545ZM39.742 5.54545V15H38.5972V6.74574H38.5418L36.2335 8.27841V7.11506L38.5972 5.54545H39.742Z"/>
</mask>
<path d="M7.36222 15L4.77699 5.54545H5.94034L7.91619 13.2457H8.00852L10.0213 5.54545H11.3139L13.3267 13.2457H13.419L15.3949 5.54545H16.5582L13.973 15H12.7912L10.7045 7.46591H10.6307L8.54403 15H7.36222ZM17.1327 15V7.90909H18.1852V8.98011H18.2591C18.3883 8.62926 18.6223 8.34458 18.9608 8.12606C19.2993 7.90755 19.681 7.79829 20.1057 7.79829C20.1857 7.79829 20.2857 7.79983 20.4057 7.80291C20.5258 7.80599 20.6166 7.81061 20.6781 7.81676V8.92472C20.6412 8.91548 20.5566 8.90163 20.4242 8.88317C20.295 8.86162 20.158 8.85085 20.0133 8.85085C19.6687 8.85085 19.3609 8.92318 19.0901 9.06783C18.8223 9.2094 18.6099 9.40637 18.453 9.65874C18.2991 9.90803 18.2222 10.1927 18.2222 10.5128V15H17.1327ZM23.7962 15.1662C23.3469 15.1662 22.9391 15.0816 22.5729 14.9123C22.2066 14.7399 21.9158 14.4922 21.7003 14.169C21.4849 13.8428 21.3772 13.4489 21.3772 12.9872C21.3772 12.581 21.4572 12.2517 21.6173 11.9993C21.7773 11.7438 21.9912 11.5438 22.2589 11.3991C22.5267 11.2545 22.8222 11.1468 23.1453 11.076C23.4715 11.0021 23.7993 10.9437 24.1286 10.9006C24.5595 10.8452 24.9088 10.8036 25.1766 10.7759C25.4474 10.7451 25.6444 10.6944 25.7675 10.6236C25.8936 10.5528 25.9567 10.4297 25.9567 10.2543V10.2173C25.9567 9.76184 25.8321 9.40791 25.5828 9.15554C25.3366 8.90317 24.9627 8.77699 24.461 8.77699C23.9409 8.77699 23.5331 8.89086 23.2376 9.11861C22.9422 9.34635 22.7344 9.58949 22.6144 9.84801L21.5803 9.47869C21.765 9.04782 22.0112 8.71236 22.319 8.4723C22.6298 8.22917 22.9683 8.0599 23.3346 7.96449C23.7039 7.866 24.0671 7.81676 24.4241 7.81676C24.6518 7.81676 24.9134 7.84446 25.2089 7.89986C25.5074 7.95218 25.7952 8.06143 26.0722 8.22763C26.3522 8.39382 26.5846 8.64465 26.7692 8.98011C26.9539 9.31558 27.0462 9.76491 27.0462 10.3281V15H25.9567V14.0398H25.9013C25.8275 14.1937 25.7044 14.3583 25.532 14.5337C25.3597 14.7092 25.1304 14.8584 24.8442 14.9815C24.5579 15.1046 24.2086 15.1662 23.7962 15.1662ZM23.9624 14.1875C24.3933 14.1875 24.7565 14.1029 25.0519 13.9336C25.3504 13.7643 25.5751 13.5458 25.7259 13.2781C25.8798 13.0103 25.9567 12.7287 25.9567 12.4332V11.4361C25.9106 11.4915 25.809 11.5423 25.6521 11.5884C25.4982 11.6315 25.3197 11.67 25.1165 11.7038C24.9165 11.7346 24.7211 11.7623 24.5302 11.7869C24.3425 11.8085 24.1902 11.8269 24.0732 11.8423C23.7901 11.8793 23.5254 11.9393 23.2792 12.0224C23.036 12.1024 22.8391 12.224 22.6883 12.3871C22.5405 12.5471 22.4667 12.7656 22.4667 13.0426C22.4667 13.4212 22.6067 13.7074 22.8868 13.9013C23.1699 14.0921 23.5285 14.1875 23.9624 14.1875ZM28.7748 17.6591V7.90909H29.8273V9.03551H29.9566C30.0366 8.91241 30.1474 8.75544 30.289 8.56463C30.4336 8.37074 30.6398 8.19839 30.9076 8.04759C31.1784 7.8937 31.5447 7.81676 32.0063 7.81676C32.6034 7.81676 33.1297 7.96603 33.5851 8.26456C34.0406 8.56309 34.3961 8.98627 34.6516 9.53409C34.907 10.0819 35.0347 10.7282 35.0347 11.473C35.0347 12.224 34.907 12.8749 34.6516 13.4258C34.3961 13.9736 34.0422 14.3983 33.5898 14.6999C33.1373 14.9985 32.6157 15.1477 32.0248 15.1477C31.5693 15.1477 31.2046 15.0723 30.9307 14.9215C30.6568 14.7676 30.4459 14.5937 30.2982 14.3999C30.1505 14.2029 30.0366 14.0398 29.9566 13.9105H29.8643V17.6591H28.7748ZM29.8458 11.4545C29.8458 11.9901 29.9243 12.4625 30.0812 12.8718C30.2382 13.2781 30.4675 13.5966 30.7691 13.8274C31.0707 14.0552 31.44 14.169 31.877 14.169C32.3325 14.169 32.7126 14.049 33.0173 13.8089C33.3251 13.5658 33.5559 13.2396 33.7098 12.8303C33.8668 12.4179 33.9452 11.9593 33.9452 11.4545C33.9452 10.956 33.8683 10.5066 33.7144 10.1065C33.5636 9.70336 33.3343 9.38482 33.0266 9.15092C32.7219 8.91394 32.3387 8.79545 31.877 8.79545C31.4339 8.79545 31.0615 8.90779 30.7599 9.13246C30.4583 9.35405 30.2305 9.66489 30.0766 10.065C29.9227 10.462 29.8458 10.9252 29.8458 11.4545ZM39.742 5.54545V15H38.5972V6.74574H38.5418L36.2335 8.27841V7.11506L38.5972 5.54545H39.742Z" fill="#C9C9C9"/>
<path d="M7.36222 15L6.39763 15.2638L6.59894 16H7.36222V15ZM4.77699 5.54545V4.54545H3.46684L3.8124 5.80921L4.77699 5.54545ZM5.94034 5.54545L6.90896 5.29691L6.71614 4.54545H5.94034V5.54545ZM7.91619 13.2457L6.94757 13.4943L7.14039 14.2457H7.91619V13.2457ZM8.00852 13.2457V14.2457H8.78073L8.97602 13.4986L8.00852 13.2457ZM10.0213 5.54545V4.54545H9.2491L9.05381 5.29256L10.0213 5.54545ZM11.3139 5.54545L12.2814 5.29256L12.0861 4.54545H11.3139V5.54545ZM13.3267 13.2457L12.3592 13.4986L12.5545 14.2457H13.3267V13.2457ZM13.419 13.2457V14.2457H14.1948L14.3877 13.4943L13.419 13.2457ZM15.3949 5.54545V4.54545H14.6191L14.4263 5.29691L15.3949 5.54545ZM16.5582 5.54545L17.5228 5.80921L17.8684 4.54545H16.5582V5.54545ZM13.973 15V16H14.7363L14.9376 15.2638L13.973 15ZM12.7912 15L11.8275 15.2669L12.0305 16H12.7912V15ZM10.7045 7.46591L11.6683 7.199L11.4652 6.46591H10.7045V7.46591ZM10.6307 7.46591V6.46591H9.87L9.66696 7.199L10.6307 7.46591ZM8.54403 15V16H9.30472L9.50775 15.2669L8.54403 15ZM8.32681 14.7362L5.74158 5.2817L3.8124 5.80921L6.39763 15.2638L8.32681 14.7362ZM4.77699 6.54545H5.94034V4.54545H4.77699V6.54545ZM4.97172 5.794L6.94757 13.4943L8.88481 12.9972L6.90896 5.29691L4.97172 5.794ZM7.91619 14.2457H8.00852V12.2457H7.91619V14.2457ZM8.97602 13.4986L10.9888 5.79835L9.05381 5.29256L7.04103 12.9928L8.97602 13.4986ZM10.0213 6.54545H11.3139V4.54545H10.0213V6.54545ZM10.3464 5.79835L12.3592 13.4986L14.2942 12.9928L12.2814 5.29256L10.3464 5.79835ZM13.3267 14.2457H13.419V12.2457H13.3267V14.2457ZM14.3877 13.4943L16.3635 5.794L14.4263 5.29691L12.4504 12.9972L14.3877 13.4943ZM15.3949 6.54545H16.5582V4.54545H15.3949V6.54545ZM15.5936 5.2817L13.0084 14.7362L14.9376 15.2638L17.5228 5.80921L15.5936 5.2817ZM13.973 14H12.7912V16H13.973V14ZM13.7549 14.7331L11.6683 7.199L9.74083 7.73282L11.8275 15.2669L13.7549 14.7331ZM10.7045 6.46591H10.6307V8.46591H10.7045V6.46591ZM9.66696 7.199L7.58031 14.7331L9.50775 15.2669L11.5944 7.73282L9.66696 7.199ZM8.54403 14H7.36222V16H8.54403V14ZM17.1327 15H16.1327V16H17.1327V15ZM17.1327 7.90909V6.90909H16.1327V7.90909H17.1327ZM18.1852 7.90909H19.1852V6.90909H18.1852V7.90909ZM18.1852 8.98011H17.1852V9.98011H18.1852V8.98011ZM18.2591 8.98011V9.98011H18.9564L19.1974 9.32582L18.2591 8.98011ZM18.9608 8.12606L18.4185 7.28588L18.4185 7.28588L18.9608 8.12606ZM20.6781 7.81676H21.6781V6.91178L20.7776 6.82172L20.6781 7.81676ZM20.6781 8.92472L20.4356 9.89486L21.6781 10.2055V8.92472H20.6781ZM20.4242 8.88317L20.2598 9.86956L20.2729 9.87174L20.286 9.87357L20.4242 8.88317ZM19.0901 9.06783L19.5575 9.95187L19.5612 9.9499L19.0901 9.06783ZM18.453 9.65874L17.6038 9.1306L17.602 9.13347L18.453 9.65874ZM18.2222 15V16H19.2222V15H18.2222ZM18.1327 15V7.90909H16.1327V15H18.1327ZM17.1327 8.90909H18.1852V6.90909H17.1327V8.90909ZM17.1852 7.90909V8.98011H19.1852V7.90909H17.1852ZM18.1852 9.98011H18.2591V7.98011H18.1852V9.98011ZM19.1974 9.32582C19.2458 9.19451 19.3317 9.07691 19.5031 8.96625L18.4185 7.28588C17.9128 7.61225 17.5309 8.06401 17.3207 8.63441L19.1974 9.32582ZM19.5031 8.96625C19.6711 8.85783 19.8624 8.7983 20.1057 8.7983V6.7983C19.4995 6.7983 18.9276 6.95727 18.4185 7.28588L19.5031 8.96625ZM20.1057 8.7983C20.1741 8.7983 20.2649 8.79963 20.3801 8.80258L20.4314 6.80324C20.3066 6.80004 20.1973 6.7983 20.1057 6.7983V8.7983ZM20.3801 8.80258C20.4938 8.8055 20.5548 8.80942 20.5786 8.8118L20.7776 6.82172C20.6783 6.81179 20.5578 6.80648 20.4314 6.80324L20.3801 8.80258ZM19.6781 7.81676V8.92472H21.6781V7.81676H19.6781ZM20.9207 7.95457C20.8216 7.92982 20.6798 7.90915 20.5624 7.89276L20.286 9.87357C20.3482 9.88225 20.3939 9.88911 20.4255 9.89428C20.4412 9.89685 20.4506 9.89854 20.4549 9.89937C20.4614 9.90059 20.4527 9.89913 20.4356 9.89486L20.9207 7.95457ZM20.5886 7.89677C20.3998 7.8653 20.2075 7.85085 20.0133 7.85085V9.85085C20.1085 9.85085 20.1901 9.85795 20.2598 9.86956L20.5886 7.89677ZM20.0133 7.85085C19.5248 7.85085 19.0518 7.95459 18.6189 8.18575L19.5612 9.9499C19.67 9.89177 19.8125 9.85085 20.0133 9.85085V7.85085ZM18.6226 8.18379C18.2015 8.40645 17.8561 8.72491 17.6038 9.1306L19.3021 10.1869C19.3637 10.0878 19.4431 10.0123 19.5575 9.95186L18.6226 8.18379ZM17.602 9.13347C17.3418 9.5551 17.2222 10.025 17.2222 10.5128H19.2222C19.2222 10.3605 19.2564 10.2609 19.3039 10.184L17.602 9.13347ZM17.2222 10.5128V15H19.2222V10.5128H17.2222ZM18.2222 14H17.1327V16H18.2222V14ZM22.5729 14.9123L22.1471 15.8171L22.1533 15.82L22.5729 14.9123ZM21.7003 14.169L20.8659 14.7201L20.8683 14.7237L21.7003 14.169ZM21.6173 11.9993L22.4618 12.5348L22.4647 12.5302L21.6173 11.9993ZM23.1453 11.076L23.3593 12.0529L23.3661 12.0513L23.1453 11.076ZM24.1286 10.9006L24.0011 9.90873L23.9989 9.90902L24.1286 10.9006ZM25.1766 10.7759L25.2795 11.7707L25.2895 11.7695L25.1766 10.7759ZM25.7675 10.6236L25.2782 9.75139L25.269 9.75667L25.7675 10.6236ZM25.5828 9.15554L24.867 9.85388L24.8714 9.85829L25.5828 9.15554ZM23.2376 9.11861L23.8481 9.91062V9.91062L23.2376 9.11861ZM22.6144 9.84801L22.2781 10.7898L23.1372 11.0966L23.5214 10.2691L22.6144 9.84801ZM21.5803 9.47869L20.6612 9.08477L20.2421 10.0626L21.244 10.4204L21.5803 9.47869ZM22.319 8.4723L22.934 9.2608L22.9351 9.25997L22.319 8.4723ZM23.3346 7.96449L23.5867 8.93221L23.5922 8.93072L23.3346 7.96449ZM25.2089 7.89986L25.0246 8.8828L25.0362 8.88484L25.2089 7.89986ZM26.0722 8.22763L25.5576 9.08513L25.5618 9.08761L26.0722 8.22763ZM26.7692 8.98011L25.8932 9.46234V9.46234L26.7692 8.98011ZM27.0462 15V16H28.0462V15H27.0462ZM25.9567 15H24.9567V16H25.9567V15ZM25.9567 14.0398H26.9567V13.0398H25.9567V14.0398ZM25.9013 14.0398V13.0398H25.2721L24.9998 13.607L25.9013 14.0398ZM25.532 14.5337L26.2454 15.2346L26.2454 15.2346L25.532 14.5337ZM24.8442 14.9815L24.4491 14.0629L24.8442 14.9815ZM25.0519 13.9336L24.5587 13.0637L24.5548 13.0659L25.0519 13.9336ZM25.7259 13.2781L24.8589 12.7798L24.8546 12.7873L25.7259 13.2781ZM25.9567 11.4361H26.9567V8.67402L25.1885 10.7959L25.9567 11.4361ZM25.6521 11.5884L25.9217 12.5515L25.9342 12.5478L25.6521 11.5884ZM25.1165 11.7038L25.2686 12.6923L25.2809 12.6902L25.1165 11.7038ZM24.5302 11.7869L24.6443 12.7805L24.6582 12.7787L24.5302 11.7869ZM24.0732 11.8423L24.2026 12.8339L24.2037 12.8338L24.0732 11.8423ZM23.2792 12.0224L23.5918 12.9723L23.599 12.9699L23.2792 12.0224ZM22.6883 12.3871L21.954 11.7082L21.9535 11.7088L22.6883 12.3871ZM22.8868 13.9013L22.3175 14.7235L22.3279 14.7305L22.8868 13.9013ZM23.7962 14.1662C23.4752 14.1662 23.2129 14.1064 22.9924 14.0046L22.1533 15.82C22.6653 16.0567 23.2186 16.1662 23.7962 16.1662V14.1662ZM22.9987 14.0075C22.7899 13.9092 22.6425 13.7794 22.5324 13.6143L20.8683 14.7237C21.1891 15.205 21.6233 15.5706 22.1471 15.8171L22.9987 14.0075ZM22.5348 13.618C22.4457 13.483 22.3772 13.289 22.3772 12.9872H20.3772C20.3772 13.6087 20.5242 14.2026 20.8659 14.7201L22.5348 13.618ZM22.3772 12.9872C22.3772 12.7046 22.4336 12.5792 22.4618 12.5348L20.7727 11.4637C20.4808 11.9241 20.3772 12.4573 20.3772 12.9872H22.3772ZM22.4647 12.5302C22.532 12.4227 22.6171 12.3423 22.7342 12.279L21.7836 10.5193C21.3653 10.7453 21.0226 11.0649 20.7698 11.4684L22.4647 12.5302ZM22.7342 12.279C22.913 12.1824 23.1195 12.1054 23.3593 12.0528L22.9313 10.0992C22.5248 10.1882 22.1404 10.3266 21.7836 10.5193L22.7342 12.279ZM23.3661 12.0513C23.6625 11.9842 23.9599 11.9312 24.2584 11.8921L23.9989 9.90902C23.6388 9.95614 23.2806 10.0201 22.9245 10.1007L23.3661 12.0513ZM24.2561 11.8924C24.6831 11.8375 25.0233 11.7971 25.2795 11.7706L25.0737 9.78123C24.7943 9.81013 24.4359 9.85283 24.0011 9.90873L24.2561 11.8924ZM25.2895 11.7695C25.5942 11.7349 25.9595 11.6667 26.2659 11.4905L25.269 9.75667C25.311 9.73249 25.3233 9.73468 25.2778 9.74642C25.2364 9.75709 25.1674 9.77053 25.0636 9.78232L25.2895 11.7695ZM26.2567 11.4957C26.7704 11.2076 26.9567 10.7004 26.9567 10.2543H24.9567C24.9567 10.2248 24.9619 10.1344 25.0195 10.0221C25.0819 9.90025 25.178 9.80763 25.2782 9.75144L26.2567 11.4957ZM26.9567 10.2543V10.2173H24.9567V10.2543H26.9567ZM26.9567 10.2173C26.9567 9.57682 26.7769 8.94137 26.2942 8.45278L24.8714 9.85829C24.8873 9.87444 24.9567 9.94685 24.9567 10.2173H26.9567ZM26.2986 8.45722C25.7965 7.94259 25.1168 7.77699 24.461 7.77699V9.77699C24.6312 9.77699 24.7376 9.79876 24.798 9.81913C24.8532 9.83776 24.867 9.85382 24.867 9.85386L26.2986 8.45722ZM24.461 7.77699C23.8054 7.77699 23.1549 7.91979 22.6271 8.3266L23.8481 9.91062C23.9113 9.86193 24.0764 9.77699 24.461 9.77699V7.77699ZM22.6271 8.3266C22.2424 8.62317 21.9127 8.98478 21.7074 9.4269L23.5214 10.2691C23.5562 10.1942 23.642 10.0695 23.8481 9.91062L22.6271 8.3266ZM22.9507 8.90627L21.9167 8.53695L21.244 10.4204L22.2781 10.7898L22.9507 8.90627ZM22.4995 9.87261C22.631 9.56575 22.7836 9.37812 22.934 9.2608L21.7039 7.6838C21.2388 8.0466 20.899 8.5299 20.6612 9.08477L22.4995 9.87261ZM22.9351 9.25997C23.1429 9.09743 23.3585 8.99164 23.5867 8.93219L23.0825 6.99678C22.5782 7.12815 22.1167 7.3609 21.7029 7.68463L22.9351 9.25997ZM23.5922 8.93072C23.8834 8.85308 24.16 8.81676 24.4241 8.81676V6.81676C23.9742 6.81676 23.5244 6.87893 23.0769 6.99825L23.5922 8.93072ZM24.4241 8.81676C24.574 8.81676 24.7719 8.83535 25.0246 8.88273L25.3932 6.91699C25.055 6.85357 24.7296 6.81676 24.4241 6.81676V8.81676ZM25.0362 8.88484C25.2062 8.91463 25.3789 8.97784 25.5577 9.08512L26.5866 7.37013C26.2115 7.14503 25.8086 6.98972 25.3815 6.91487L25.0362 8.88484ZM25.5618 9.08761C25.6634 9.14786 25.7793 9.25543 25.8932 9.46234L27.6453 8.49789C27.3899 8.03386 27.0411 7.63978 26.5825 7.36764L25.5618 9.08761ZM25.8932 9.46234C25.9672 9.5967 26.0462 9.85978 26.0462 10.3281H28.0462C28.0462 9.67005 27.9406 9.03445 27.6453 8.49789L25.8932 9.46234ZM26.0462 10.3281V15H28.0462V10.3281H26.0462ZM27.0462 14H25.9567V16H27.0462V14ZM26.9567 15V14.0398H24.9567V15H26.9567ZM25.9567 13.0398H25.9013V15.0398H25.9567V13.0398ZM24.9998 13.607C24.9895 13.6286 24.9449 13.7044 24.8187 13.8329L26.2454 15.2346C26.4638 15.0122 26.6655 14.7587 26.8029 14.4725L24.9998 13.607ZM24.8187 13.8329C24.758 13.8947 24.6467 13.9779 24.4491 14.0629L25.2393 15.9002C25.6141 15.7389 25.9613 15.5237 26.2454 15.2346L24.8187 13.8329ZM24.4491 14.0629C24.321 14.118 24.1145 14.1662 23.7962 14.1662V16.1662C24.3028 16.1662 24.7949 16.0913 25.2393 15.9002L24.4491 14.0629ZM23.9624 15.1875C24.5222 15.1875 25.0671 15.0774 25.549 14.8013L24.5548 13.0659C24.4458 13.1284 24.2644 13.1875 23.9624 13.1875V15.1875ZM25.5451 14.8035C25.9829 14.5553 26.3471 14.2129 26.5972 13.7688L24.8546 12.7873C24.8031 12.8787 24.718 12.9734 24.5587 13.0637L25.5451 14.8035ZM26.5929 13.7763C26.8298 13.3641 26.9567 12.9116 26.9567 12.4332H24.9567C24.9567 12.5458 24.9298 12.6565 24.8589 12.7798L26.5929 13.7763ZM26.9567 12.4332V11.4361H24.9567V12.4332H26.9567ZM25.1885 10.7959C25.2429 10.7306 25.295 10.6885 25.3281 10.6647C25.3619 10.6405 25.3877 10.6268 25.3987 10.6213C25.4184 10.6114 25.414 10.6161 25.3699 10.6291L25.9342 12.5478C26.047 12.5146 26.1719 12.4708 26.2932 12.4101C26.4042 12.3546 26.5774 12.2533 26.725 12.0763L25.1885 10.7959ZM25.3824 10.6255C25.2714 10.6566 25.1293 10.6879 24.9521 10.7174L25.2809 12.6902C25.51 12.6521 25.725 12.6065 25.9217 12.5514L25.3824 10.6255ZM24.9645 10.7155C24.772 10.7451 24.5846 10.7716 24.4023 10.7952L24.6582 12.7787C24.8575 12.753 25.0609 12.7242 25.2686 12.6922L24.9645 10.7155ZM24.4162 10.7935C24.2259 10.8153 24.0674 10.8345 23.9428 10.8509L24.2037 12.8338C24.3129 12.8194 24.4592 12.8017 24.6443 12.7804L24.4162 10.7935ZM23.9439 10.8507C23.6023 10.8953 23.2732 10.969 22.9594 11.0749L23.599 12.9699C23.7776 12.9096 23.9779 12.8632 24.2026 12.8339L23.9439 10.8507ZM22.9666 11.0725C22.5869 11.1974 22.2366 11.4026 21.954 11.7082L23.4225 13.0659C23.4416 13.0453 23.4851 13.0074 23.5918 12.9723L22.9666 11.0725ZM21.9535 11.7088C21.5926 12.0998 21.4667 12.5851 21.4667 13.0426H23.4667C23.4667 12.9918 23.4736 12.979 23.4694 12.9912C23.4673 12.9976 23.4627 13.009 23.4543 13.0232C23.4459 13.0376 23.4353 13.0521 23.4231 13.0654L21.9535 11.7088ZM21.4667 13.0426C21.4667 13.7066 21.7344 14.3198 22.3176 14.7235L23.456 13.0791C23.449 13.0743 23.4504 13.0741 23.4556 13.08C23.461 13.0862 23.4662 13.0941 23.47 13.1017C23.4736 13.1091 23.4731 13.1107 23.4715 13.1031C23.4698 13.095 23.4667 13.0757 23.4667 13.0426H21.4667ZM22.3279 14.7305C22.8158 15.0593 23.3832 15.1875 23.9624 15.1875V13.1875C23.6738 13.1875 23.524 13.1249 23.4456 13.072L22.3279 14.7305ZM28.7748 17.6591H27.7748V18.6591H28.7748V17.6591ZM28.7748 7.90909V6.90909H27.7748V7.90909H28.7748ZM29.8273 7.90909H30.8273V6.90909H29.8273V7.90909ZM29.8273 9.03551H28.8273V10.0355H29.8273V9.03551ZM29.9566 9.03551V10.0355H30.4993L30.795 9.5805L29.9566 9.03551ZM30.289 8.56463L29.4875 7.96667L29.4859 7.96878L30.289 8.56463ZM30.9076 8.04759L31.3983 8.9189L31.4016 8.91704L30.9076 8.04759ZM33.5851 8.26456L34.1333 7.42819V7.42819L33.5851 8.26456ZM34.6516 9.53409L35.5579 9.11148V9.11148L34.6516 9.53409ZM34.6516 13.4258L35.5579 13.8484L35.5588 13.8464L34.6516 13.4258ZM33.5898 14.6999L34.1405 15.5346L34.1445 15.532L33.5898 14.6999ZM30.9307 14.9215L30.4409 15.7934L30.4484 15.7975L30.9307 14.9215ZM30.2982 14.3999L29.4982 14.9999L29.5028 15.0059L30.2982 14.3999ZM29.9566 13.9105L30.8069 13.3842L30.5137 12.9105H29.9566V13.9105ZM29.8643 13.9105V12.9105H28.8643V13.9105H29.8643ZM29.8643 17.6591V18.6591H30.8643V17.6591H29.8643ZM30.0812 12.8718L29.1475 13.2298L29.1484 13.2322L30.0812 12.8718ZM30.7691 13.8274L30.1613 14.6216L30.1665 14.6255L30.7691 13.8274ZM33.0173 13.8089L33.6362 14.5944L33.6372 14.5936L33.0173 13.8089ZM33.7098 12.8303L32.7752 12.4745L32.7738 12.4784L33.7098 12.8303ZM33.7144 10.1065L32.7777 10.4569L32.7811 10.4655L33.7144 10.1065ZM33.0266 9.15092L32.4126 9.94032L32.4215 9.94708L33.0266 9.15092ZM30.7599 9.13246L31.3519 9.93836L31.3572 9.93442L30.7599 9.13246ZM30.0766 10.065L31.009 10.4264L31.01 10.424L30.0766 10.065ZM29.7748 17.6591V7.90909H27.7748V17.6591H29.7748ZM28.7748 8.90909H29.8273V6.90909H28.7748V8.90909ZM28.8273 7.90909V9.03551H30.8273V7.90909H28.8273ZM29.8273 10.0355H29.9566V8.03551H29.8273V10.0355ZM30.795 9.5805C30.8591 9.48192 30.9563 9.34347 31.0921 9.16048L29.4859 7.96878C29.3385 8.16742 29.2141 8.34289 29.1182 8.49052L30.795 9.5805ZM31.0905 9.16259C31.1325 9.10636 31.2204 9.0191 31.3983 8.91889L30.4169 7.17628C30.0593 7.37768 29.7348 7.63512 29.4875 7.96667L31.0905 9.16259ZM31.4016 8.91704C31.4664 8.88025 31.6403 8.81676 32.0063 8.81676V6.81676C31.449 6.81676 30.8905 6.90716 30.4136 7.17813L31.4016 8.91704ZM32.0063 8.81676C32.4281 8.81676 32.76 8.91938 33.037 9.10093L34.1333 7.42819C33.4993 7.01268 32.7786 6.81676 32.0063 6.81676V8.81676ZM33.037 9.10093C33.3202 9.28656 33.5595 9.55832 33.7452 9.9567L35.5579 9.11148C35.2327 8.41422 34.7611 7.83962 34.1333 7.42819L33.037 9.10093ZM33.7452 9.9567C33.9264 10.3451 34.0347 10.8411 34.0347 11.473H36.0347C36.0347 10.6153 35.8876 9.8187 35.5579 9.11148L33.7452 9.9567ZM34.0347 11.473C34.0347 12.1122 33.926 12.6134 33.7443 13.0051L35.5588 13.8464C35.888 13.1364 36.0347 12.3357 36.0347 11.473H34.0347ZM33.7452 13.0032C33.5584 13.404 33.3183 13.679 33.0351 13.8679L34.1445 15.532C34.766 15.1176 35.2339 14.5432 35.5579 13.8484L33.7452 13.0032ZM33.039 13.8653C32.7647 14.0462 32.4383 14.1477 32.0248 14.1477V16.1477C32.7931 16.1477 33.5099 15.9507 34.1405 15.5346L33.039 13.8653ZM32.0248 14.1477C31.6661 14.1477 31.4869 14.0862 31.413 14.0455L30.4484 15.7975C30.9222 16.0584 31.4725 16.1477 32.0248 16.1477V14.1477ZM31.4205 14.0497C31.2326 13.9441 31.1385 13.8527 31.0936 13.7938L29.5028 15.0059C29.7534 15.3348 30.0809 15.5912 30.4409 15.7934L31.4205 14.0497ZM31.0982 13.7999C30.9589 13.6141 30.8647 13.4776 30.8069 13.3842L29.1063 14.4369C29.2085 14.602 29.3421 14.7917 29.4982 14.9999L31.0982 13.7999ZM29.9566 12.9105H29.8643V14.9105H29.9566V12.9105ZM28.8643 13.9105V17.6591H30.8643V13.9105H28.8643ZM29.8643 16.6591H28.7748V18.6591H29.8643V16.6591ZM28.8458 11.4545C28.8458 12.0862 28.9382 12.684 29.1475 13.2298L31.0149 12.5138C30.9103 12.2409 30.8458 11.8939 30.8458 11.4545H28.8458ZM29.1484 13.2322C29.3618 13.7845 29.6931 14.2632 30.1613 14.6215L31.3768 13.0333C31.2419 12.93 31.1146 12.7716 31.014 12.5114L29.1484 13.2322ZM30.1665 14.6255C30.6679 15.0041 31.2579 15.169 31.877 15.169V13.169C31.6221 13.169 31.4735 13.1062 31.3717 13.0294L30.1665 14.6255ZM31.877 15.169C32.5163 15.169 33.1256 14.9967 33.6362 14.5944L32.3984 13.0235C32.2997 13.1013 32.1488 13.169 31.877 13.169V15.169ZM33.6372 14.5936C34.1037 14.2251 34.4355 13.7417 34.6458 13.1821L32.7738 12.4784C32.6763 12.7375 32.5464 12.9066 32.3974 13.0243L33.6372 14.5936ZM34.6444 13.186C34.8503 12.6448 34.9452 12.0636 34.9452 11.4545H32.9452C32.9452 11.855 32.8832 12.1909 32.7752 12.4746L34.6444 13.186ZM34.9452 11.4545C34.9452 10.8529 34.8523 10.2793 34.6478 9.74755L32.7811 10.4655C32.8843 10.734 32.9452 11.059 32.9452 11.4545H34.9452ZM34.651 9.75619C34.4418 9.19682 34.1065 8.71567 33.6316 8.35476L32.4215 9.94708C32.5621 10.054 32.6854 10.2099 32.7778 10.4569L34.651 9.75619ZM33.6405 8.36157C33.1277 7.96276 32.516 7.79545 31.877 7.79545V9.79545C32.1614 9.79545 32.316 9.86513 32.4126 9.94028L33.6405 8.36157ZM31.877 7.79545C31.2583 7.79545 30.666 7.9554 30.1625 8.3305L31.3572 9.93442C31.4569 9.86017 31.6094 9.79545 31.877 9.79545V7.79545ZM30.1678 8.32658C29.6905 8.6772 29.3556 9.15398 29.1433 9.70601L31.01 10.424C31.1054 10.1758 31.226 10.0309 31.3519 9.93834L30.1678 8.32658ZM29.1442 9.70359C28.9363 10.2401 28.8458 10.8306 28.8458 11.4545H30.8458C30.8458 11.0198 30.9092 10.6839 31.009 10.4264L29.1442 9.70359ZM39.742 5.54545H40.742V4.54545H39.742V5.54545ZM39.742 15V16H40.742V15H39.742ZM38.5972 15H37.5972V16H38.5972V15ZM38.5972 6.74574H39.5972V5.74574H38.5972V6.74574ZM38.5418 6.74574V5.74574H38.24L37.9886 5.91266L38.5418 6.74574ZM36.2335 8.27841H35.2335V10.1428L36.7867 9.11148L36.2335 8.27841ZM36.2335 7.11506L35.6803 6.28201L35.2335 6.57871V7.11506H36.2335ZM38.5972 5.54545V4.54545H38.2954L38.044 4.7124L38.5972 5.54545ZM38.742 5.54545V15H40.742V5.54545H38.742ZM39.742 14H38.5972V16H39.742V14ZM39.5972 15V6.74574H37.5972V15H39.5972ZM38.5972 5.74574H38.5418V7.74574H38.5972V5.74574ZM37.9886 5.91266L35.6804 7.44533L36.7867 9.11148L39.0949 7.57881L37.9886 5.91266ZM37.2335 8.27841V7.11506H35.2335V8.27841H37.2335ZM36.7867 7.94811L39.1504 6.3785L38.044 4.7124L35.6803 6.28201L36.7867 7.94811ZM38.5972 6.54545H39.742V4.54545H38.5972V6.54545Z" fill="black" mask="url(#path-2-outside-1_413_1099)"/>
</g>
<defs>
<filter id="filter0_d_413_1099" x="0.7771" y="1.54541" width="42.9648" height="20.1138" filterUnits="userSpaceOnUse" color-interpolation-filters="sRGB">
<feFlood flood-opacity="0" result="BackgroundImageFix"/>
<feColorMatrix in="SourceAlpha" type="matrix" values="0 0 0 0 0 0 0 0 0 0 0 0 0 0 0 0 0 0 127 0" result="hardAlpha"/>
<feOffset/>
<feGaussianBlur stdDeviation="2"/>
<feComposite in2="hardAlpha" operator="out"/>
<feColorMatrix type="matrix" values="0 0 0 0 0 0 0 0 0 0 0 0 0 0 0 0 0 0 0.4 0"/>
<feBlend mode="normal" in2="BackgroundImageFix" result="effect1_dropShadow_413_1099"/>
<feBlend mode="normal" in="SourceGraphic" in2="effect1_dropShadow_413_1099" result="shape"/>
</filter>
</defs>
</svg>
