<svg width="51" height="22" viewBox="0 0 51 22" fill="none" xmlns="http://www.w3.org/2000/svg">
<rect x="0.5" width="50" height="20" rx="1" fill="#E149FF"/>
<g filter="url(#filter0_d_413_1105)">
<mask id="path-2-outside-1_413_1105" maskUnits="userSpaceOnUse" x="2.5" y="4" width="44" height="15" fill="black">
<rect fill="white" x="2.5" y="4" width="44" height="15"/>
<path d="M7.44993 15L4.74467 5.54545H6.92827L8.49325 12.1147H8.57173L10.2983 5.54545H12.168L13.8899 12.1286H13.973L15.538 5.54545H17.7216L15.0163 15H13.0682L11.2678 8.81854H11.1939L9.39808 15H7.44993ZM18.0502 15V7.90909H19.9568V9.14631H20.0307C20.1599 8.7062 20.3769 8.37382 20.6816 8.14915C20.9863 7.9214 21.3371 7.80753 21.7341 7.80753C21.8326 7.80753 21.9388 7.81368 22.0527 7.82599C22.1666 7.8383 22.2666 7.85523 22.3527 7.87678V9.6218C22.2604 9.5941 22.1327 9.56948 21.9696 9.54794C21.8065 9.5264 21.6572 9.51562 21.5218 9.51562C21.2325 9.51562 20.974 9.57872 20.7462 9.7049C20.5215 9.82801 20.343 10.0004 20.2107 10.2219C20.0814 10.4435 20.0168 10.699 20.0168 10.9883V15H18.0502ZM24.9284 15.1339C24.476 15.1339 24.0728 15.0554 23.7189 14.8984C23.365 14.7384 23.0849 14.503 22.8787 14.1921C22.6756 13.8782 22.574 13.4873 22.574 13.0195C22.574 12.6256 22.6463 12.2947 22.791 12.027C22.9356 11.7592 23.1326 11.5438 23.3819 11.3807C23.6312 11.2176 23.9143 11.0945 24.2313 11.0114C24.5514 10.9283 24.8869 10.8698 25.2377 10.8359C25.6501 10.7929 25.9825 10.7528 26.2349 10.7159C26.4872 10.6759 26.6704 10.6174 26.7842 10.5405C26.8981 10.4635 26.9551 10.3497 26.9551 10.1989V10.1712C26.9551 9.87879 26.8627 9.65258 26.6781 9.49254C26.4965 9.3325 26.238 9.25249 25.9025 9.25249C25.5486 9.25249 25.267 9.33097 25.0577 9.48793C24.8484 9.64181 24.7099 9.8357 24.6422 10.0696L22.8233 9.92188C22.9156 9.491 23.0972 9.11861 23.3681 8.80469C23.6389 8.48769 23.9882 8.24455 24.416 8.07528C24.8469 7.90294 25.3454 7.81676 25.9117 7.81676C26.3057 7.81676 26.6827 7.86293 27.0428 7.95526C27.4059 8.04759 27.7275 8.1907 28.0076 8.38459C28.2908 8.57848 28.5139 8.82777 28.677 9.13246C28.8401 9.43407 28.9217 9.79569 28.9217 10.2173V15H27.0566V14.0167H27.0012C26.8873 14.2383 26.735 14.4337 26.5442 14.603C26.3534 14.7692 26.1241 14.9 25.8563 14.9954C25.5886 15.0877 25.2793 15.1339 24.9284 15.1339ZM25.4916 13.7766C25.7809 13.7766 26.0364 13.7197 26.258 13.6058C26.4796 13.4889 26.6534 13.3319 26.7796 13.1349C26.9058 12.938 26.9689 12.7148 26.9689 12.4656V11.7131C26.9073 11.7531 26.8227 11.79 26.715 11.8239C26.6104 11.8546 26.4919 11.8839 26.3595 11.9116C26.2272 11.9362 26.0948 11.9593 25.9625 11.9808C25.8302 11.9993 25.7101 12.0162 25.6024 12.0316C25.3716 12.0655 25.17 12.1193 24.9977 12.1932C24.8253 12.267 24.6914 12.3671 24.596 12.4933C24.5006 12.6164 24.4529 12.7702 24.4529 12.9549C24.4529 13.2227 24.5499 13.4273 24.7438 13.5689C24.9407 13.7074 25.19 13.7766 25.4916 13.7766ZM30.1874 17.6591V7.90909H32.1263V9.10014H32.2141C32.3002 8.90933 32.4249 8.71544 32.588 8.51847C32.7542 8.31842 32.9696 8.15223 33.2343 8.01989C33.502 7.88447 33.8344 7.81676 34.2315 7.81676C34.7485 7.81676 35.2255 7.95218 35.6626 8.22301C36.0996 8.49077 36.4489 8.89548 36.7105 9.43714C36.9721 9.97573 37.1029 10.6513 37.1029 11.4638C37.1029 12.2547 36.9752 12.9226 36.7197 13.4673C36.4674 14.009 36.1227 14.4199 35.6856 14.6999C35.2517 14.9769 34.7654 15.1154 34.2268 15.1154C33.8452 15.1154 33.5205 15.0523 33.2528 14.9261C32.9881 14.8 32.7711 14.6415 32.6018 14.4506C32.4326 14.2567 32.3033 14.0613 32.2141 13.8643H32.154V17.6591H30.1874ZM32.1125 11.4545C32.1125 11.8762 32.171 12.244 32.2879 12.5579C32.4049 12.8718 32.5741 13.1165 32.7957 13.2919C33.0173 13.4643 33.2866 13.5504 33.6036 13.5504C33.9237 13.5504 34.1945 13.4627 34.4161 13.2873C34.6377 13.1088 34.8054 12.8626 34.9193 12.5487C35.0363 12.2317 35.0947 11.867 35.0947 11.4545C35.0947 11.0452 35.0378 10.6851 34.9239 10.3743C34.8101 10.0634 34.6423 9.82031 34.4207 9.64489C34.1991 9.46946 33.9268 9.38175 33.6036 9.38175C33.2835 9.38175 33.0127 9.46638 32.7911 9.63565C32.5726 9.80492 32.4049 10.045 32.2879 10.3558C32.171 10.6667 32.1125 11.0329 32.1125 11.4545ZM38.1355 15V13.5597L41.5009 10.4435C41.7871 10.1665 42.0272 9.91726 42.2211 9.69567C42.4181 9.47408 42.5673 9.2571 42.6689 9.04474C42.7705 8.82931 42.8212 8.59695 42.8212 8.34766C42.8212 8.07067 42.7581 7.83215 42.632 7.6321C42.5058 7.42898 42.3334 7.27356 42.1149 7.16584C41.8964 7.05504 41.6487 6.99964 41.3717 6.99964C41.0824 6.99964 40.83 7.05812 40.6146 7.17507C40.3991 7.29202 40.2329 7.45975 40.116 7.67827C39.999 7.89678 39.9406 8.15684 39.9406 8.45845H38.0432C38.0432 7.83984 38.1832 7.30279 38.4633 6.8473C38.7434 6.39181 39.1358 6.03942 39.6405 5.79013C40.1452 5.54084 40.7269 5.41619 41.3855 5.41619C42.0626 5.41619 42.652 5.53622 43.1536 5.77628C43.6584 6.01326 44.0508 6.34257 44.3308 6.7642C44.6109 7.18584 44.7509 7.66903 44.7509 8.21378C44.7509 8.57079 44.6801 8.92318 44.5386 9.27095C44.4001 9.61873 44.1523 10.005 43.7953 10.4297C43.4383 10.8513 42.9351 11.3576 42.2857 11.9485L40.9054 13.3011V13.3658H44.8756V15H38.1355Z"/>
</mask>
<path d="M7.44993 15L4.74467 5.54545H6.92827L8.49325 12.1147H8.57173L10.2983 5.54545H12.168L13.8899 12.1286H13.973L15.538 5.54545H17.7216L15.0163 15H13.0682L11.2678 8.81854H11.1939L9.39808 15H7.44993ZM18.0502 15V7.90909H19.9568V9.14631H20.0307C20.1599 8.7062 20.3769 8.37382 20.6816 8.14915C20.9863 7.9214 21.3371 7.80753 21.7341 7.80753C21.8326 7.80753 21.9388 7.81368 22.0527 7.82599C22.1666 7.8383 22.2666 7.85523 22.3527 7.87678V9.6218C22.2604 9.5941 22.1327 9.56948 21.9696 9.54794C21.8065 9.5264 21.6572 9.51562 21.5218 9.51562C21.2325 9.51562 20.974 9.57872 20.7462 9.7049C20.5215 9.82801 20.343 10.0004 20.2107 10.2219C20.0814 10.4435 20.0168 10.699 20.0168 10.9883V15H18.0502ZM24.9284 15.1339C24.476 15.1339 24.0728 15.0554 23.7189 14.8984C23.365 14.7384 23.0849 14.503 22.8787 14.1921C22.6756 13.8782 22.574 13.4873 22.574 13.0195C22.574 12.6256 22.6463 12.2947 22.791 12.027C22.9356 11.7592 23.1326 11.5438 23.3819 11.3807C23.6312 11.2176 23.9143 11.0945 24.2313 11.0114C24.5514 10.9283 24.8869 10.8698 25.2377 10.8359C25.6501 10.7929 25.9825 10.7528 26.2349 10.7159C26.4872 10.6759 26.6704 10.6174 26.7842 10.5405C26.8981 10.4635 26.9551 10.3497 26.9551 10.1989V10.1712C26.9551 9.87879 26.8627 9.65258 26.6781 9.49254C26.4965 9.3325 26.238 9.25249 25.9025 9.25249C25.5486 9.25249 25.267 9.33097 25.0577 9.48793C24.8484 9.64181 24.7099 9.8357 24.6422 10.0696L22.8233 9.92188C22.9156 9.491 23.0972 9.11861 23.3681 8.80469C23.6389 8.48769 23.9882 8.24455 24.416 8.07528C24.8469 7.90294 25.3454 7.81676 25.9117 7.81676C26.3057 7.81676 26.6827 7.86293 27.0428 7.95526C27.4059 8.04759 27.7275 8.1907 28.0076 8.38459C28.2908 8.57848 28.5139 8.82777 28.677 9.13246C28.8401 9.43407 28.9217 9.79569 28.9217 10.2173V15H27.0566V14.0167H27.0012C26.8873 14.2383 26.735 14.4337 26.5442 14.603C26.3534 14.7692 26.1241 14.9 25.8563 14.9954C25.5886 15.0877 25.2793 15.1339 24.9284 15.1339ZM25.4916 13.7766C25.7809 13.7766 26.0364 13.7197 26.258 13.6058C26.4796 13.4889 26.6534 13.3319 26.7796 13.1349C26.9058 12.938 26.9689 12.7148 26.9689 12.4656V11.7131C26.9073 11.7531 26.8227 11.79 26.715 11.8239C26.6104 11.8546 26.4919 11.8839 26.3595 11.9116C26.2272 11.9362 26.0948 11.9593 25.9625 11.9808C25.8302 11.9993 25.7101 12.0162 25.6024 12.0316C25.3716 12.0655 25.17 12.1193 24.9977 12.1932C24.8253 12.267 24.6914 12.3671 24.596 12.4933C24.5006 12.6164 24.4529 12.7702 24.4529 12.9549C24.4529 13.2227 24.5499 13.4273 24.7438 13.5689C24.9407 13.7074 25.19 13.7766 25.4916 13.7766ZM30.1874 17.6591V7.90909H32.1263V9.10014H32.2141C32.3002 8.90933 32.4249 8.71544 32.588 8.51847C32.7542 8.31842 32.9696 8.15223 33.2343 8.01989C33.502 7.88447 33.8344 7.81676 34.2315 7.81676C34.7485 7.81676 35.2255 7.95218 35.6626 8.22301C36.0996 8.49077 36.4489 8.89548 36.7105 9.43714C36.9721 9.97573 37.1029 10.6513 37.1029 11.4638C37.1029 12.2547 36.9752 12.9226 36.7197 13.4673C36.4674 14.009 36.1227 14.4199 35.6856 14.6999C35.2517 14.9769 34.7654 15.1154 34.2268 15.1154C33.8452 15.1154 33.5205 15.0523 33.2528 14.9261C32.9881 14.8 32.7711 14.6415 32.6018 14.4506C32.4326 14.2567 32.3033 14.0613 32.2141 13.8643H32.154V17.6591H30.1874ZM32.1125 11.4545C32.1125 11.8762 32.171 12.244 32.2879 12.5579C32.4049 12.8718 32.5741 13.1165 32.7957 13.2919C33.0173 13.4643 33.2866 13.5504 33.6036 13.5504C33.9237 13.5504 34.1945 13.4627 34.4161 13.2873C34.6377 13.1088 34.8054 12.8626 34.9193 12.5487C35.0363 12.2317 35.0947 11.867 35.0947 11.4545C35.0947 11.0452 35.0378 10.6851 34.9239 10.3743C34.8101 10.0634 34.6423 9.82031 34.4207 9.64489C34.1991 9.46946 33.9268 9.38175 33.6036 9.38175C33.2835 9.38175 33.0127 9.46638 32.7911 9.63565C32.5726 9.80492 32.4049 10.045 32.2879 10.3558C32.171 10.6667 32.1125 11.0329 32.1125 11.4545ZM38.1355 15V13.5597L41.5009 10.4435C41.7871 10.1665 42.0272 9.91726 42.2211 9.69567C42.4181 9.47408 42.5673 9.2571 42.6689 9.04474C42.7705 8.82931 42.8212 8.59695 42.8212 8.34766C42.8212 8.07067 42.7581 7.83215 42.632 7.6321C42.5058 7.42898 42.3334 7.27356 42.1149 7.16584C41.8964 7.05504 41.6487 6.99964 41.3717 6.99964C41.0824 6.99964 40.83 7.05812 40.6146 7.17507C40.3991 7.29202 40.2329 7.45975 40.116 7.67827C39.999 7.89678 39.9406 8.15684 39.9406 8.45845H38.0432C38.0432 7.83984 38.1832 7.30279 38.4633 6.8473C38.7434 6.39181 39.1358 6.03942 39.6405 5.79013C40.1452 5.54084 40.7269 5.41619 41.3855 5.41619C42.0626 5.41619 42.652 5.53622 43.1536 5.77628C43.6584 6.01326 44.0508 6.34257 44.3308 6.7642C44.6109 7.18584 44.7509 7.66903 44.7509 8.21378C44.7509 8.57079 44.6801 8.92318 44.5386 9.27095C44.4001 9.61873 44.1523 10.005 43.7953 10.4297C43.4383 10.8513 42.9351 11.3576 42.2857 11.9485L40.9054 13.3011V13.3658H44.8756V15H38.1355Z" fill="#C9C9C9"/>
<path d="M7.44993 15L6.48851 15.2751L6.69593 16H7.44993V15ZM4.74467 5.54545V4.54545H3.41841L3.78326 5.82055L4.74467 5.54545ZM6.92827 5.54545L7.90104 5.31371L7.71802 4.54545H6.92827V5.54545ZM8.49325 12.1147L7.52048 12.3464L7.7035 13.1147H8.49325V12.1147ZM8.57173 12.1147V13.1147H9.34287L9.53889 12.3689L8.57173 12.1147ZM10.2983 5.54545V4.54545H9.52716L9.33114 5.29126L10.2983 5.54545ZM12.168 5.54545L13.1354 5.2924L12.94 4.54545H12.168V5.54545ZM13.8899 12.1286L12.9225 12.3816L13.1178 13.1286H13.8899V12.1286ZM13.973 12.1286V13.1286H14.7632L14.9459 12.3598L13.973 12.1286ZM15.538 5.54545V4.54545H14.7479L14.5651 5.31417L15.538 5.54545ZM17.7216 5.54545L18.683 5.82055L19.0479 4.54545H17.7216V5.54545ZM15.0163 15V16H15.7703L15.9778 15.2751L15.0163 15ZM13.0682 15L12.1081 15.2796L12.3179 16H13.0682V15ZM11.2678 8.81854L12.2279 8.53889L12.018 7.81854H11.2678V8.81854ZM11.1939 8.81854V7.81854H10.4431L10.2336 8.53956L11.1939 8.81854ZM9.39808 15V16H10.1489L10.3584 15.279L9.39808 15ZM8.41135 14.7249L5.70609 5.27036L3.78326 5.82055L6.48851 15.2751L8.41135 14.7249ZM4.74467 6.54545H6.92827V4.54545H4.74467V6.54545ZM5.95549 5.7772L7.52048 12.3464L9.46603 11.883L7.90104 5.31371L5.95549 5.7772ZM8.49325 13.1147H8.57173V11.1147H8.49325V13.1147ZM9.53889 12.3689L11.2654 5.79965L9.33114 5.29126L7.60458 11.8605L9.53889 12.3689ZM10.2983 6.54545H12.168V4.54545H10.2983V6.54545ZM11.2005 5.79851L12.9225 12.3816L14.8574 11.8755L13.1354 5.2924L11.2005 5.79851ZM13.8899 13.1286H13.973V11.1286H13.8899V13.1286ZM14.9459 12.3598L16.5109 5.77674L14.5651 5.31417L13.0001 11.8973L14.9459 12.3598ZM15.538 6.54545H17.7216V4.54545H15.538V6.54545ZM16.7602 5.27036L14.0549 14.7249L15.9778 15.2751L18.683 5.82055L16.7602 5.27036ZM15.0163 14H13.0682V16H15.0163V14ZM14.0283 14.7204L12.2279 8.53889L10.3077 9.09818L12.1081 15.2796L14.0283 14.7204ZM11.2678 7.81854H11.1939V9.81854H11.2678V7.81854ZM10.2336 8.53956L8.43779 14.721L10.3584 15.279L12.1542 9.09752L10.2336 8.53956ZM9.39808 14H7.44993V16H9.39808V14ZM18.0502 15H17.0502V16H18.0502V15ZM18.0502 7.90909V6.90909H17.0502V7.90909H18.0502ZM19.9568 7.90909H20.9568V6.90909H19.9568V7.90909ZM19.9568 9.14631H18.9568V10.1463H19.9568V9.14631ZM20.0307 9.14631V10.1463H20.7792L20.9901 9.42811L20.0307 9.14631ZM20.6816 8.14915L21.2751 8.95402L21.2803 8.95012L20.6816 8.14915ZM22.0527 7.82599L22.1602 6.83179L22.1602 6.83179L22.0527 7.82599ZM22.3527 7.87678H23.3527V7.096L22.5953 6.90663L22.3527 7.87678ZM22.3527 9.6218L22.0654 10.5796L23.3527 10.9658V9.6218H22.3527ZM20.7462 9.7049L21.2268 10.5819L21.2309 10.5796L20.7462 9.7049ZM20.2107 10.2219L19.3521 9.70918L19.3469 9.71808L20.2107 10.2219ZM20.0168 15V16H21.0168V15H20.0168ZM19.0502 15V7.90909H17.0502V15H19.0502ZM18.0502 8.90909H19.9568V6.90909H18.0502V8.90909ZM18.9568 7.90909V9.14631H20.9568V7.90909H18.9568ZM19.9568 10.1463H20.0307V8.14631H19.9568V10.1463ZM20.9901 9.42811C21.0712 9.15209 21.181 9.02337 21.2751 8.954L20.0881 7.3443C19.5728 7.72426 19.2486 8.26032 19.0712 8.8645L20.9901 9.42811ZM21.2803 8.95012C21.4042 8.8575 21.5428 8.80753 21.7341 8.80753V6.80753C21.1314 6.80753 20.5683 6.98531 20.0829 7.34818L21.2803 8.95012ZM21.7341 8.80753C21.7915 8.80753 21.8614 8.81114 21.9452 8.8202L22.1602 6.83179C22.0162 6.81622 21.8737 6.80753 21.7341 6.80753V8.80753ZM21.9452 8.8202C22.0258 8.82892 22.079 8.83912 22.1102 8.84692L22.5953 6.90663C22.4541 6.87135 22.3073 6.84769 22.1602 6.83179L21.9452 8.8202ZM21.3527 7.87678V9.6218H23.3527V7.87678H21.3527ZM22.6401 8.66398C22.4733 8.61393 22.2852 8.58094 22.1005 8.55655L21.8386 10.5393C21.9802 10.558 22.0476 10.5743 22.0654 10.5796L22.6401 8.66398ZM22.1005 8.55655C21.9029 8.53044 21.7091 8.51562 21.5218 8.51562V10.5156C21.6053 10.5156 21.7101 10.5224 21.8386 10.5393L22.1005 8.55655ZM21.5218 8.51562C21.0822 8.51562 20.6536 8.61299 20.2616 8.83019L21.2309 10.5796C21.2943 10.5444 21.3828 10.5156 21.5218 10.5156V8.51562ZM20.2657 8.82792C19.8836 9.03729 19.5751 9.33591 19.3522 9.7092L21.0692 10.7347C21.111 10.6648 21.1595 10.6187 21.2267 10.5819L20.2657 8.82792ZM19.3469 9.71808C19.1175 10.1114 19.0168 10.545 19.0168 10.9883H21.0168C21.0168 10.853 21.0454 10.7757 21.0745 10.7258L19.3469 9.71808ZM19.0168 10.9883V15H21.0168V10.9883H19.0168ZM20.0168 14H18.0502V16H20.0168V14ZM23.7189 14.8984L23.3069 15.8096L23.3135 15.8126L23.7189 14.8984ZM22.8787 14.1921L22.0391 14.7354L22.0454 14.7449L22.8787 14.1921ZM22.791 12.027L21.9112 11.5517L22.791 12.027ZM23.3819 11.3807L22.8344 10.5439V10.5439L23.3819 11.3807ZM24.2313 11.0114L23.98 10.0434L23.9778 10.044L24.2313 11.0114ZM25.2377 10.8359L25.3338 11.8313L25.3416 11.8305L25.2377 10.8359ZM26.2349 10.7159L26.3797 11.7054L26.3915 11.7036L26.2349 10.7159ZM26.7842 10.5405L26.2244 9.71189L26.2244 9.71189L26.7842 10.5405ZM26.6781 9.49254L26.0168 10.2428L26.0231 10.2482L26.6781 9.49254ZM25.0577 9.48793L25.6501 10.2936L25.6577 10.2879L25.0577 9.48793ZM24.6422 10.0696L24.5612 11.0663L25.3756 11.1325L25.6028 10.3477L24.6422 10.0696ZM22.8233 9.92188L21.8455 9.71235L21.6068 10.8264L22.7424 10.9186L22.8233 9.92188ZM23.368 8.80469L24.1252 9.45793L24.1283 9.45426L23.368 8.80469ZM24.416 8.07528L24.7839 9.00514L24.7874 9.00376L24.416 8.07528ZM27.0428 7.95526L26.7944 8.92392L26.7964 8.92442L27.0428 7.95526ZM28.0076 8.38459L27.4384 9.20679L27.4426 9.20967L28.0076 8.38459ZM28.677 9.13246L27.7954 9.60444L27.7974 9.60816L28.677 9.13246ZM28.9217 15V16H29.9217V15H28.9217ZM27.0566 15H26.0566V16H27.0566V15ZM27.0566 14.0167H28.0566V13.0167H27.0566V14.0167ZM27.0012 14.0167V13.0167H26.3908L26.1118 13.5596L27.0012 14.0167ZM26.5442 14.603L27.201 15.3571L27.2078 15.3511L26.5442 14.603ZM25.8563 14.9954L26.1823 15.9408L26.192 15.9374L25.8563 14.9954ZM26.258 13.6058L26.7151 14.4953L26.7247 14.4902L26.258 13.6058ZM26.7796 13.1349L25.9376 12.5955L25.9376 12.5955L26.7796 13.1349ZM26.9689 11.7131H27.9689V9.87039L26.4239 10.8746L26.9689 11.7131ZM26.715 11.8239L26.9972 12.7832L27.006 12.7806L27.0148 12.7779L26.715 11.8239ZM26.3595 11.9116L26.5424 12.8947L26.5534 12.8927L26.5644 12.8904L26.3595 11.9116ZM25.9625 11.9808L26.1007 12.9712L26.112 12.9697L26.1232 12.9678L25.9625 11.9808ZM25.6024 12.0316L25.461 11.0416L25.4573 11.0422L25.6024 12.0316ZM24.9977 12.1932L25.3916 13.1123L24.9977 12.1932ZM24.596 12.4933L25.3865 13.1059L25.3937 13.0964L24.596 12.4933ZM24.7438 13.5689L24.1541 14.3765L24.1613 14.3818L24.1686 14.3869L24.7438 13.5689ZM24.9284 14.1339C24.5924 14.1339 24.3309 14.0759 24.1243 13.9843L23.3135 15.8126C23.8148 16.0349 24.3597 16.1339 24.9284 16.1339V14.1339ZM24.1309 13.9873C23.9409 13.9013 23.8099 13.7868 23.712 13.6393L22.0454 14.7449C22.36 15.2191 22.7891 15.5755 23.3069 15.8096L24.1309 13.9873ZM23.7183 13.6489C23.6433 13.5331 23.574 13.3429 23.574 13.0195H21.574C21.574 13.6318 21.7078 14.2233 22.0391 14.7354L23.7183 13.6489ZM23.574 13.0195C23.574 12.7441 23.6249 12.5873 23.6708 12.5023L21.9112 11.5517C21.6678 12.0022 21.574 12.5071 21.574 13.0195H23.574ZM23.6708 12.5023C23.7382 12.3775 23.8223 12.2876 23.9294 12.2175L22.8344 10.5439C22.4429 10.8 22.133 11.141 21.9112 11.5517L23.6708 12.5023ZM23.9294 12.2175C24.0799 12.119 24.2619 12.0371 24.4849 11.9787L23.9778 10.044C23.5668 10.1518 23.1825 10.3161 22.8344 10.5439L23.9294 12.2175ZM24.4826 11.9793C24.7485 11.9102 25.0319 11.8604 25.3338 11.8313L25.1417 9.84056C24.7418 9.87914 24.3543 9.94629 23.98 10.0435L24.4826 11.9793ZM25.3416 11.8305C25.7604 11.7868 26.108 11.7451 26.3797 11.7054L26.0901 9.72645C25.857 9.76056 25.5398 9.79893 25.1338 9.84135L25.3416 11.8305ZM26.3915 11.7036C26.685 11.657 27.045 11.5712 27.3441 11.3691L26.2244 9.71189C26.2495 9.69493 26.2667 9.68681 26.271 9.68484C26.2755 9.68277 26.2718 9.6848 26.2573 9.68944C26.2267 9.6992 26.1697 9.71376 26.0783 9.72824L26.3915 11.7036ZM27.3441 11.3691C27.7633 11.0858 27.9551 10.6438 27.9551 10.1989H25.9551C25.9551 10.1475 25.9653 10.0555 26.0179 9.95016C26.0724 9.84121 26.1505 9.76179 26.2244 9.71189L27.3441 11.3691ZM27.9551 10.1989V10.1712H25.9551V10.1989H27.9551ZM27.9551 10.1712C27.9551 9.65127 27.78 9.12426 27.333 8.73685L26.0231 10.2482C26.0118 10.2384 25.9989 10.2249 25.9866 10.2077C25.9743 10.1906 25.9656 10.174 25.96 10.1601C25.9485 10.1321 25.9551 10.1296 25.9551 10.1712H27.9551ZM27.3393 8.74233C26.9151 8.36848 26.3874 8.25249 25.9025 8.25249V10.2525C25.993 10.2525 26.0385 10.2635 26.0523 10.2678C26.0626 10.271 26.0439 10.2666 26.0169 10.2428L27.3393 8.74233ZM25.9025 8.25249C25.4076 8.25249 24.892 8.36219 24.4577 8.68793L25.6577 10.2879C25.6419 10.2997 25.6895 10.2525 25.9025 10.2525V8.25249ZM24.4653 8.68228C24.0912 8.95736 23.8148 9.33142 23.6816 9.79154L25.6028 10.3477C25.6059 10.3369 25.6085 10.3329 25.6106 10.33C25.6131 10.3265 25.623 10.3135 25.6501 10.2936L24.4653 8.68228ZM24.7232 9.07288L22.9043 8.92516L22.7424 10.9186L24.5612 11.0663L24.7232 9.07288ZM23.8011 10.1314C23.8606 9.85396 23.9709 9.6368 24.1252 9.45792L22.6109 8.15145C22.2236 8.60041 21.9707 9.12805 21.8455 9.71235L23.8011 10.1314ZM24.1283 9.45426C24.2826 9.27374 24.4918 9.12071 24.7839 9.00514L24.0481 7.14543C23.4846 7.3684 22.9952 7.70164 22.6078 8.15511L24.1283 9.45426ZM24.7874 9.00376C25.0772 8.88782 25.4454 8.81676 25.9117 8.81676V6.81676C25.2454 6.81676 24.6165 6.91806 24.0446 7.14681L24.7874 9.00376ZM25.9117 8.81676C26.2269 8.81676 26.5202 8.8536 26.7944 8.92392L27.2911 6.98659C26.8452 6.87225 26.3845 6.81676 25.9117 6.81676V8.81676ZM26.7964 8.92442C27.0556 8.99032 27.2657 9.08719 27.4384 9.20678L28.5768 7.5624C28.1894 7.2942 27.7563 7.10485 27.2892 6.98609L26.7964 8.92442ZM27.4426 9.20967C27.5924 9.31229 27.7074 9.44009 27.7954 9.60443L29.5586 8.66048C29.3204 8.21545 28.9891 7.84467 28.5726 7.5595L27.4426 9.20967ZM27.7974 9.60816C27.8653 9.73376 27.9217 9.92411 27.9217 10.2173H29.9217C29.9217 9.66727 29.8149 9.13437 29.5566 8.65675L27.7974 9.60816ZM27.9217 10.2173V15H29.9217V10.2173H27.9217ZM28.9217 14H27.0566V16H28.9217V14ZM28.0566 15V14.0167H26.0566V15H28.0566ZM27.0566 13.0167H27.0012V15.0167H27.0566V13.0167ZM26.1118 13.5596C26.0559 13.6684 25.981 13.7658 25.8806 13.8549L27.2078 15.3511C27.489 15.1016 27.7188 14.8081 27.8906 14.4738L26.1118 13.5596ZM25.8874 13.8489C25.8019 13.9234 25.685 13.9948 25.5207 14.0534L26.192 15.9374C26.5631 15.8051 26.9049 15.6149 27.201 15.3571L25.8874 13.8489ZM25.5303 14.05C25.3891 14.0987 25.1938 14.1339 24.9284 14.1339V16.1339C25.3648 16.1339 25.7881 16.0767 26.1823 15.9408L25.5303 14.05ZM25.4916 14.7766C25.9142 14.7766 26.3309 14.6927 26.715 14.4953L25.8009 12.7164C25.7419 12.7467 25.6476 12.7766 25.4916 12.7766V14.7766ZM26.7247 14.4902C27.0879 14.2985 27.3957 14.0271 27.6217 13.6744L25.9376 12.5955C25.9112 12.6367 25.8712 12.6792 25.7912 12.7214L26.7247 14.4902ZM27.6217 13.6744C27.8579 13.3057 27.9689 12.8929 27.9689 12.4656H25.9689C25.9689 12.5368 25.9538 12.5703 25.9376 12.5955L27.6217 13.6744ZM27.9689 12.4656V11.7131H25.9689V12.4656H27.9689ZM26.4239 10.8746C26.4372 10.866 26.4471 10.8605 26.4527 10.8576C26.4583 10.8546 26.4607 10.8536 26.4593 10.8542C26.458 10.8548 26.4537 10.8566 26.4461 10.8594C26.4385 10.8622 26.4283 10.8657 26.4152 10.8699L27.0148 12.7779C27.168 12.7297 27.347 12.66 27.5139 12.5515L26.4239 10.8746ZM26.4328 10.8645C26.3589 10.8863 26.2669 10.9093 26.1547 10.9328L26.5644 12.8904C26.7169 12.8585 26.8619 12.823 26.9972 12.7832L26.4328 10.8645ZM26.1766 10.9284C26.0516 10.9517 25.9267 10.9735 25.8018 10.9938L26.1232 12.9678C26.263 12.9451 26.4027 12.9207 26.5424 12.8947L26.1766 10.9284ZM25.8243 10.9904C25.6911 11.009 25.57 11.0261 25.461 11.0417L25.7438 13.0216C25.8503 13.0063 25.9692 12.9896 26.1007 12.9712L25.8243 10.9904ZM25.4573 11.0422C25.1608 11.0857 24.8722 11.159 24.6037 11.274L25.3916 13.1123C25.4678 13.0797 25.5824 13.0452 25.7475 13.021L25.4573 11.0422ZM24.6037 11.274C24.3014 11.4036 24.0165 11.6016 23.7984 11.8901L25.3937 13.0964C25.3879 13.104 25.3822 13.1104 25.3771 13.1154C25.3721 13.1204 25.3683 13.1234 25.3665 13.1247C25.363 13.1273 25.3694 13.1219 25.3916 13.1123L24.6037 11.274ZM23.8056 11.8807C23.5503 12.2101 23.4529 12.5911 23.4529 12.9549H25.4529C25.4529 12.9486 25.4537 12.9653 25.4439 12.9971C25.4335 13.0307 25.4147 13.0694 25.3864 13.1058L23.8056 11.8807ZM23.4529 12.9549C23.4529 13.4994 23.6698 14.0229 24.1541 14.3765L25.3335 12.7613C25.3628 12.7827 25.4021 12.8237 25.4294 12.8811C25.4548 12.9348 25.4529 12.9675 25.4529 12.9549H23.4529ZM24.1686 14.3869C24.5723 14.6708 25.0365 14.7766 25.4916 14.7766V12.7766C25.4167 12.7766 25.3706 12.768 25.3461 12.7612C25.334 12.7578 25.3268 12.7548 25.3233 12.7532C25.3215 12.7524 25.3204 12.7517 25.3198 12.7514C25.3192 12.7511 25.319 12.7509 25.3189 12.7509L24.1686 14.3869ZM30.1874 17.6591H29.1874V18.6591H30.1874V17.6591ZM30.1874 7.90909V6.90909H29.1874V7.90909H30.1874ZM32.1263 7.90909H33.1263V6.90909H32.1263V7.90909ZM32.1263 9.10014H31.1263V10.1001H32.1263V9.10014ZM32.2141 9.10014V10.1001H32.8597L33.1254 9.51173L32.2141 9.10014ZM32.588 8.51847L31.8188 7.87945L31.8178 7.88065L32.588 8.51847ZM33.2343 8.01989L33.6815 8.91432L33.6856 8.91225L33.2343 8.01989ZM35.6626 8.22301L35.1358 9.07303L35.1401 9.0757L35.6626 8.22301ZM36.7105 9.43714L35.81 9.87204L35.811 9.87405L36.7105 9.43714ZM36.7197 13.4673L35.8143 13.0428L35.8133 13.045L36.7197 13.4673ZM35.6856 14.6999L36.2237 15.5429L36.2252 15.5419L35.6856 14.6999ZM33.2528 14.9261L32.8224 15.8288L32.8265 15.8307L33.2528 14.9261ZM32.6018 14.4506L31.8485 15.1083L31.8538 15.1143L32.6018 14.4506ZM32.2141 13.8643L33.1249 13.4516L32.8588 12.8643H32.2141V13.8643ZM32.154 13.8643V12.8643H31.154V13.8643H32.154ZM32.154 17.6591V18.6591H33.154V17.6591H32.154ZM32.7957 13.2919L32.175 14.076L32.1818 14.0813L32.7957 13.2919ZM34.4161 13.2873L35.0368 14.0714L35.0434 14.066L34.4161 13.2873ZM34.9193 12.5487L33.9811 12.2025L33.9792 12.2076L34.9193 12.5487ZM34.9239 10.3743L35.8629 10.0303V10.0303L34.9239 10.3743ZM34.4207 9.64489L35.0414 8.86084L35.0414 8.86084L34.4207 9.64489ZM32.7911 9.63565L32.1841 8.84096L32.1787 8.8451L32.7911 9.63565ZM32.2879 10.3558L31.352 10.0037L32.2879 10.3558ZM31.1874 17.6591V7.90909H29.1874V17.6591H31.1874ZM30.1874 8.90909H32.1263V6.90909H30.1874V8.90909ZM31.1263 7.90909V9.10014H33.1263V7.90909H31.1263ZM32.1263 10.1001H32.2141V8.10014H32.1263V10.1001ZM33.1254 9.51173C33.1678 9.41791 33.2399 9.29907 33.3582 9.15628L31.8178 7.88065C31.6098 8.1318 31.4327 8.40074 31.3027 8.68856L33.1254 9.51173ZM33.3572 9.15749C33.4235 9.07767 33.5237 8.99324 33.6815 8.91431L32.7871 7.12546C32.4156 7.31121 32.0849 7.55916 31.8188 7.87945L33.3572 9.15749ZM33.6856 8.91225C33.7757 8.86668 33.9426 8.81676 34.2315 8.81676V6.81676C33.7262 6.81676 33.2284 6.90225 32.783 7.12752L33.6856 8.91225ZM34.2315 8.81676C34.5635 8.81676 34.8579 8.90082 35.1358 9.07302L36.1893 7.373C35.5931 7.00354 34.9335 6.81676 34.2315 6.81676V8.81676ZM35.1401 9.0757C35.387 9.22696 35.617 9.47248 35.81 9.87204L37.611 9.00225C37.2808 8.31848 36.8121 7.75457 36.185 7.37032L35.1401 9.0757ZM35.811 9.87405C35.9872 10.2369 36.1029 10.7514 36.1029 11.4638H38.1029C38.1029 10.5512 37.957 9.71458 37.61 9.00024L35.811 9.87405ZM36.1029 11.4638C36.1029 12.1522 35.9911 12.6658 35.8143 13.0428L37.6251 13.8919C37.9592 13.1794 38.1029 12.3573 38.1029 11.4638H36.1029ZM35.8133 13.045C35.6286 13.4414 35.4005 13.6949 35.1461 13.858L36.2252 15.5419C36.8448 15.1448 37.3061 14.5766 37.6262 13.8897L35.8133 13.045ZM35.1476 13.857C34.882 14.0265 34.584 14.1154 34.2268 14.1154V16.1154C34.9468 16.1154 35.6214 15.9273 36.2237 15.5429L35.1476 13.857ZM34.2268 14.1154C33.9515 14.1154 33.7807 14.0695 33.6791 14.0216L32.8265 15.8307C33.2603 16.0352 33.7389 16.1154 34.2268 16.1154V14.1154ZM33.6831 14.0235C33.5213 13.9463 33.418 13.8638 33.3499 13.787L31.8538 15.1143C32.1242 15.4191 32.4548 15.6536 32.8224 15.8288L33.6831 14.0235ZM33.3552 13.793C33.2382 13.6591 33.1671 13.5447 33.1249 13.4516L31.3032 14.2771C31.4395 14.5779 31.6269 14.8544 31.8485 15.1083L33.3552 13.793ZM32.2141 12.8643H32.154V14.8643H32.2141V12.8643ZM31.154 13.8643V17.6591H33.154V13.8643H31.154ZM32.154 16.6591H30.1874V18.6591H32.154V16.6591ZM31.1125 11.4545C31.1125 11.9658 31.1831 12.4567 31.3508 12.907L33.225 12.2088C33.1589 12.0312 33.1125 11.7865 33.1125 11.4545H31.1125ZM31.3508 12.907C31.5196 13.3601 31.7856 13.7677 32.175 14.0759L33.4164 12.5079C33.3626 12.4653 33.2901 12.3835 33.225 12.2088L31.3508 12.907ZM32.1818 14.0813C32.6014 14.4076 33.0945 14.5504 33.6036 14.5504V12.5504C33.4788 12.5504 33.4333 12.5209 33.4097 12.5026L32.1818 14.0813ZM33.6036 14.5504C34.1175 14.5504 34.6154 14.405 35.0368 14.0713L33.7954 12.5032C33.7737 12.5205 33.7298 12.5504 33.6036 12.5504V14.5504ZM35.0434 14.066C35.4304 13.7543 35.6941 13.3451 35.8594 12.8897L33.9792 12.2076C33.9167 12.38 33.845 12.4632 33.7888 12.5085L35.0434 14.066ZM35.8575 12.8948C36.0232 12.4455 36.0947 11.9599 36.0947 11.4545H34.0947C34.0947 11.774 34.0493 12.0178 33.9811 12.2025L35.8575 12.8948ZM36.0947 11.4545C36.0947 10.9546 36.0254 10.4739 35.8629 10.0303L33.9849 10.7183C34.0502 10.8963 34.0947 11.1358 34.0947 11.4545H36.0947ZM35.8629 10.0303C35.6966 9.57632 35.4309 9.16917 35.0414 8.86084L33.8 10.4289C33.8537 10.4715 33.9235 10.5506 33.9849 10.7183L35.8629 10.0303ZM35.0414 8.86084C34.6183 8.52585 34.1181 8.38175 33.6036 8.38175V10.3817C33.7354 10.3817 33.78 10.4131 33.8 10.4289L35.0414 8.86084ZM33.6036 8.38175C33.098 8.38175 32.6051 8.51933 32.1841 8.84098L33.3982 10.4303C33.4203 10.4134 33.469 10.3817 33.6036 10.3817V8.38175ZM32.1787 8.8451C31.7868 9.14873 31.5209 9.55472 31.352 10.0037L33.2239 10.708C33.2888 10.5352 33.3584 10.4611 33.4035 10.4262L32.1787 8.8451ZM31.352 10.0037C31.183 10.4529 31.1125 10.9436 31.1125 11.4545H33.1125C33.1125 11.1222 33.159 10.8805 33.2239 10.708L31.352 10.0037ZM38.1355 15H37.1355V16H38.1355V15ZM38.1355 13.5597L37.4561 12.8259L37.1355 13.1227V13.5597H38.1355ZM41.5009 10.4435L42.1803 11.1773L42.1884 11.1698L42.1963 11.1621L41.5009 10.4435ZM42.2211 9.69567L41.4737 9.03128L41.4685 9.03716L42.2211 9.69567ZM42.6689 9.04474L43.571 9.47621L43.5734 9.47116L42.6689 9.04474ZM42.632 7.6321L41.7825 8.1598L41.7862 8.16561L42.632 7.6321ZM42.1149 7.16584L41.6627 8.0578L41.6728 8.06278L42.1149 7.16584ZM40.116 7.67827L40.9976 8.15014V8.15014L40.116 7.67827ZM39.9406 8.45845V9.45845H40.9406V8.45845H39.9406ZM38.0432 8.45845H37.0432V9.45845H38.0432V8.45845ZM38.4633 6.8473L39.3151 7.37108L38.4633 6.8473ZM39.6405 5.79013L39.1977 4.89352V4.89352L39.6405 5.79013ZM43.1536 5.77628L42.722 6.67834L42.7286 6.68147L43.1536 5.77628ZM44.3308 6.7642L43.4978 7.3175V7.3175L44.3308 6.7642ZM44.5386 9.27095L43.6123 8.8939L43.6095 8.90098L44.5386 9.27095ZM43.7953 10.4297L44.5585 11.0759L44.5608 11.0731L43.7953 10.4297ZM42.2857 11.9485L41.6127 11.2089L41.599 11.2213L41.5858 11.2343L42.2857 11.9485ZM40.9054 13.3011L40.2055 12.5869L39.9054 12.881V13.3011H40.9054ZM40.9054 13.3658H39.9054V14.3658H40.9054V13.3658ZM44.8756 13.3658H45.8756V12.3658H44.8756V13.3658ZM44.8756 15V16H45.8756V15H44.8756ZM39.1355 15V13.5597H37.1355V15H39.1355ZM38.8149 14.2934L42.1803 11.1773L40.8215 9.70978L37.4561 12.8259L38.8149 14.2934ZM42.1963 11.1621C42.496 10.8721 42.7565 10.6024 42.9737 10.3542L41.4685 9.03716C41.2979 9.23216 41.0783 9.46097 40.8055 9.72494L42.1963 11.1621ZM42.9685 10.36C43.2124 10.0857 43.4202 9.79162 43.571 9.4762L41.7668 8.61329C41.7145 8.72258 41.6238 8.86246 41.4737 9.0313L42.9685 10.36ZM43.5734 9.47116C43.7408 9.11613 43.8212 8.73733 43.8212 8.34766H41.8212C41.8212 8.45656 41.8001 8.54249 41.7644 8.61833L43.5734 9.47116ZM43.8212 8.34766C43.8212 7.91469 43.7209 7.48404 43.4778 7.0986L41.7862 8.16561C41.7954 8.18026 41.8212 8.22664 41.8212 8.34766H43.8212ZM43.4814 7.10442C43.2547 6.73945 42.9399 6.45759 42.5571 6.2689L41.6728 8.06278C41.727 8.08952 41.7569 8.1185 41.7825 8.15979L43.4814 7.10442ZM42.5671 6.27394C42.1911 6.08327 41.7851 5.99964 41.3717 5.99964V7.99964C41.5122 7.99964 41.6017 8.02681 41.6627 8.05774L42.5671 6.27394ZM41.3717 5.99964C40.9458 5.99964 40.5237 6.08656 40.1375 6.29622L41.0917 8.05392C41.1363 8.02968 41.219 7.99964 41.3717 7.99964V5.99964ZM40.1375 6.29622C39.7483 6.50748 39.4424 6.81763 39.2343 7.20639L40.9976 8.15014C41.0235 8.10188 41.0499 8.07656 41.0917 8.05392L40.1375 6.29622ZM39.2343 7.20639C39.0245 7.59833 38.9406 8.02758 38.9406 8.45845H40.9406C40.9406 8.2861 40.9735 8.19523 40.9976 8.15014L39.2343 7.20639ZM39.9406 7.45845H38.0432V9.45845H39.9406V7.45845ZM39.0432 8.45845C39.0432 7.99523 39.1463 7.64564 39.3151 7.37108L37.6114 6.32352C37.2201 6.95995 37.0432 7.68445 37.0432 8.45845H39.0432ZM39.3151 7.37108C39.4913 7.08451 39.738 6.85731 40.0833 6.68673L39.1977 4.89352C38.5336 5.22153 37.9954 5.69911 37.6114 6.32352L39.3151 7.37108ZM40.0833 6.68673C40.4288 6.51611 40.8545 6.41619 41.3855 6.41619V4.41619C40.5993 4.41619 39.8617 4.56557 39.1977 4.89352L40.0833 6.68673ZM41.3855 6.41619C41.9451 6.41619 42.3812 6.51524 42.722 6.67832L43.5853 4.87424C42.9228 4.55721 42.1801 4.41619 41.3855 4.41619V6.41619ZM42.7286 6.68147C43.0851 6.84883 43.3291 7.06349 43.4978 7.3175L45.1638 6.21091C44.7724 5.62164 44.2316 5.17768 43.5786 4.87108L42.7286 6.68147ZM43.4978 7.3175C43.6606 7.56255 43.7509 7.85017 43.7509 8.21378H45.7509C45.7509 7.48789 45.5612 6.80913 45.1638 6.21091L43.4978 7.3175ZM43.7509 8.21378C43.7509 8.43489 43.7078 8.65958 43.6124 8.89391L45.4648 9.64799C45.6525 9.18678 45.7509 8.70668 45.7509 8.21378H43.7509ZM43.6095 8.90098C43.5247 9.11394 43.3479 9.40781 43.0298 9.78624L44.5608 11.0731C44.9567 10.6021 45.2754 10.1235 45.4676 9.64092L43.6095 8.90098ZM43.0321 9.7835C42.7145 10.1587 42.2463 10.6323 41.6127 11.2089L42.9587 12.6881C43.6239 12.0829 44.1622 11.544 44.5585 11.0759L43.0321 9.7835ZM41.5858 11.2343L40.2055 12.5869L41.6053 14.0154L42.9856 12.6627L41.5858 11.2343ZM39.9054 13.3011V13.3658H41.9054V13.3011H39.9054ZM40.9054 14.3658H44.8756V12.3658H40.9054V14.3658ZM43.8756 13.3658V15H45.8756V13.3658H43.8756ZM44.8756 14H38.1355V16H44.8756V14Z" fill="black" mask="url(#path-2-outside-1_413_1105)"/>
</g>
<defs>
<filter id="filter0_d_413_1105" x="0.744629" y="1.41626" width="48.131" height="20.2429" filterUnits="userSpaceOnUse" color-interpolation-filters="sRGB">
<feFlood flood-opacity="0" result="BackgroundImageFix"/>
<feColorMatrix in="SourceAlpha" type="matrix" values="0 0 0 0 0 0 0 0 0 0 0 0 0 0 0 0 0 0 127 0" result="hardAlpha"/>
<feOffset/>
<feGaussianBlur stdDeviation="2"/>
<feComposite in2="hardAlpha" operator="out"/>
<feColorMatrix type="matrix" values="0 0 0 0 0 0 0 0 0 0 0 0 0 0 0 0 0 0 0.4 0"/>
<feBlend mode="normal" in2="BackgroundImageFix" result="effect1_dropShadow_413_1105"/>
<feBlend mode="normal" in="SourceGraphic" in2="effect1_dropShadow_413_1105" result="shape"/>
</filter>
</defs>
</svg>
