<svg width="88" height="22" viewBox="0 0 88 22" fill="none" xmlns="http://www.w3.org/2000/svg">
<rect x="0.5" width="87" height="20" rx="1" fill="#FFBF49"/>
<g filter="url(#filter0_d_413_1063)">
<path d="M4.565 15.104L4.773 14.714C5.15433 14.714 5.449 14.6707 5.657 14.584C5.865 14.4887 6.00367 14.35 6.073 14.168C6.13367 13.9947 6.19433 13.6697 6.255 13.193C6.31567 12.7163 6.372 12.0923 6.424 11.321C6.48467 10.4457 6.52367 9.69167 6.541 9.059C6.567 8.42633 6.58 7.92367 6.58 7.551C6.58 7.20433 6.54533 6.95733 6.476 6.81C6.40667 6.66267 6.203 6.589 5.865 6.589C5.709 6.589 5.53133 6.615 5.332 6.667L5.54 6.277C5.84333 6.31167 6.138 6.33767 6.424 6.355C6.71867 6.36367 7.00467 6.368 7.282 6.368C7.646 6.368 8.01 6.355 8.374 6.329C8.49533 6.32033 8.61233 6.316 8.725 6.316C8.84633 6.30733 8.959 6.303 9.063 6.303C9.92967 6.303 10.584 6.459 11.026 6.771C11.3813 7.02233 11.559 7.39933 11.559 7.902C11.559 8.41333 11.403 8.864 11.091 9.254C10.8743 9.54867 10.584 9.78267 10.22 9.956C11.1213 10.0513 11.7497 10.346 12.105 10.84C12.313 11.126 12.417 11.5247 12.417 12.036C12.417 12.5387 12.3217 12.985 12.131 13.375C11.9403 13.7563 11.663 14.0857 11.299 14.363C10.6577 14.8223 9.843 15.052 8.855 15.052C8.81167 15.052 8.71633 15.0477 8.569 15.039C8.43033 15.039 8.192 15.0303 7.854 15.013C7.52467 15.0043 7.04367 14.9957 6.411 14.987C6.03833 14.987 5.423 15.026 4.565 15.104ZM8.829 14.675C9.52233 14.675 10.0943 14.467 10.545 14.051C11.0563 13.5917 11.312 12.9633 11.312 12.166C11.312 11.594 11.1473 11.152 10.818 10.84C10.48 10.4933 10.0033 10.32 9.388 10.32H8.218L8.491 9.93H8.751C9.037 9.93 9.34033 9.84767 9.661 9.683C9.99033 9.527 10.233 9.319 10.389 9.059C10.545 8.799 10.623 8.51733 10.623 8.214C10.623 7.78067 10.4713 7.44267 10.168 7.2C9.86467 6.94867 9.48767 6.823 9.037 6.823C8.61233 6.823 8.348 6.836 8.244 6.862C8.01 6.914 7.87567 7.018 7.841 7.174C7.737 7.72867 7.646 8.591 7.568 9.761L7.438 11.633C7.42067 11.9277 7.40333 12.27 7.386 12.66C7.36867 13.05 7.36 13.3967 7.36 13.7C7.36 13.7953 7.36 13.882 7.36 13.96C7.36 14.038 7.36433 14.1073 7.373 14.168C7.38167 14.402 7.53333 14.558 7.828 14.636C7.94933 14.662 8.283 14.675 8.829 14.675ZM15.6778 15.195C15.1578 15.195 14.7158 15.0737 14.3518 14.831C13.9964 14.5883 13.7234 14.259 13.5328 13.843C13.3508 13.427 13.2598 12.9633 13.2598 12.452C13.2598 11.8627 13.3421 11.3427 13.5068 10.892C13.6714 10.4413 13.9054 10.0687 14.2088 9.774C14.2521 9.73933 14.3604 9.65267 14.5338 9.514C14.7071 9.36667 14.9541 9.16733 15.2748 8.916C15.5434 8.69933 15.9161 8.591 16.3928 8.591C16.9561 8.591 17.4241 8.71667 17.7968 8.968C18.1781 9.21933 18.4641 9.56167 18.6548 9.995C18.8541 10.4283 18.9538 10.9223 18.9538 11.477C18.9538 12.049 18.8758 12.543 18.7198 12.959C18.5724 13.3663 18.3514 13.7087 18.0568 13.986C17.9441 14.0727 17.8054 14.1853 17.6408 14.324C17.4848 14.454 17.2984 14.6057 17.0818 14.779C16.7524 15.0563 16.2844 15.195 15.6778 15.195ZM16.1198 14.506C16.5358 14.506 16.8824 14.3847 17.1598 14.142C17.4458 13.8907 17.6624 13.5743 17.8098 13.193C17.9571 12.803 18.0308 12.4043 18.0308 11.997C18.0308 11.529 17.9441 11.0957 17.7708 10.697C17.6061 10.2897 17.3721 9.96033 17.0688 9.709C16.7654 9.45767 16.4188 9.332 16.0288 9.332C15.6474 9.332 15.3224 9.462 15.0538 9.722C14.7851 9.97333 14.5814 10.3027 14.4428 10.71C14.3128 11.1087 14.2478 11.529 14.2478 11.971C14.2478 12.4043 14.3171 12.816 14.4558 13.206C14.6031 13.596 14.8154 13.9123 15.0928 14.155C15.3701 14.389 15.7124 14.506 16.1198 14.506ZM18.7719 15.104L18.9929 14.714C19.0102 14.7313 19.0882 14.74 19.2269 14.74C19.8855 14.74 20.2712 14.5537 20.3839 14.181C20.4272 14.051 20.4749 13.7607 20.5269 13.31C20.5789 12.8593 20.6352 12.2267 20.6959 11.412L20.8389 9.514C20.8649 9.18467 20.8822 8.89 20.8909 8.63C20.8995 8.36133 20.9039 8.11867 20.9039 7.902C20.9039 7.278 20.8562 6.90967 20.7609 6.797C20.6395 6.67567 20.4532 6.615 20.2019 6.615C20.0459 6.615 19.8639 6.641 19.6559 6.693L19.8509 6.316C19.9289 6.32467 20.0502 6.33333 20.2149 6.342C20.3882 6.35067 20.6049 6.35933 20.8649 6.368C20.9082 6.368 20.9559 6.37233 21.0079 6.381C21.0599 6.381 21.1119 6.381 21.1639 6.381C21.2245 6.381 21.2895 6.37667 21.3589 6.368C21.4369 6.35933 21.5192 6.34633 21.6059 6.329C21.6839 6.31167 21.7532 6.29867 21.8139 6.29C21.8745 6.28133 21.9179 6.277 21.9439 6.277C22.0652 6.277 22.1259 6.33767 22.1259 6.459V6.524C22.0392 6.862 21.9525 7.36467 21.8659 8.032C21.7879 8.69933 21.7142 9.53567 21.6449 10.541L21.5799 11.425C21.5452 11.9277 21.5192 12.3653 21.5019 12.738C21.4932 13.1107 21.4889 13.4227 21.4889 13.674C21.4889 13.7867 21.4889 13.8863 21.4889 13.973C21.4889 14.051 21.4932 14.1203 21.5019 14.181C21.5279 14.389 21.6969 14.5363 22.0089 14.623C22.1822 14.675 22.3642 14.701 22.5549 14.701C22.6069 14.701 22.6632 14.701 22.7239 14.701C22.7845 14.6923 22.8452 14.6837 22.9059 14.675L22.6979 15.104C22.6112 15.0607 22.4249 15.026 22.1389 15C21.8615 14.974 21.4542 14.9567 20.9169 14.948C20.7782 14.948 20.0632 15 18.7719 15.104ZM28.0382 15.156C27.8996 15.156 27.8216 15.0693 27.8042 14.896C27.8042 14.8613 27.7999 14.818 27.7912 14.766C27.7912 14.714 27.7912 14.6447 27.7912 14.558C27.7912 14.506 27.7912 14.4367 27.7912 14.35C27.7999 14.2633 27.8042 14.1723 27.8042 14.077C27.5616 14.3803 27.2496 14.623 26.8682 14.805C26.4869 14.9783 26.0406 15.065 25.5292 15.065C25.0699 15.065 24.6929 14.961 24.3982 14.753C24.1036 14.5363 23.8869 14.246 23.7482 13.882C23.6182 13.5093 23.5532 13.0933 23.5532 12.634C23.5532 12.3047 23.5792 11.9623 23.6312 11.607C23.6832 11.2517 23.7612 10.9137 23.8652 10.593C23.9692 10.2723 24.0992 9.99933 24.2552 9.774C24.7146 9.08067 25.4816 8.734 26.5562 8.734C26.8682 8.734 27.1716 8.79033 27.4662 8.903C27.7696 9.007 28.0209 9.16733 28.2202 9.384C28.2462 8.79467 28.2592 8.30933 28.2592 7.928C28.2592 7.26933 28.2202 6.89667 28.1422 6.81C28.0036 6.68 27.8086 6.615 27.5572 6.615C27.4099 6.615 27.2366 6.641 27.0372 6.693L27.2322 6.316C27.3276 6.32467 27.4836 6.33767 27.7002 6.355C27.9169 6.36367 28.1986 6.37233 28.5452 6.381C28.6406 6.381 28.7792 6.368 28.9612 6.342C29.1519 6.30733 29.2732 6.29 29.3252 6.29C29.3686 6.29 29.4076 6.303 29.4422 6.329C29.4856 6.34633 29.5072 6.37667 29.5072 6.42C29.5072 6.42867 29.4986 6.47633 29.4812 6.563C29.4639 6.64967 29.4422 6.74067 29.4162 6.836C29.3989 6.92267 29.3859 6.98767 29.3772 7.031C29.3166 7.42967 29.2516 7.967 29.1822 8.643C29.1216 9.319 29.0479 10.2507 28.9612 11.438C28.9266 11.854 28.9049 12.2267 28.8962 12.556C28.8876 12.8767 28.8832 13.1627 28.8832 13.414C28.8832 13.7607 28.8962 14.0207 28.9222 14.194C28.9742 14.5147 29.3382 14.675 30.0142 14.675C30.0836 14.675 30.1486 14.675 30.2092 14.675C30.2699 14.675 30.3176 14.6707 30.3522 14.662L30.4042 14.74L30.1832 15.065C30.0619 15.0477 29.9276 15.0347 29.7802 15.026C29.6329 15.026 29.4509 15.026 29.2342 15.026C29.0609 15.026 28.9049 15.0303 28.7662 15.039C28.6276 15.0563 28.5062 15.0737 28.4022 15.091C28.3329 15.0997 28.2636 15.1127 28.1942 15.13C28.1336 15.1473 28.0816 15.156 28.0382 15.156ZM25.9972 14.519C26.5259 14.519 26.9766 14.3153 27.3492 13.908C27.7219 13.5007 27.9386 12.8767 27.9992 12.036C28.0079 11.932 28.0122 11.8323 28.0122 11.737C28.0209 11.6417 28.0252 11.5507 28.0252 11.464C28.0252 10.6667 27.8996 10.099 27.6482 9.761C27.4056 9.423 27.0546 9.254 26.5952 9.254C25.9366 9.254 25.4122 9.55733 25.0222 10.164C24.8576 10.4413 24.7406 10.7837 24.6712 11.191C24.6019 11.5983 24.5672 11.9753 24.5672 12.322C24.5672 12.894 24.6322 13.3403 24.7622 13.661C24.8922 13.9817 25.0656 14.207 25.2822 14.337C25.4989 14.4583 25.7372 14.519 25.9972 14.519ZM41.5836 15.052C40.795 15.052 40.1926 14.87 39.7766 14.506C39.69 14.4367 39.5946 14.3413 39.4906 14.22C39.3953 14.0987 39.2826 13.9427 39.1526 13.752L39.0356 13.843C38.871 14.0077 38.6803 14.1593 38.4636 14.298C38.247 14.428 38.013 14.5537 37.7616 14.675C37.233 14.9003 36.7173 15.013 36.2146 15.013C35.5386 15.013 34.9883 14.8267 34.5636 14.454C34.1736 14.0987 33.9786 13.6783 33.9786 13.193C33.9786 12.5517 34.2863 11.9147 34.9016 11.282C34.9363 11.2387 34.9753 11.1997 35.0186 11.165C35.062 11.1217 35.101 11.0827 35.1356 11.048L35.8376 10.411C35.907 10.3417 36.0326 10.229 36.2146 10.073C36.3966 9.917 36.6393 9.71767 36.9426 9.475L36.8256 9.241C36.6263 8.903 36.4876 8.60833 36.4096 8.357L36.3576 8.24C36.3316 8.17933 36.31 8.123 36.2926 8.071C36.2753 8.019 36.2666 7.97133 36.2666 7.928C36.2666 7.85867 36.2883 7.79367 36.3316 7.733C36.3576 7.54233 36.427 7.39933 36.5396 7.304L37.2286 6.667C37.246 6.64967 37.2633 6.63233 37.2806 6.615C37.3066 6.589 37.3326 6.56733 37.3586 6.55C37.6793 6.33333 38.0086 6.225 38.3466 6.225C38.6413 6.225 38.8666 6.29867 39.0226 6.446C39.196 6.59333 39.2826 6.79267 39.2826 7.044C39.2826 7.2 39.248 7.35167 39.1786 7.499C39.1006 7.69833 38.9186 7.93667 38.6326 8.214L37.9436 8.864C37.883 8.916 37.8223 8.97233 37.7616 9.033C37.701 9.085 37.636 9.14133 37.5666 9.202C38.078 10.0687 38.5243 10.801 38.9056 11.399C39.287 11.9883 39.599 12.4477 39.8416 12.777C40.0496 12.4737 40.2143 12.1487 40.3356 11.802C40.4656 11.4467 40.548 11.074 40.5826 10.684C40.6086 10.5193 40.613 10.3937 40.5956 10.307C40.2923 10.2897 39.989 10.2767 39.6856 10.268C39.3823 10.2507 39.0746 10.242 38.7626 10.242L39.0876 9.969L42.5586 9.982C42.5673 9.982 42.5716 9.98633 42.5716 9.995C42.5716 10.0297 42.4633 10.1163 42.2466 10.255C42.0213 10.4023 41.8653 10.4673 41.7786 10.45C41.614 10.424 41.4276 10.398 41.2196 10.372C41.0983 11.438 40.704 12.3133 40.0366 12.998C40.132 13.1107 40.2403 13.2407 40.3616 13.388C40.483 13.5267 40.6173 13.6827 40.7646 13.856C41.4146 14.48 42.0213 14.7833 42.5846 14.766L42.4546 15C42.29 15.0087 42.134 15.0173 41.9866 15.026C41.8393 15.0433 41.705 15.052 41.5836 15.052ZM37.4626 9.033C37.7053 8.825 37.9003 8.64733 38.0476 8.5C38.195 8.35267 38.2946 8.23567 38.3466 8.149C38.468 7.967 38.5286 7.76333 38.5286 7.538C38.5286 7.36467 38.481 7.23033 38.3856 7.135C38.195 6.927 37.9566 6.823 37.6706 6.823C37.1853 6.823 36.9426 7.08733 36.9426 7.616C36.9426 7.954 37.0553 8.31367 37.2806 8.695L37.4626 9.033ZM37.0726 14.285C37.454 14.285 37.8786 14.1853 38.3466 13.986C38.5806 13.882 38.8103 13.7433 39.0356 13.57L38.0476 11.776C37.961 11.6113 37.8353 11.36 37.6706 11.022C37.506 10.6753 37.298 10.242 37.0466 9.722L36.1366 10.593C35.53 11.1737 35.2266 11.8193 35.2266 12.53C35.2266 12.9893 35.3783 13.3837 35.6816 13.713C36.037 14.0943 36.5006 14.285 37.0726 14.285ZM51.2327 15.169C50.0627 15.169 49.0747 14.922 48.2687 14.428C47.8093 14.1507 47.4497 13.8127 47.1897 13.414C46.9297 13.0153 46.7433 12.5863 46.6307 12.127C46.5267 11.6677 46.4747 11.2083 46.4747 10.749C46.4747 9.92567 46.622 9.25833 46.9167 8.747C47.22 8.227 47.6143 7.77633 48.0997 7.395C48.6197 6.979 49.2003 6.68433 49.8417 6.511C50.4917 6.33767 51.1763 6.251 51.8957 6.251C53.161 6.251 54.3267 6.459 55.3927 6.875L55.3017 7.057C55.189 6.99633 55.046 7.23467 54.8727 7.772C54.7427 8.20533 54.6647 8.56933 54.6387 8.864C54.6387 8.89867 54.6343 8.95067 54.6257 9.02L54.3397 8.955C54.357 8.88567 54.3657 8.825 54.3657 8.773C54.3743 8.721 54.383 8.669 54.3917 8.617C54.409 8.26167 54.3483 7.98433 54.2097 7.785C54.0797 7.58567 53.798 7.395 53.3647 7.213C52.8447 6.98767 52.1947 6.875 51.4147 6.875C50.34 6.875 49.4863 7.13933 48.8537 7.668C48.4377 8.01467 48.1473 8.448 47.9827 8.968C47.8267 9.47933 47.7487 10.0167 47.7487 10.58C47.7487 11.6547 48.026 12.5473 48.5807 13.258C49.222 14.0813 50.106 14.493 51.2327 14.493C51.744 14.493 52.29 14.428 52.8707 14.298C53.4513 14.1593 54.0623 13.947 54.7037 13.661L54.6777 13.999C54.3137 14.207 54.0233 14.3717 53.8067 14.493C53.59 14.6143 53.4427 14.6923 53.3647 14.727C52.654 15.0217 51.9433 15.169 51.2327 15.169ZM55.374 15.104L55.595 14.714C55.6123 14.7313 55.6903 14.74 55.829 14.74C56.4876 14.74 56.8733 14.5537 56.986 14.181C57.0293 14.051 57.077 13.7607 57.129 13.31C57.181 12.8593 57.2373 12.2267 57.298 11.412L57.441 9.514C57.467 9.18467 57.4843 8.89 57.493 8.63C57.5016 8.36133 57.506 8.11867 57.506 7.902C57.506 7.278 57.4583 6.90967 57.363 6.797C57.2416 6.67567 57.0553 6.615 56.804 6.615C56.648 6.615 56.466 6.641 56.258 6.693L56.453 6.316C56.531 6.32467 56.6523 6.33333 56.817 6.342C56.9903 6.35067 57.207 6.35933 57.467 6.368C57.5103 6.368 57.558 6.37233 57.61 6.381C57.662 6.381 57.714 6.381 57.766 6.381C57.8266 6.381 57.8916 6.37667 57.961 6.368C58.039 6.35933 58.1213 6.34633 58.208 6.329C58.286 6.31167 58.3553 6.29867 58.416 6.29C58.4766 6.28133 58.52 6.277 58.546 6.277C58.6673 6.277 58.728 6.33767 58.728 6.459V6.524C58.6413 6.862 58.5546 7.36467 58.468 8.032C58.39 8.69933 58.3163 9.53567 58.247 10.541L58.182 11.425C58.1473 11.9277 58.1213 12.3653 58.104 12.738C58.0953 13.1107 58.091 13.4227 58.091 13.674C58.091 13.7867 58.091 13.8863 58.091 13.973C58.091 14.051 58.0953 14.1203 58.104 14.181C58.13 14.389 58.299 14.5363 58.611 14.623C58.7843 14.675 58.9663 14.701 59.157 14.701C59.209 14.701 59.2653 14.701 59.326 14.701C59.3866 14.6923 59.4473 14.6837 59.508 14.675L59.3 15.104C59.2133 15.0607 59.027 15.026 58.741 15C58.4636 14.974 58.0563 14.9567 57.519 14.948C57.3803 14.948 56.6653 15 55.374 15.104ZM64.3283 15.143C64.0857 15.143 63.9297 15.0563 63.8603 14.883C63.791 14.7097 63.7563 14.4323 63.7563 14.051C63.5657 14.181 63.349 14.3283 63.1063 14.493C62.8723 14.649 62.6123 14.7877 62.3263 14.909C62.0403 15.0303 61.7283 15.091 61.3903 15.091C60.983 15.091 60.6537 14.935 60.4023 14.623C60.151 14.3023 60.0253 13.9037 60.0253 13.427C60.0253 13.0977 60.099 12.8593 60.2463 12.712C60.4023 12.5647 60.5583 12.4347 60.7143 12.322C60.801 12.2613 60.918 12.1747 61.0653 12.062C61.2127 11.9493 61.3643 11.841 61.5203 11.737C61.685 11.6243 61.8193 11.5463 61.9233 11.503C62.0533 11.451 62.2397 11.412 62.4823 11.386C62.7337 11.3513 62.9937 11.3253 63.2623 11.308C63.5397 11.2907 63.778 11.282 63.9773 11.282C64.0033 11.0307 64.0163 10.801 64.0163 10.593C64.0163 10.1683 63.947 9.839 63.8083 9.605C63.6697 9.371 63.427 9.254 63.0803 9.254C62.5083 9.254 62.0317 9.41 61.6503 9.722C61.4597 9.88667 61.308 10.0513 61.1953 10.216C61.0827 10.372 61.0263 10.593 61.0263 10.879L61.0393 11.256L60.6883 11.503C60.6883 11.4597 60.6883 11.4163 60.6883 11.373C60.697 11.321 60.7013 11.2777 60.7013 11.243C60.7013 11.1043 60.6927 10.97 60.6753 10.84C60.658 10.7013 60.632 10.5453 60.5973 10.372C60.5713 10.2247 60.5497 10.1207 60.5323 10.06C60.5237 9.99933 60.5193 9.956 60.5193 9.93C60.5193 9.826 60.58 9.71333 60.7013 9.592C60.8313 9.47067 60.9397 9.37967 61.0263 9.319C61.347 9.111 61.7283 8.968 62.1703 8.89C62.621 8.80333 63.0457 8.76 63.4443 8.76C64.025 8.76 64.441 8.88567 64.6923 9.137C64.9437 9.37967 65.0693 9.696 65.0693 10.086C65.0693 10.3807 65.0563 10.7187 65.0303 11.1C65.013 11.4727 64.9913 11.8497 64.9653 12.231C64.948 12.6123 64.9263 12.9677 64.9003 13.297C64.883 13.6177 64.8743 13.882 64.8743 14.09C64.8743 14.324 64.9437 14.4843 65.0823 14.571C65.221 14.649 65.4073 14.688 65.6413 14.688C65.702 14.688 65.7627 14.688 65.8233 14.688C65.8927 14.6793 65.962 14.6707 66.0313 14.662L66.0963 14.74L65.8883 15.091C65.819 15.0823 65.7063 15.078 65.5503 15.078C65.3943 15.0867 65.2297 15.0953 65.0563 15.104C64.883 15.1127 64.727 15.1213 64.5883 15.13C64.4583 15.1387 64.3717 15.143 64.3283 15.143ZM62.0403 14.246C62.231 14.246 62.4347 14.2113 62.6513 14.142C62.868 14.064 63.0543 13.9817 63.2103 13.895C63.4357 13.739 63.5873 13.5787 63.6653 13.414C63.752 13.2493 63.8083 13.0457 63.8343 12.803C63.8603 12.5517 63.8907 12.2353 63.9253 11.854C63.4053 11.8713 62.9763 11.906 62.6383 11.958C62.309 12.0013 62.0447 12.0577 61.8453 12.127C61.5593 12.231 61.347 12.387 61.2083 12.595C61.0697 12.803 61.0003 13.0197 61.0003 13.245C61.0003 13.505 61.087 13.739 61.2603 13.947C61.4423 14.1463 61.7023 14.246 62.0403 14.246ZM67.8374 15.195C67.3174 15.195 66.8018 15.104 66.2904 14.922C66.1604 14.8787 66.1214 14.8137 66.1734 14.727C66.2688 14.3977 66.3381 14.0857 66.3814 13.791C66.4334 13.4877 66.4638 13.1973 66.4724 12.92L66.8234 12.803C66.7974 13.245 66.7844 13.5527 66.7844 13.726C66.7844 13.9427 66.8581 14.129 67.0054 14.285C67.1528 14.441 67.3304 14.5623 67.5384 14.649C67.7551 14.727 67.9674 14.766 68.1754 14.766C68.5308 14.766 68.8341 14.6533 69.0854 14.428C69.3454 14.194 69.4754 13.8907 69.4754 13.518C69.4754 13.2147 69.3758 12.972 69.1764 12.79C68.9858 12.5993 68.7518 12.4347 68.4744 12.296C68.1018 12.1053 67.7854 11.9407 67.5254 11.802C67.2654 11.6547 67.0704 11.4813 66.9404 11.282C66.8104 11.0827 66.7454 10.8053 66.7454 10.45C66.7454 10.138 66.8624 9.852 67.0964 9.592C67.3304 9.32333 67.6338 9.111 68.0064 8.955C68.3791 8.799 68.7734 8.721 69.1894 8.721H69.2024C69.7138 8.721 70.0951 8.77733 70.3464 8.89C70.4158 8.92467 70.4678 8.968 70.5024 9.02C70.5458 9.06333 70.5674 9.124 70.5674 9.202V9.241C70.5241 9.38833 70.4938 9.57033 70.4764 9.787C70.4591 10.0037 70.4504 10.2637 70.4504 10.567L70.1254 10.736L70.0604 10.658C70.0691 10.6407 70.0778 10.5843 70.0864 10.489C70.1038 10.3937 70.1124 10.2377 70.1124 10.021C70.1124 9.71767 70.0128 9.49233 69.8134 9.345C69.6141 9.19767 69.3844 9.124 69.1244 9.124C68.8991 9.124 68.6738 9.17167 68.4484 9.267C68.2231 9.36233 68.0368 9.49667 67.8894 9.67C67.7508 9.83467 67.6814 10.0297 67.6814 10.255C67.6814 10.463 67.7551 10.6407 67.9024 10.788C68.0498 10.9353 68.2491 11.0783 68.5004 11.217C68.7518 11.347 69.0378 11.503 69.3584 11.685C69.7138 11.8757 69.9998 12.0837 70.2164 12.309C70.4331 12.5257 70.5414 12.8073 70.5414 13.154C70.5414 13.5873 70.4158 13.96 70.1644 14.272C69.9131 14.5753 69.5838 14.805 69.1764 14.961C68.7691 15.117 68.3228 15.195 67.8374 15.195ZM72.8841 15.195C72.3641 15.195 71.8484 15.104 71.3371 14.922C71.2071 14.8787 71.1681 14.8137 71.2201 14.727C71.3154 14.3977 71.3847 14.0857 71.4281 13.791C71.4801 13.4877 71.5104 13.1973 71.5191 12.92L71.8701 12.803C71.8441 13.245 71.8311 13.5527 71.8311 13.726C71.8311 13.9427 71.9047 14.129 72.0521 14.285C72.1994 14.441 72.3771 14.5623 72.5851 14.649C72.8017 14.727 73.0141 14.766 73.2221 14.766C73.5774 14.766 73.8807 14.6533 74.1321 14.428C74.3921 14.194 74.5221 13.8907 74.5221 13.518C74.5221 13.2147 74.4224 12.972 74.2231 12.79C74.0324 12.5993 73.7984 12.4347 73.5211 12.296C73.1484 12.1053 72.8321 11.9407 72.5721 11.802C72.3121 11.6547 72.1171 11.4813 71.9871 11.282C71.8571 11.0827 71.7921 10.8053 71.7921 10.45C71.7921 10.138 71.9091 9.852 72.1431 9.592C72.3771 9.32333 72.6804 9.111 73.0531 8.955C73.4257 8.799 73.8201 8.721 74.2361 8.721H74.2491C74.7604 8.721 75.1417 8.77733 75.3931 8.89C75.4624 8.92467 75.5144 8.968 75.5491 9.02C75.5924 9.06333 75.6141 9.124 75.6141 9.202V9.241C75.5707 9.38833 75.5404 9.57033 75.5231 9.787C75.5057 10.0037 75.4971 10.2637 75.4971 10.567L75.1721 10.736L75.1071 10.658C75.1157 10.6407 75.1244 10.5843 75.1331 10.489C75.1504 10.3937 75.1591 10.2377 75.1591 10.021C75.1591 9.71767 75.0594 9.49233 74.8601 9.345C74.6607 9.19767 74.4311 9.124 74.1711 9.124C73.9457 9.124 73.7204 9.17167 73.4951 9.267C73.2697 9.36233 73.0834 9.49667 72.9361 9.67C72.7974 9.83467 72.7281 10.0297 72.7281 10.255C72.7281 10.463 72.8017 10.6407 72.9491 10.788C73.0964 10.9353 73.2957 11.0783 73.5471 11.217C73.7984 11.347 74.0844 11.503 74.4051 11.685C74.7604 11.8757 75.0464 12.0837 75.2631 12.309C75.4797 12.5257 75.5881 12.8073 75.5881 13.154C75.5881 13.5873 75.4624 13.96 75.2111 14.272C74.9597 14.5753 74.6304 14.805 74.2231 14.961C73.8157 15.117 73.3694 15.195 72.8841 15.195ZM77.0987 17.379C76.8994 17.379 76.6914 17.353 76.4747 17.301C76.2667 17.2577 76.089 17.1883 75.9417 17.093C75.7944 17.0063 75.7207 16.9067 75.7207 16.794C75.7207 16.4907 75.7164 16.2263 75.7077 16.001C75.6904 15.7757 75.673 15.5937 75.6557 15.455L76.1497 15.325C76.2104 15.741 76.271 16.0617 76.3317 16.287C76.3924 16.5123 76.4834 16.6683 76.6047 16.755C76.7347 16.8417 76.9167 16.885 77.1507 16.885C77.3934 16.885 77.61 16.7897 77.8007 16.599C78 16.4083 78.169 16.17 78.3077 15.884C78.455 15.6067 78.5677 15.3337 78.6457 15.065C78.4204 14.3197 78.2254 13.6827 78.0607 13.154C77.896 12.6167 77.7617 12.1877 77.6577 11.867C77.1377 10.2897 76.7997 9.42733 76.6437 9.28C76.557 9.21067 76.4357 9.163 76.2797 9.137C76.1237 9.10233 75.9807 9.085 75.8507 9.085C75.7467 9.085 75.66 9.09367 75.5907 9.111L75.5257 9.033L75.6817 8.734C75.725 8.74267 75.855 8.75567 76.0717 8.773C76.297 8.79033 76.5397 8.80333 76.7997 8.812C77.0597 8.82067 77.2764 8.825 77.4497 8.825C77.753 8.825 78.0607 8.82067 78.3727 8.812C78.6934 8.79467 79.04 8.76433 79.4127 8.721L79.1267 9.111H78.9707C78.7627 9.111 78.5677 9.14567 78.3857 9.215C78.2037 9.27567 78.1127 9.36667 78.1127 9.488C78.0954 9.73067 78.1734 10.1813 78.3467 10.84C78.5287 11.4987 78.832 12.413 79.2567 13.583C79.404 13.323 79.5687 12.998 79.7507 12.608C79.9414 12.2093 80.1234 11.802 80.2967 11.386C80.47 10.97 80.613 10.5887 80.7257 10.242C80.8384 9.89533 80.8947 9.63967 80.8947 9.475C80.8947 9.32767 80.8167 9.228 80.6607 9.176C80.5134 9.11533 80.353 9.085 80.1797 9.085C80.0497 9.085 79.937 9.098 79.8417 9.124L79.7897 9.046L80.0237 8.747C80.223 8.75567 80.4354 8.76867 80.6607 8.786C80.8947 8.79467 81.0984 8.80333 81.2717 8.812C81.4537 8.82067 81.5707 8.825 81.6227 8.825C81.8914 8.825 82.1904 8.81633 82.5197 8.799C82.8577 8.773 83.1394 8.747 83.3647 8.721L83.1307 9.072C83.0007 9.072 82.8664 9.08933 82.7277 9.124C82.589 9.15867 82.4374 9.21933 82.2727 9.306C82.0994 9.41 81.9174 9.592 81.7267 9.852C81.536 10.1033 81.3454 10.4067 81.1547 10.762C80.9727 11.1087 80.7907 11.477 80.6087 11.867C80.4354 12.2483 80.2707 12.6167 80.1147 12.972L78.8797 15.884C78.4637 16.8807 77.87 17.379 77.0987 17.379Z" fill="white"/>
</g>
<defs>
<filter id="filter0_d_413_1063" x="0.564941" y="2.2251" width="86.7998" height="19.1538" filterUnits="userSpaceOnUse" color-interpolation-filters="sRGB">
<feFlood flood-opacity="0" result="BackgroundImageFix"/>
<feColorMatrix in="SourceAlpha" type="matrix" values="0 0 0 0 0 0 0 0 0 0 0 0 0 0 0 0 0 0 127 0" result="hardAlpha"/>
<feOffset/>
<feGaussianBlur stdDeviation="2"/>
<feComposite in2="hardAlpha" operator="out"/>
<feColorMatrix type="matrix" values="0 0 0 0 0 0 0 0 0 0 0 0 0 0 0 0 0 0 0.4 0"/>
<feBlend mode="normal" in2="BackgroundImageFix" result="effect1_dropShadow_413_1063"/>
<feBlend mode="normal" in="SourceGraphic" in2="effect1_dropShadow_413_1063" result="shape"/>
</filter>
</defs>
</svg>
