<svg width="20" height="20" viewBox="0 0 20 20" fill="none" xmlns="http://www.w3.org/2000/svg">
<path d="M2.93183 8.58821C2.60844 7.69321 2.44675 7.24572 2.5157 6.95896C2.59111 6.6453 2.81416 6.40078 3.09927 6.31921C3.35994 6.24463 3.76544 6.42486 4.57644 6.78531C5.29378 7.10413 5.65245 7.26354 5.98943 7.25467C6.36047 7.24491 6.7174 7.09611 7.00133 6.83284C7.25921 6.59372 7.43218 6.21269 7.77811 5.45061L8.5405 3.77112C9.17733 2.36821 9.49575 1.66675 10 1.66675C10.5042 1.66675 10.8227 2.36821 11.4595 3.77112L12.2219 5.45061C12.5678 6.21269 12.7408 6.59372 12.9987 6.83284C13.2826 7.09611 13.6395 7.24491 14.0106 7.25467C14.3476 7.26354 14.7062 7.10413 15.4236 6.78531C16.2346 6.42486 16.6401 6.24463 16.9007 6.31921C17.1858 6.40078 17.4089 6.6453 17.4843 6.95896C17.5533 7.24572 17.3916 7.69321 17.0682 8.58821L15.6781 12.4352C15.0835 14.0809 14.7862 14.9037 14.164 15.3686C13.5419 15.8334 12.7378 15.8334 11.1298 15.8334H8.8702C7.26216 15.8334 6.45814 15.8334 5.83596 15.3686C5.21378 14.9037 4.91647 14.0809 4.32185 12.4352L2.93183 8.58821Z" stroke="#FFCC00" stroke-width="1.5"/>
<path d="M10 11.6667H10.0075" stroke="#FFCC00" stroke-width="2" stroke-linecap="round" stroke-linejoin="round"/>
<path d="M5.83337 18.3335H14.1667" stroke="#FFCC00" stroke-width="1.5" stroke-linecap="round"/>
</svg>
