<svg width="16" height="16" viewBox="0 0 16 16" fill="none" xmlns="http://www.w3.org/2000/svg">
<path d="M2.34546 6.87054C2.08675 6.15455 1.9574 5.79655 2.01256 5.56714C2.07289 5.31622 2.25133 5.1206 2.47942 5.05535C2.68795 4.99568 3.01235 5.13986 3.66115 5.42822C4.23502 5.68328 4.52196 5.81081 4.79155 5.80371C5.08838 5.7959 5.37392 5.67687 5.60107 5.46625C5.80737 5.27496 5.94574 4.97013 6.22249 4.36046L6.8324 3.01687C7.34187 1.89454 7.5966 1.33337 8 1.33337C8.4034 1.33337 8.65813 1.89454 9.1676 3.01687L9.77751 4.36047C10.0543 4.97013 10.1926 5.27496 10.3989 5.46625C10.6261 5.67687 10.9116 5.7959 11.2085 5.80371C11.478 5.81081 11.765 5.68328 12.3388 5.42822C12.9876 5.13986 13.312 4.99568 13.5206 5.05535C13.7487 5.1206 13.9271 5.31622 13.9874 5.56714C14.0426 5.79655 13.9132 6.15455 13.6545 6.87054L12.5425 9.94816C12.0668 11.2647 11.829 11.923 11.3312 12.2948C10.8335 12.6667 10.1903 12.6667 8.90384 12.6667H7.09616C5.80973 12.6667 5.16651 12.6667 4.66877 12.2948C4.17102 11.923 3.93318 11.2647 3.45748 9.94816L2.34546 6.87054Z" stroke="#FFCC00" stroke-width="1.5"/>
<path d="M8 9.33337H8.00599" stroke="#FFCC00" stroke-width="1.5" stroke-linecap="round" stroke-linejoin="round"/>
<path d="M4.66675 14.6667H11.3334" stroke="#FFCC00" stroke-width="1.5" stroke-linecap="round"/>
</svg>
