<svg width="30" height="29" viewBox="0 0 30 29" fill="none" xmlns="http://www.w3.org/2000/svg">
<path d="M24.3327 19.4948V16.8281C24.3327 13.0569 24.3327 11.1713 23.1611 9.9997C21.9895 8.82812 20.1039 8.82812 16.3327 8.82812H13.666C9.89478 8.82812 8.00916 8.82812 6.83759 9.9997C5.66602 11.1713 5.66602 13.0569 5.66602 16.8281V19.4948C5.66602 23.266 5.66602 25.1516 6.83759 26.3232C8.00916 27.4948 9.89478 27.4948 13.666 27.4948H16.3327C20.1039 27.4948 21.9895 27.4948 23.1611 26.3232C24.3327 25.1516 24.3327 23.266 24.3327 19.4948Z" fill="#B3A3FF" stroke="white" stroke-width="1.5" stroke-linejoin="round"/>
<path d="M27.7462 21.5753C28.332 20.9896 28.332 20.0468 28.332 18.1611C28.332 16.2755 28.332 15.3327 27.7462 14.7469C27.1605 14.1611 26.2176 14.1611 24.332 14.1611V22.1611C26.2176 22.1611 27.1605 22.1611 27.7462 21.5753Z" fill="#8475CB" stroke="white" stroke-width="1.5" stroke-linejoin="round"/>
<path d="M2.2518 21.5753C2.83759 22.1611 3.7804 22.1611 5.66602 22.1611V14.1611C3.7804 14.1611 2.83759 14.1611 2.2518 14.7469C1.66602 15.3327 1.66602 16.2755 1.66602 18.1611C1.66602 20.0468 1.66602 20.9896 2.2518 21.5753Z" fill="#8475CB" stroke="white" stroke-width="1.5" stroke-linejoin="round"/>
<path d="M16.999 2.82813C16.999 3.93269 16.1036 4.82813 14.999 4.82813C13.8945 4.82813 12.999 3.93269 12.999 2.82813C12.999 1.72356 13.8945 0.828125 14.999 0.828125C16.1036 0.828125 16.999 1.72356 16.999 2.82813Z" stroke="white" stroke-width="1.5"/>
<path d="M14.999 4.82812V8.82813" stroke="white" stroke-width="1.5" stroke-linecap="round" stroke-linejoin="round"/>
<path d="M11 15.4951V16.8285" stroke="white" stroke-width="1.5" stroke-linecap="round" stroke-linejoin="round"/>
<path d="M19 15.4951V16.8285" stroke="white" stroke-width="1.5" stroke-linecap="round" stroke-linejoin="round"/>
<path d="M12.332 21.4951C12.332 21.4951 13.2209 22.1618 14.9987 22.1618C16.7765 22.1618 17.6654 21.4951 17.6654 21.4951" stroke="white" stroke-width="1.5" stroke-linecap="round"/>
</svg>
