<svg width="32" height="33" viewBox="0 0 32 33" fill="none" xmlns="http://www.w3.org/2000/svg">
<path d="M25.3332 21.4948V18.8281C25.3332 15.0569 25.3332 13.1713 24.1616 11.9997C22.99 10.8281 21.1044 10.8281 17.3332 10.8281H14.6665C10.8953 10.8281 9.00965 10.8281 7.83808 11.9997C6.6665 13.1713 6.6665 15.0569 6.6665 18.8281V21.4948C6.6665 25.266 6.6665 27.1516 7.83808 28.3232C9.00965 29.4948 10.8953 29.4948 14.6665 29.4948H17.3332C21.1044 29.4948 22.99 29.4948 24.1616 28.3232C25.3332 27.1516 25.3332 25.266 25.3332 21.4948Z" stroke="white" stroke-width="1.5" stroke-linejoin="round"/>
<path d="M25.333 24.1611C27.2186 24.1611 28.1614 24.1611 28.7472 23.5753C29.333 22.9896 29.333 22.0468 29.333 20.1611C29.333 18.2755 29.333 17.3327 28.7472 16.7469C28.1614 16.1611 27.2186 16.1611 25.333 16.1611" stroke="white" stroke-width="1.5" stroke-linejoin="round"/>
<path d="M6.6665 24.1611C4.78089 24.1611 3.83808 24.1611 3.25229 23.5753C2.6665 22.9896 2.6665 22.0468 2.6665 20.1611C2.6665 18.2755 2.6665 17.3327 3.25229 16.7469C3.83808 16.1611 4.78089 16.1611 6.6665 16.1611" stroke="white" stroke-width="1.5" stroke-linejoin="round"/>
<path d="M18 4.82812C18 5.93269 17.1046 6.82812 16 6.82812C14.8954 6.82812 14 5.93269 14 4.82812C14 3.72356 14.8954 2.82812 16 2.82812C17.1046 2.82812 18 3.72356 18 4.82812Z" stroke="white" stroke-width="1.5"/>
<path d="M16 6.82812V10.8281" stroke="white" stroke-width="1.5" stroke-linecap="round" stroke-linejoin="round"/>
<path d="M12 17.4951V18.8284" stroke="white" stroke-width="1.5" stroke-linecap="round" stroke-linejoin="round"/>
<path d="M20 17.4951V18.8284" stroke="white" stroke-width="1.5" stroke-linecap="round" stroke-linejoin="round"/>
<path d="M13.333 23.4951C13.333 23.4951 14.2219 24.1618 15.9997 24.1618C17.7775 24.1618 18.6663 23.4951 18.6663 23.4951" stroke="white" stroke-width="1.5" stroke-linecap="round"/>
</svg>
