<svg width="30" height="30" viewBox="0 0 30 30" fill="none" xmlns="http://www.w3.org/2000/svg">
<path d="M14.9987 5.66675L13.5269 3.6062C12.9788 2.8389 12.7047 2.45525 12.8778 2.09889C13.0509 1.74253 13.4906 1.72212 14.3701 1.6813C14.5784 1.67164 14.788 1.66675 14.9987 1.66675C22.3625 1.66675 28.332 7.63628 28.332 15.0001C28.332 22.3639 22.3625 28.3334 14.9987 28.3334C7.6349 28.3334 1.66536 22.3639 1.66536 15.0001C1.66536 10.6379 3.76017 6.76499 6.9987 4.33244" stroke="#9E89FF" stroke-width="2" stroke-linecap="round" stroke-linejoin="round"/>
<path d="M17.6654 12.3335H13.5452C13.2274 12.3335 12.9538 12.5578 12.8915 12.8694L12.332 15.6668C13.257 15.4466 14.1394 15.1906 15.0939 15.1906C16.5141 15.1906 17.6654 16.3419 17.6654 17.7621C17.6654 19.1822 16.5141 20.3335 15.0939 20.3335C13.9907 20.3335 12.6823 20.3566 12.3745 19.0002" stroke="#9E89FF" stroke-width="2" stroke-linecap="round" stroke-linejoin="round"/>
</svg>
