<svg width="39" height="31" viewBox="0 0 39 31" fill="none" xmlns="http://www.w3.org/2000/svg">
<path fill-rule="evenodd" clip-rule="evenodd" d="M0.666983 4.56419C0.909165 3.48617 1.50451 2.52365 2.35552 1.83425C3.20652 1.14486 4.26275 0.769457 5.35121 0.769531H34.1772C35.2656 0.769457 36.3219 1.14486 37.1729 1.83425C38.0239 2.52365 38.6192 3.48617 38.8614 4.56419L19.7642 16.4216L0.666983 4.56419ZM0.546875 7.35101V24.6869L14.4866 16.0043L0.546875 7.35101ZM16.7879 17.4367L1.00569 27.2638C1.39562 28.0991 2.01106 28.8047 2.78036 29.2985C3.54967 29.7923 4.4412 30.054 5.35121 30.0531H34.1772C35.087 30.0533 35.9782 29.791 36.7471 29.2968C37.516 28.8026 38.1309 28.0967 38.5203 27.2614L22.7381 17.4343L19.7642 19.2816L16.7879 17.4343V17.4367ZM25.0418 16.0067L38.9815 24.6869V7.35101L25.0418 16.0043V16.0067Z" fill="#25282B"/>
</svg>
