<svg width="36" height="35" viewBox="0 0 36 35" fill="none" xmlns="http://www.w3.org/2000/svg">
<path d="M0.490234 2.51805C0.490234 1.14229 1.63344 0.0273438 3.04396 0.0273438H32.7107C34.1212 0.0273438 35.2644 1.14229 35.2644 2.51805V32.3108C35.2644 33.6866 34.1212 34.8015 32.7107 34.8015H3.04396C1.63344 34.8015 0.490234 33.6866 0.490234 32.3108V2.51805ZM11.2333 29.1377V13.435H6.01499V29.1377H11.2333ZM8.62522 11.2898C10.4443 11.2898 11.5767 10.0858 11.5767 8.57745C11.5441 7.03652 10.4465 5.86506 8.66 5.86506C6.87347 5.86506 5.70636 7.03869 5.70636 8.57745C5.70636 10.0858 6.8387 11.2898 8.59045 11.2898H8.62522V11.2898ZM19.2922 29.1377V20.3681C19.2922 19.8986 19.327 19.4292 19.4661 19.0945C19.8421 18.1577 20.7006 17.1862 22.1437 17.1862C24.0324 17.1862 24.7865 18.625 24.7865 20.7376V29.1377H30.0048V20.1312C30.0048 15.3063 27.4315 13.0633 23.9976 13.0633C21.2287 13.0633 19.9877 14.5847 19.2922 15.6562V15.7105H19.2574C19.269 15.6924 19.2806 15.6743 19.2922 15.6562V13.435H14.0761C14.1413 14.9085 14.0761 29.1377 14.0761 29.1377H19.2922Z" fill="#25282B"/>
</svg>
