<svg width="36" height="35" viewBox="0 0 36 35" fill="none" xmlns="http://www.w3.org/2000/svg">
<path d="M23.481 17.4122C23.481 18.4982 23.159 19.5597 22.5557 20.4627C21.9524 21.3656 21.0948 22.0694 20.0915 22.4849C19.0883 22.9005 17.9843 23.0093 16.9192 22.7974C15.8541 22.5855 14.8758 22.0626 14.1079 21.2947C13.34 20.5268 12.8171 19.5485 12.6052 18.4834C12.3933 17.4183 12.5021 16.3143 12.9176 15.311C13.3332 14.3078 14.037 13.4502 14.9399 12.8469C15.8428 12.2436 16.9044 11.9216 17.9904 11.9216C19.4461 11.9232 20.8417 12.5023 21.871 13.5316C22.9003 14.5609 23.4793 15.9565 23.481 17.4122ZM35.1487 9.86257V24.9619C35.1458 27.5094 34.1325 29.9517 32.3312 31.753C30.5298 33.5544 28.0875 34.5676 25.54 34.5706H10.4407C7.89321 34.5676 5.4509 33.5544 3.64955 31.753C1.84821 29.9517 0.834938 27.5094 0.832031 24.9619V9.86257C0.834938 7.31508 1.84821 4.87277 3.64955 3.07143C5.4509 1.27008 7.89321 0.256813 10.4407 0.253906H25.54C28.0875 0.256813 30.5298 1.27008 32.3312 3.07143C34.1325 4.87277 35.1458 7.31508 35.1487 9.86257V9.86257ZM26.2264 17.4122C26.2264 15.7833 25.7433 14.191 24.8383 12.8366C23.9334 11.4822 22.6471 10.4265 21.1421 9.80316C19.6372 9.1798 17.9812 9.0167 16.3836 9.33449C14.786 9.65228 13.3185 10.4367 12.1666 11.5885C11.0148 12.7403 10.2304 14.2078 9.91261 15.8055C9.59482 17.4031 9.75792 19.0591 10.3813 20.564C11.0047 22.0689 12.0603 23.3552 13.4147 24.2602C14.7691 25.1652 16.3614 25.6482 17.9904 25.6482C20.1739 25.6458 22.2674 24.7773 23.8114 23.2332C25.3554 21.6892 26.2239 19.5958 26.2264 17.4122V17.4122ZM28.9717 8.4899C28.9717 8.08267 28.8509 7.68458 28.6247 7.34598C28.3984 7.00738 28.0769 6.74348 27.7006 6.58763C27.3244 6.43179 26.9104 6.39102 26.511 6.47047C26.1116 6.54991 25.7447 6.74601 25.4568 7.03397C25.1688 7.32193 24.9727 7.6888 24.8932 8.08821C24.8138 8.48762 24.8546 8.90161 25.0104 9.27785C25.1663 9.65408 25.4302 9.97565 25.7688 10.2019C26.1074 10.4281 26.5055 10.5489 26.9127 10.5489C27.4588 10.5489 27.9825 10.332 28.3686 9.94583C28.7548 9.5597 28.9717 9.03598 28.9717 8.4899Z" fill="#25282B"/>
</svg>
