<svg width="30" height="30" viewBox="0 0 30 30" fill="none" xmlns="http://www.w3.org/2000/svg">
<path d="M14.9993 5.66675L16.4712 3.6062C17.0193 2.8389 17.2933 2.45525 17.1203 2.09889C16.9472 1.74253 16.5074 1.72212 15.6279 1.6813C15.4196 1.67164 15.2101 1.66675 14.9993 1.66675C7.63555 1.66675 1.66602 7.63628 1.66602 15.0001C1.66602 22.3639 7.63555 28.3334 14.9993 28.3334C22.3631 28.3334 28.3327 22.3639 28.3327 15.0001C28.3327 10.6379 26.2379 6.76499 22.9993 4.33244" stroke="#9E89FF" stroke-width="2" stroke-linecap="round" stroke-linejoin="round"/>
<path d="M17.6654 12.3335H13.5452C13.2274 12.3335 12.9538 12.5578 12.8915 12.8694L12.332 15.6668C13.257 15.4466 14.1394 15.1906 15.0939 15.1906C16.5141 15.1906 17.6654 16.3419 17.6654 17.7621C17.6654 19.1822 16.5141 20.3335 15.0939 20.3335C13.9907 20.3335 12.6823 20.3566 12.3745 19.0002" stroke="#9E89FF" stroke-width="2" stroke-linecap="round" stroke-linejoin="round"/>
</svg>
