<svg width="16" height="14" viewBox="0 0 16 14" fill="none" xmlns="http://www.w3.org/2000/svg">
<path d="M4.36803 9.42985C5.23838 8.49091 7.5232 6.49894 10.7698 6.49894V9.06992L15 4.78496L10.7698 0.5V3.07097C7.97794 3.07097 4.3987 5.77318 4.00159 9.25952C3.99609 9.30467 4.00492 9.35042 4.02681 9.39014C4.04869 9.42987 4.08248 9.46151 4.1233 9.48048C4.16411 9.49945 4.20983 9.50477 4.25383 9.49567C4.29783 9.48657 4.33782 9.46351 4.36803 9.42985Z" stroke="black" stroke-linecap="round" stroke-linejoin="round"/>
<path d="M7.5 1.5H3C1.89543 1.5 1 2.39543 1 3.5V11.5C1 12.6046 1.89543 13.5 3 13.5H12C13.1046 13.5 14 12.6046 14 11.5V10.5" stroke="black"/>
</svg>
