<svg width="16" height="16" viewBox="0 0 16 16" fill="none" xmlns="http://www.w3.org/2000/svg">
<path d="M3.63401 11.6341V15L8.37022 11.6341H14.4167C14.5714 11.6341 14.7197 11.5718 14.8291 11.461C14.9385 11.3502 15 11.2 15 11.0433V1.59078C15 1.4341 14.9385 1.28383 14.8291 1.17304C14.7197 1.06224 14.5714 1 14.4167 1H1.58333C1.42862 1 1.28025 1.06224 1.17085 1.17304C1.06146 1.28383 1 1.4341 1 1.59078V11.0433C1 11.2 1.06146 11.3502 1.17085 11.461C1.28025 11.5718 1.42862 11.6341 1.58333 11.6341H3.63401Z" stroke="black" stroke-linecap="round" stroke-linejoin="round"/>
</svg>
